{"glyphs":{"0":{"ha":817,"x_min":94,"x_max":764,"o":"m 118 492 q 190 756 146 649 q 313 925 233 863 q 517 988 392 988 q 707 915 650 988 q 764 710 764 843 q 740 492 764 626 q 668 226 713 335 q 544 53 624 117 q 340 -10 464 -10 q 151 63 207 -10 q 94 269 94 135 q 118 492 94 354 m 713 492 q 736 707 736 626 q 685 897 736 831 q 513 963 633 963 q 325 903 397 963 q 213 743 253 844 q 146 492 172 642 q 122 271 122 354 q 173 81 122 147 q 344 15 224 15 q 531 75 458 15 q 644 238 604 135 q 713 492 685 340 z "},"1":{"ha":314,"x_min":101,"x_max":303,"o":"m 122 953 l 128 978 l 303 978 l 129 0 l 101 0 l 269 953 l 122 953 z "},"2":{"ha":788,"x_min":3,"x_max":750,"o":"m 6 15 q 497 371 307 190 q 717 715 688 551 q 722 779 722 743 q 673 913 722 863 q 511 963 624 963 q 290 881 376 963 q 171 667 204 800 l 143 667 q 278 902 181 817 q 515 988 376 988 q 683 938 617 988 q 750 782 750 888 q 744 715 750 747 q 613 460 724 592 q 353 215 501 328 q 61 25 204 101 l 657 25 l 651 0 l 3 0 l 6 15 z "},"3":{"ha":799,"x_min":56,"x_max":757,"o":"m 151 717 q 284 915 188 843 q 521 988 381 988 q 697 934 636 988 q 757 793 757 881 q 753 746 757 771 q 669 591 738 657 q 469 514 600 525 l 468 506 q 628 440 568 493 q 688 299 688 388 q 683 249 688 276 q 576 63 663 136 q 343 -10 490 -10 q 131 65 206 -10 q 56 274 56 139 l 83 274 q 152 89 85 160 q 349 18 219 18 q 558 83 479 18 q 656 249 638 147 q 660 293 660 272 q 574 444 660 393 q 335 496 489 496 l 311 496 l 317 522 l 342 522 q 613 581 519 522 q 725 746 707 639 q 729 789 729 769 q 674 916 729 869 q 517 963 619 963 q 310 903 403 963 q 179 717 217 843 l 151 717 z "},"4":{"ha":797,"x_min":8,"x_max":761,"o":"m 8 264 l 13 286 l 686 978 l 714 978 l 592 289 l 761 289 l 757 264 l 588 264 l 540 0 l 513 0 l 560 264 l 8 264 m 678 933 l 47 289 l 564 289 l 678 933 z "},"5":{"ha":822,"x_min":75,"x_max":806,"o":"m 800 953 l 242 953 l 164 508 q 299 604 215 568 q 475 640 383 640 q 679 573 614 640 q 744 399 744 506 q 738 328 744 367 q 615 88 713 185 q 354 -10 518 -10 q 149 64 224 -10 q 78 267 75 138 l 106 267 q 176 82 107 146 q 358 18 244 18 q 596 103 506 18 q 710 328 686 189 q 717 396 717 367 q 653 558 717 500 q 471 615 590 615 q 291 574 375 615 q 153 463 207 533 l 128 463 l 219 978 l 806 978 l 800 953 z "},"6":{"ha":853,"x_min":96,"x_max":797,"o":"m 763 725 q 715 901 768 839 q 549 964 661 964 q 276 834 382 964 q 132 413 169 704 q 269 585 168 521 q 496 650 371 650 q 697 583 628 650 q 767 396 767 517 q 758 311 767 356 q 699 153 743 225 q 575 35 654 81 q 386 -10 496 -10 q 162 70 228 -10 q 96 290 96 150 q 114 471 96 369 q 263 854 158 719 q 553 989 368 989 q 738 918 678 989 q 790 725 797 847 l 763 725 m 492 625 q 336 593 414 625 q 201 497 258 561 q 128 340 143 433 q 121 269 121 301 q 186 88 121 160 q 390 15 251 15 q 613 94 521 15 q 731 311 706 174 q 738 393 738 347 q 673 566 738 507 q 492 625 608 625 z "},"7":{"ha":697,"x_min":115,"x_max":749,"o":"m 743 953 l 186 0 l 154 0 l 717 953 l 115 953 l 121 978 l 749 978 l 743 953 z "},"8":{"ha":844,"x_min":49,"x_max":808,"o":"m 339 503 q 206 572 249 522 q 164 692 164 621 q 168 739 164 714 q 285 919 188 851 q 531 988 382 988 q 735 933 663 988 q 808 785 808 878 q 804 739 808 763 q 726 588 789 651 q 550 503 663 525 q 698 432 646 486 q 750 294 750 378 q 746 246 750 271 q 618 40 722 115 q 350 -35 514 -35 q 127 25 206 -35 q 49 190 49 85 q 54 246 49 207 q 148 416 72 349 q 339 503 224 483 m 526 963 q 304 905 393 963 q 196 739 215 847 q 192 697 192 717 q 259 563 192 610 q 447 515 326 515 q 670 574 582 515 q 776 739 758 633 q 781 782 781 763 q 713 916 781 869 q 526 963 644 963 m 443 490 q 203 431 304 490 q 82 246 103 371 q 76 194 76 210 q 151 43 76 96 q 354 -10 225 -10 q 598 57 500 -10 q 718 246 696 124 q 722 293 722 271 q 645 442 722 394 q 443 490 568 490 z "},"9":{"ha":853,"x_min":96,"x_max":797,"o":"m 129 253 q 178 76 125 139 q 344 14 232 14 q 617 144 511 14 q 761 565 724 274 q 622 392 724 457 q 397 328 521 328 q 196 394 265 328 q 126 582 126 461 q 135 667 126 624 q 194 825 150 753 q 318 942 239 897 q 507 988 397 988 q 731 908 665 988 q 797 688 797 828 q 779 507 797 608 q 630 124 735 258 q 340 -11 525 -11 q 156 60 215 -11 q 101 253 96 131 l 129 253 m 401 353 q 556 385 479 353 q 691 481 633 417 q 765 638 749 544 q 772 708 772 676 q 707 890 772 818 q 503 963 642 963 q 280 883 372 963 q 163 667 188 804 q 156 585 156 631 q 220 412 156 471 q 401 353 285 353 z "},"\u0000":{"ha":0,"x_min":0,"x_max":0,"o":""},"\r":{"ha":403,"x_min":0,"x_max":0,"o":""}," ":{"ha":403,"x_min":0,"x_max":0,"o":""},"अ":{"ha":1133,"x_min":83,"x_max":1272,"o":"m 1272 1028 l 1269 1006 l 1044 1006 l 867 0 l 843 0 l 938 535 l 590 536 q 640 469 622 510 q 657 379 657 428 q 653 331 657 356 q 544 139 632 211 q 331 67 456 67 q 151 127 219 67 q 83 288 83 188 q 88 339 83 313 l 111 339 q 107 292 107 314 q 169 144 107 200 q 333 89 231 89 q 529 156 449 89 q 629 331 610 222 q 633 376 633 354 q 581 512 633 457 q 417 567 529 567 l 369 567 l 374 589 l 421 589 q 557 619 499 589 q 649 697 615 650 q 692 794 683 744 q 696 839 696 818 q 639 971 696 924 q 493 1018 582 1018 q 304 959 386 1018 q 206 801 222 900 l 182 801 q 290 976 201 913 q 497 1040 379 1040 q 659 988 597 1040 q 721 844 721 935 q 717 800 721 824 q 643 655 701 714 q 488 579 585 596 l 488 578 q 558 557 528 574 l 942 557 l 1025 1028 l 1272 1028 z "},"आ":{"ha":1510,"x_min":83,"x_max":1649,"o":"m 1644 1006 l 1419 1006 l 1243 0 l 1219 0 l 1396 1006 l 1044 1006 l 867 0 l 843 0 l 938 535 l 590 536 q 640 469 622 510 q 657 379 657 428 q 653 331 657 356 q 544 139 632 211 q 331 67 456 67 q 151 127 219 67 q 83 288 83 188 q 88 339 83 313 l 111 339 q 107 292 107 314 q 169 144 107 200 q 333 89 231 89 q 529 156 449 89 q 629 331 610 222 q 633 376 633 354 q 581 512 633 457 q 417 567 529 567 l 369 567 l 374 589 l 421 589 q 557 619 499 589 q 649 697 615 650 q 692 794 683 744 q 696 839 696 818 q 639 971 696 924 q 493 1018 582 1018 q 304 959 386 1018 q 206 801 222 900 l 182 801 q 290 976 201 913 q 497 1040 379 1040 q 659 988 597 1040 q 721 844 721 935 q 717 800 721 824 q 643 655 701 714 q 488 579 585 596 l 488 578 q 558 557 528 574 l 942 557 l 1025 1028 l 1649 1028 l 1644 1006 z "},"इ":{"ha":808,"x_min":26,"x_max":976,"o":"m 736 1006 l 696 781 l 692 758 l 457 758 q 280 724 356 758 q 189 596 204 689 q 186 563 186 583 q 238 467 186 497 q 371 436 289 436 l 433 436 q 610 394 540 436 q 681 257 681 351 q 676 208 681 236 q 585 50 660 113 q 382 -12 510 -12 q 233 19 290 -12 q 149 92 175 50 q 119 167 122 133 l 74 -97 l 51 -97 l 113 256 l 133 256 q 191 78 126 147 q 386 10 256 10 q 569 67 499 10 q 653 208 639 124 q 657 253 657 232 q 591 377 657 340 q 428 414 525 414 l 365 414 q 218 451 274 414 q 163 561 163 488 q 165 596 163 583 q 263 738 182 696 q 450 781 344 781 l 672 781 l 713 1006 l 26 1006 l 29 1028 l 976 1028 l 974 1006 l 736 1006 z "},"ई":{"ha":808,"x_min":26,"x_max":1122,"o":"m 969 1381 q 1082 1340 1042 1381 q 1122 1233 1122 1300 q 1118 1192 1122 1213 l 1096 1192 q 1099 1228 1099 1204 q 1063 1322 1099 1286 q 965 1358 1028 1358 q 829 1303 882 1358 q 758 1142 776 1247 l 739 1028 l 976 1028 l 974 1006 l 736 1006 l 696 781 l 692 758 l 457 758 q 280 724 356 758 q 189 596 204 689 q 186 563 186 583 q 238 467 186 497 q 371 436 289 436 l 433 436 q 610 394 540 436 q 681 257 681 351 q 676 208 681 236 q 585 50 660 113 q 382 -12 510 -12 q 233 19 290 -12 q 149 92 175 50 q 119 167 122 133 l 74 -97 l 51 -97 l 113 256 l 133 256 q 191 78 126 147 q 386 10 256 10 q 569 67 499 10 q 653 208 639 124 q 657 253 657 232 q 591 377 657 340 q 428 414 525 414 l 365 414 q 218 451 274 414 q 163 561 163 488 q 165 596 163 583 q 263 738 182 696 q 450 781 344 781 l 672 781 l 713 1006 l 26 1006 l 29 1028 l 715 1028 l 736 1143 q 817 1320 757 1260 q 969 1381 878 1381 z "},"उ":{"ha":811,"x_min":38,"x_max":950,"o":"m 946 1006 l 735 1006 l 700 808 q 624 662 685 722 q 485 590 564 601 l 483 589 q 618 510 571 574 q 665 358 665 447 q 660 300 665 339 q 597 147 644 214 q 476 41 550 79 q 313 3 403 3 q 171 35 232 3 q 76 123 110 67 q 43 250 43 179 q 47 301 43 275 l 71 301 q 67 254 67 276 q 99 137 67 189 q 188 55 131 85 q 317 25 244 25 q 526 102 439 25 q 636 300 614 179 q 642 356 642 336 q 585 513 642 449 q 406 576 528 576 l 358 576 l 363 599 l 410 599 q 592 660 524 599 q 678 813 661 722 l 711 1006 l 38 1006 l 42 1028 l 950 1028 l 946 1006 z "},"ऊ":{"ha":1217,"x_min":38,"x_max":1356,"o":"m 700 808 q 624 662 685 722 q 485 590 564 601 l 483 589 l 807 589 q 1008 537 931 589 q 1085 374 1085 485 q 1079 315 1085 343 q 965 112 1054 175 q 758 49 876 49 q 708 51 742 49 l 713 72 q 763 69 749 69 q 952 128 872 69 q 1056 315 1032 186 q 1061 371 1061 342 q 990 520 1061 474 q 804 567 918 567 l 551 567 q 636 483 607 538 q 665 358 665 428 q 660 300 665 339 q 597 147 644 214 q 476 41 550 79 q 313 3 403 3 q 171 35 232 3 q 76 123 110 67 q 43 250 43 179 q 47 301 43 275 l 71 301 q 67 254 67 276 q 99 137 67 189 q 188 55 131 85 q 317 25 244 25 q 526 102 439 25 q 636 300 614 179 q 642 356 642 336 q 585 513 642 449 q 406 576 528 576 l 358 576 l 363 599 l 410 599 q 592 660 524 599 q 678 813 661 722 l 711 1006 l 38 1006 l 42 1028 l 1356 1028 l 1351 1006 l 735 1006 l 700 808 z "},"ऋ":{"ha":1381,"x_min":38,"x_max":1519,"o":"m 829 1006 l 757 592 l 1047 592 q 1208 699 1178 592 l 1232 831 l 1256 831 l 1172 357 l 1168 335 l 1151 335 q 993 281 1057 335 q 915 144 929 226 q 911 101 911 122 q 958 -6 911 29 q 1079 -42 1004 -42 q 1161 -28 1122 -42 l 1157 -50 q 1120 -60 1144 -56 q 1075 -64 1096 -64 q 940 -24 993 -64 q 888 97 888 17 q 892 144 888 119 q 977 295 908 235 q 1149 357 1046 356 l 1197 632 q 1042 569 1146 569 l 753 569 l 653 0 l 629 0 l 721 524 l 142 0 l 117 0 l 118 6 l 725 554 l 726 579 q 664 742 726 679 q 492 806 601 806 q 328 767 404 806 q 199 657 251 729 q 131 489 147 585 l 107 489 q 181 668 125 592 q 319 786 238 744 q 493 828 400 828 q 661 778 597 828 q 742 644 725 728 l 806 1006 l 38 1006 l 42 1028 l 1519 1028 l 1515 1006 l 829 1006 z "},"ॠ":{"ha":1381,"x_min":38,"x_max":1519,"o":"m 829 1006 l 756 592 l 1046 592 q 1213 722 1190 592 l 1224 789 l 1225 789 l 1232 831 l 1256 831 l 1172 357 l 1168 335 l 1107 335 q 989 303 1040 335 q 925 200 938 271 q 922 172 922 181 q 963 94 922 119 q 1069 68 1003 68 l 1121 68 l 1117 46 l 1056 46 q 938 14 989 46 q 874 -89 886 -18 q 871 -117 871 -108 q 911 -195 871 -169 q 1018 -221 951 -221 q 1092 -214 1054 -221 q 1153 -199 1129 -207 l 1149 -221 q 1089 -237 1126 -231 q 1014 -243 1051 -243 q 894 -212 940 -243 q 847 -121 847 -182 q 850 -89 847 -111 q 900 8 861 -29 q 989 56 939 46 l 990 58 q 923 98 947 69 q 899 169 899 126 q 901 200 899 178 q 975 318 917 279 q 1111 357 1033 357 l 1149 357 l 1197 635 q 1040 569 1146 569 l 751 569 l 651 0 l 628 0 l 721 525 l 140 0 l 115 0 l 117 6 l 725 554 l 726 578 q 663 742 726 679 q 490 806 600 806 q 326 767 403 806 q 198 657 250 729 q 129 489 146 585 l 106 489 q 180 668 124 592 q 317 786 236 744 q 492 828 399 828 q 660 778 596 828 q 742 643 725 728 l 806 1006 l 38 1006 l 42 1028 l 1519 1028 l 1515 1006 l 829 1006 z "},"ऌ":{"ha":1243,"x_min":38,"x_max":1382,"o":"m 969 1006 l 929 778 q 1074 710 1025 772 q 1124 547 1124 647 q 1118 474 1124 507 q 1071 335 1106 394 l 1060 335 q 901 281 965 335 q 824 144 838 226 q 819 101 819 122 q 866 -6 819 29 q 988 -42 913 -42 q 1069 -28 1031 -42 l 1065 -50 q 1028 -60 1053 -56 q 983 -64 1004 -64 q 849 -24 901 -64 q 796 97 796 17 q 800 144 796 119 q 885 295 817 235 q 1057 357 954 356 q 1094 474 1085 418 q 1101 549 1101 518 q 1054 699 1101 642 q 915 756 1007 756 q 717 666 797 756 q 617 421 636 576 l 615 410 l 592 410 l 593 421 q 600 521 600 481 q 558 694 600 633 q 426 756 515 756 q 233 677 310 756 q 135 474 157 599 q 128 399 128 429 q 188 231 128 293 q 365 168 247 168 q 410 171 376 168 l 406 147 q 358 144 372 144 q 169 213 233 144 q 104 394 104 281 q 111 474 104 428 q 217 694 135 610 q 425 778 299 778 q 543 742 499 778 q 606 651 588 706 q 621 538 624 596 l 624 538 q 724 705 656 635 q 906 778 793 775 l 946 1006 l 38 1006 l 42 1028 l 1382 1028 l 1378 1006 l 969 1006 z "},"ॡ":{"ha":1254,"x_min":49,"x_max":1393,"o":"m 971 1006 l 931 778 q 1075 710 1026 772 q 1124 547 1124 647 q 1118 474 1124 507 q 1072 335 1106 397 l 1011 335 q 893 303 944 335 q 829 200 842 271 q 826 172 826 181 q 867 94 826 119 q 974 68 907 68 l 1025 68 l 1021 46 l 960 46 q 842 14 893 46 q 778 -89 790 -18 q 775 -117 775 -108 q 815 -195 775 -169 q 922 -221 856 -221 q 996 -214 958 -221 q 1057 -199 1033 -207 l 1053 -221 q 993 -237 1031 -231 q 918 -243 956 -243 q 798 -212 844 -243 q 751 -119 751 -181 q 794 -2 751 -49 q 893 56 836 44 l 894 58 q 827 98 851 69 q 803 169 803 126 q 806 200 803 178 q 879 318 821 279 q 1015 357 938 357 l 1058 357 q 1094 474 1085 414 q 1101 549 1101 518 q 1054 699 1101 642 q 915 756 1007 756 q 717 666 797 756 q 617 421 636 576 l 615 410 l 592 410 l 593 421 q 600 521 600 481 q 558 694 600 633 q 426 756 515 756 q 233 677 310 756 q 135 474 157 599 q 128 399 128 429 q 188 231 128 293 q 365 168 247 168 q 410 171 376 168 l 406 147 q 358 144 372 144 q 169 213 233 144 q 104 394 104 281 q 111 474 104 428 q 217 694 135 610 q 425 778 299 778 q 543 742 499 778 q 606 651 588 706 q 621 538 624 596 l 624 538 q 724 705 656 635 q 907 778 793 775 l 947 1006 l 49 1006 l 53 1028 l 1393 1028 l 1389 1006 l 971 1006 z "},"ए":{"ha":903,"x_min":36,"x_max":1042,"o":"m 1038 1006 l 851 1006 l 815 800 q 728 593 790 657 q 550 529 665 529 l 518 531 l 522 553 q 553 551 533 551 q 713 610 657 551 q 792 800 768 669 l 828 1006 l 275 1006 l 165 386 q 156 294 156 331 q 222 114 156 179 q 415 49 289 49 q 630 126 549 49 q 735 347 711 204 l 758 347 q 644 110 733 194 q 411 26 556 26 q 203 97 274 26 q 132 292 132 167 q 142 386 132 328 l 251 1006 l 36 1006 l 40 1028 l 1042 1028 l 1038 1006 z "},"ऐ":{"ha":903,"x_min":36,"x_max":1042,"o":"m 1038 1006 l 851 1006 l 815 800 q 728 593 790 657 q 550 529 665 529 l 518 531 l 522 553 q 553 551 533 551 q 713 610 657 551 q 792 800 768 669 l 828 1006 l 275 1006 l 165 386 q 156 294 156 331 q 222 114 156 179 q 415 49 289 49 q 630 126 549 49 q 735 347 711 204 l 758 347 q 644 110 733 194 q 411 26 556 26 q 203 97 274 26 q 132 292 132 167 q 142 386 132 328 l 251 1006 l 36 1006 l 40 1028 l 829 1028 q 722 1224 768 1164 q 629 1301 675 1285 q 500 1317 583 1317 l 456 1317 l 460 1339 l 504 1339 q 641 1322 592 1339 q 740 1239 690 1304 q 854 1028 789 1174 l 1042 1028 l 1038 1006 z "},"ओ":{"ha":1510,"x_min":83,"x_max":1649,"o":"m 1649 1028 l 1644 1006 l 1419 1006 l 1243 0 l 1219 0 l 1396 1006 l 1044 1006 l 867 0 l 843 0 l 938 535 l 590 536 q 640 469 622 510 q 657 379 657 428 q 653 331 657 356 q 544 139 632 211 q 331 67 456 67 q 151 127 219 67 q 83 288 83 188 q 88 339 83 313 l 111 339 q 107 292 107 314 q 169 144 107 200 q 333 89 231 89 q 529 156 449 89 q 629 331 610 222 q 633 376 633 354 q 581 512 633 457 q 417 567 529 567 l 369 567 l 374 589 l 421 589 q 557 619 499 589 q 649 697 615 650 q 692 794 683 744 q 696 839 696 818 q 639 971 696 924 q 493 1018 582 1018 q 304 959 386 1018 q 206 801 222 900 l 182 801 q 290 976 201 913 q 497 1040 379 1040 q 659 988 597 1040 q 721 844 721 935 q 717 800 721 824 q 643 655 701 714 q 488 579 585 596 l 488 578 q 558 557 528 574 l 942 557 l 1025 1028 l 1514 1028 q 1406 1224 1451 1164 q 1314 1301 1360 1285 q 1185 1317 1268 1317 l 1140 1317 l 1144 1339 l 1189 1339 q 1326 1322 1276 1339 q 1424 1239 1375 1304 q 1539 1028 1474 1174 l 1649 1028 z "},"औ":{"ha":1510,"x_min":83,"x_max":1649,"o":"m 1649 1028 l 1644 1006 l 1419 1006 l 1243 0 l 1219 0 l 1396 1006 l 1044 1006 l 867 0 l 843 0 l 938 535 l 590 536 q 640 469 622 510 q 657 379 657 428 q 653 331 657 356 q 544 139 632 211 q 331 67 456 67 q 151 127 219 67 q 83 288 83 188 q 88 339 83 313 l 111 339 q 107 292 107 314 q 169 144 107 200 q 333 89 231 89 q 529 156 449 89 q 629 331 610 222 q 633 376 633 354 q 581 512 633 457 q 417 567 529 567 l 369 567 l 374 589 l 421 589 q 557 619 499 589 q 649 697 615 650 q 692 794 683 744 q 696 839 696 818 q 639 971 696 924 q 493 1018 582 1018 q 304 959 386 1018 q 206 801 222 900 l 182 801 q 290 976 201 913 q 497 1040 379 1040 q 659 988 597 1040 q 721 844 721 935 q 717 800 721 824 q 643 655 701 714 q 488 579 585 596 l 488 578 q 558 557 528 574 l 942 557 l 1025 1028 l 1518 1028 q 1397 1139 1447 1104 q 1298 1183 1346 1174 q 1167 1192 1250 1192 l 1122 1192 l 1126 1214 l 1171 1214 q 1301 1206 1254 1214 q 1398 1165 1349 1197 q 1511 1061 1447 1133 q 1414 1282 1457 1214 q 1326 1368 1371 1350 q 1201 1386 1282 1386 l 1157 1386 l 1160 1408 l 1204 1408 q 1341 1388 1293 1408 q 1436 1287 1389 1367 q 1543 1028 1483 1207 l 1649 1028 z "},"ऍ":{"ha":904,"x_min":4,"x_max":1010,"o":"m 543 1186 q 389 1237 440 1186 q 338 1357 338 1288 q 340 1388 338 1368 l 363 1388 q 360 1361 360 1371 q 406 1253 360 1299 q 547 1208 453 1208 q 671 1235 618 1208 q 755 1303 724 1263 q 793 1388 786 1344 l 815 1388 q 773 1294 807 1340 q 680 1217 739 1247 q 543 1186 621 1186 m 1006 1006 l 819 1006 l 783 800 q 696 593 758 657 q 518 529 633 529 l 486 531 l 490 553 q 521 551 501 551 q 681 610 625 551 q 760 800 736 669 l 796 1006 l 243 1006 l 133 386 q 124 294 124 331 q 190 114 124 179 q 383 49 257 49 q 598 126 517 49 q 703 347 679 204 l 726 347 q 613 110 701 194 q 379 26 524 26 q 171 97 242 26 q 100 292 100 167 q 110 386 100 328 l 219 1006 l 4 1006 l 8 1028 l 1010 1028 l 1006 1006 z "},"ॲ":{"ha":1133,"x_min":83,"x_max":1478,"o":"m 1272 1028 l 1269 1006 l 1044 1006 l 867 0 l 843 0 l 938 535 l 590 536 q 640 469 622 510 q 657 379 657 428 q 653 331 657 356 q 544 139 632 211 q 331 67 456 67 q 151 127 219 67 q 83 288 83 188 q 88 339 83 313 l 111 339 q 107 292 107 314 q 169 144 107 200 q 333 89 231 89 q 529 156 449 89 q 629 331 610 222 q 633 376 633 354 q 581 512 633 457 q 417 567 529 567 l 369 567 l 374 589 l 421 589 q 557 619 499 589 q 649 697 615 650 q 692 794 683 744 q 696 839 696 818 q 639 971 696 924 q 493 1018 582 1018 q 304 959 386 1018 q 206 801 222 900 l 182 801 q 290 976 201 913 q 497 1040 379 1040 q 659 988 597 1040 q 721 844 721 935 q 717 800 721 824 q 643 655 701 714 q 488 579 585 596 l 488 578 q 558 557 528 574 l 942 557 l 1025 1028 l 1272 1028 m 1478 1388 q 1435 1293 1468 1339 q 1346 1217 1403 1247 q 1211 1186 1289 1186 q 1053 1238 1107 1186 q 1000 1358 1000 1289 q 1003 1388 1000 1368 l 1025 1388 q 1022 1360 1022 1371 q 1069 1253 1022 1297 q 1208 1208 1115 1208 q 1333 1235 1279 1208 q 1417 1303 1386 1263 q 1456 1388 1449 1344 l 1478 1388 z "},"ऑ":{"ha":1510,"x_min":83,"x_max":1653,"o":"m 1644 1006 l 1419 1006 l 1243 0 l 1219 0 l 1396 1006 l 1044 1006 l 867 0 l 843 0 l 938 535 l 590 536 q 640 469 622 510 q 657 379 657 428 q 653 331 657 356 q 544 139 632 211 q 331 67 456 67 q 151 127 219 67 q 83 288 83 188 q 88 339 83 313 l 111 339 q 107 292 107 314 q 169 144 107 200 q 333 89 231 89 q 529 156 449 89 q 629 331 610 222 q 633 376 633 354 q 581 512 633 457 q 417 567 529 567 l 369 567 l 374 589 l 421 589 q 557 619 499 589 q 649 697 615 650 q 692 794 683 744 q 696 839 696 818 q 639 971 696 924 q 493 1018 582 1018 q 304 959 386 1018 q 206 801 222 900 l 182 801 q 290 976 201 913 q 497 1040 379 1040 q 659 988 597 1040 q 721 844 721 935 q 717 800 721 824 q 643 655 701 714 q 488 579 585 596 l 488 578 q 558 557 528 574 l 942 557 l 1025 1028 l 1649 1028 l 1644 1006 m 1653 1388 q 1610 1293 1643 1339 q 1521 1217 1578 1247 q 1386 1186 1464 1186 q 1228 1238 1282 1186 q 1175 1358 1175 1289 q 1178 1388 1175 1368 l 1200 1388 q 1197 1360 1197 1371 q 1244 1253 1197 1297 q 1383 1208 1290 1208 q 1508 1235 1454 1208 q 1592 1303 1561 1263 q 1631 1388 1624 1344 l 1653 1388 z "},"ा":{"ha":376,"x_min":38,"x_max":515,"o":"m 86 0 l 263 1006 l 38 1006 l 42 1028 l 515 1028 l 511 1006 l 286 1006 l 110 0 l 86 0 z "},"ि":{"ha":376,"x_min":38,"x_max":1257,"o":"m 814 1340 q 1126 1283 994 1340 q 1257 1090 1257 1226 q 1253 1042 1257 1067 l 1249 1018 l 1225 1018 l 1229 1042 q 1233 1085 1233 1065 q 1106 1265 1233 1213 q 810 1318 978 1318 q 465 1260 613 1318 q 290 1035 317 1203 l 289 1028 l 515 1028 l 511 1006 l 286 1006 l 108 0 l 85 0 l 263 1006 l 38 1006 l 42 1028 l 265 1028 l 267 1035 q 449 1277 294 1214 q 814 1340 604 1340 z "},"ी":{"ha":375,"x_min":-112,"x_max":514,"o":"m 514 1028 l 511 1006 l 286 1006 l 108 0 l 85 0 l 263 1006 l 38 1006 l 40 1028 l 265 1028 l 278 1092 q 285 1164 285 1133 q 251 1276 285 1235 q 142 1318 217 1318 q -3 1256 49 1318 q -75 1092 -56 1193 l -89 1019 l -112 1019 l -99 1092 q -17 1271 -78 1201 q 146 1340 43 1340 q 269 1294 231 1340 q 308 1168 308 1249 q 301 1092 308 1125 l 289 1028 l 514 1028 z "},"ु":{"ha":0,"x_min":-656,"x_max":-124,"o":"m -126 -161 q -220 -312 -144 -258 q -412 -367 -296 -367 q -588 -317 -521 -367 q -656 -171 -656 -267 q -647 -104 -656 -140 l -625 -104 q -633 -169 -633 -140 q -572 -301 -633 -257 q -408 -344 -510 -344 q -235 -296 -306 -344 q -150 -158 -165 -247 q -147 -128 -147 -139 q -180 -37 -147 -74 q -271 0 -212 0 l -290 0 l -286 22 l -267 22 q -162 -21 -200 22 q -124 -126 -124 -64 q -126 -161 -124 -150 z "},"ू":{"ha":0,"x_min":-539,"x_max":-11,"o":"m -318 -360 q -362 -364 -339 -364 q -488 -322 -437 -364 q -539 -210 -539 -279 q -536 -176 -539 -187 q -451 -32 -521 -86 q -275 22 -381 22 q -85 -47 -158 22 q -11 -240 -11 -115 q -21 -335 -11 -287 l -25 -353 l -47 -353 l -42 -324 q -33 -243 -33 -281 q -100 -65 -33 -129 q -274 0 -167 0 q -399 -27 -344 0 q -485 -101 -454 -54 q -515 -208 -515 -149 q -473 -304 -515 -268 q -362 -340 -431 -340 q -314 -336 -339 -340 l -318 -360 z "},"ृ":{"ha":0,"x_min":-546,"x_max":-256,"o":"m -260 -385 q -302 -394 -275 -390 q -353 -399 -329 -399 q -489 -349 -432 -399 q -546 -218 -546 -300 q -512 -95 -546 -150 q -419 -9 -479 -40 q -279 22 -358 22 l -264 22 l -267 0 l -283 0 q -409 -28 -354 0 q -493 -105 -464 -56 q -522 -215 -522 -154 q -472 -333 -522 -290 q -349 -376 -421 -376 q -256 -362 -300 -376 l -260 -385 z "},"ॄ":{"ha":0,"x_min":-587,"x_max":-264,"o":"m -285 -556 q -345 -572 -308 -565 q -419 -578 -382 -578 q -540 -544 -493 -578 q -587 -447 -587 -510 q -585 -417 -587 -439 q -535 -324 -574 -360 q -444 -279 -496 -289 l -444 -276 q -512 -237 -487 -265 q -536 -165 -536 -208 q -533 -135 -536 -157 q -460 -17 -518 -56 q -324 22 -401 22 l -264 22 l -267 0 l -328 0 q -446 -32 -394 0 q -510 -135 -497 -64 q -512 -162 -512 -154 q -472 -241 -512 -215 q -365 -267 -432 -267 l -314 -267 l -317 -289 l -378 -289 q -498 -319 -446 -289 q -561 -417 -550 -350 q -564 -443 -564 -436 q -522 -526 -564 -497 q -415 -556 -481 -556 q -343 -549 -381 -556 q -281 -533 -306 -543 l -285 -556 z "},"ॢ":{"ha":0,"x_min":-682,"x_max":43,"o":"m -101 -28 q 6 -72 -31 -28 q 43 -189 43 -115 q 38 -246 43 -207 q 6 -343 28 -301 l -3 -343 q -126 -390 -78 -343 q -174 -503 -174 -437 q -139 -580 -174 -554 q -53 -606 -104 -606 q 6 -596 -18 -606 l 1 -618 q -57 -626 -24 -626 q -156 -597 -117 -626 q -196 -510 -196 -567 q -144 -378 -196 -432 q -7 -322 -92 -325 q 15 -246 10 -282 q 21 -190 21 -207 q -11 -87 21 -125 q -108 -49 -43 -49 q -240 -110 -187 -49 q -314 -282 -292 -172 l -315 -289 l -337 -289 l -336 -282 q -328 -203 -328 -239 q -360 -89 -328 -129 q -454 -49 -393 -49 q -587 -103 -535 -49 q -656 -246 -640 -158 q -660 -296 -660 -271 q -618 -413 -660 -369 q -494 -457 -576 -457 q -464 -454 -478 -457 l -468 -475 q -501 -478 -482 -478 q -636 -429 -590 -478 q -682 -300 -682 -381 q -678 -246 -682 -274 q -600 -88 -661 -149 q -450 -28 -539 -28 q -341 -79 -374 -28 q -312 -199 -308 -131 l -310 -199 q -236 -78 -287 -129 q -101 -28 -185 -28 z "},"ॣ":{"ha":0,"x_min":-682,"x_max":43,"o":"m -101 -28 q 6 -72 -31 -28 q 43 -189 43 -115 q 38 -246 43 -207 q 6 -343 28 -301 l -39 -343 q -126 -370 -89 -343 q -164 -456 -164 -397 q -137 -512 -164 -494 q -64 -531 -110 -531 l -29 -531 l -32 -551 l -69 -551 q -155 -573 -118 -551 q -200 -644 -192 -594 q -201 -662 -201 -650 q -174 -717 -201 -699 q -100 -735 -146 -735 q -6 -718 -47 -735 l -8 -739 q -103 -754 -51 -754 q -189 -732 -156 -754 q -222 -665 -222 -710 q -219 -643 -222 -660 q -183 -575 -211 -601 q -121 -542 -156 -549 l -121 -540 q -185 -458 -185 -522 q -183 -436 -185 -444 q -131 -351 -174 -379 q -35 -322 -89 -322 l -7 -322 q 15 -246 10 -282 q 21 -190 21 -207 q -11 -87 21 -125 q -108 -49 -43 -49 q -240 -110 -187 -49 q -314 -282 -292 -172 l -315 -289 l -337 -289 l -336 -282 q -328 -203 -328 -239 q -360 -89 -328 -129 q -454 -49 -393 -49 q -587 -103 -535 -49 q -656 -246 -640 -158 q -660 -296 -660 -271 q -618 -413 -660 -369 q -494 -457 -576 -457 q -464 -454 -478 -457 l -468 -475 q -501 -478 -482 -478 q -636 -429 -590 -478 q -682 -300 -682 -381 q -678 -246 -682 -274 q -600 -88 -661 -149 q -450 -28 -539 -28 q -341 -79 -374 -28 q -312 -199 -308 -131 l -310 -199 q -236 -78 -287 -129 q -101 -28 -185 -28 z "},"े":{"ha":0,"x_min":-485,"x_max":-85,"o":"m -110 1024 q -219 1222 -172 1161 q -311 1300 -265 1283 q -440 1317 -357 1317 l -485 1317 l -481 1339 l -436 1339 q -299 1322 -347 1339 q -201 1238 -250 1304 q -85 1024 -151 1172 l -110 1024 z "},"ै":{"ha":0,"x_min":-508,"x_max":-86,"o":"m -426 1408 q -290 1388 -337 1408 q -194 1286 -242 1367 q -86 1024 -147 1206 l -108 1024 q -232 1138 -181 1103 q -332 1182 -283 1172 q -464 1192 -381 1192 l -508 1192 l -504 1214 l -460 1214 q -329 1206 -376 1214 q -233 1165 -282 1197 q -119 1061 -183 1133 q -217 1282 -174 1214 q -304 1368 -260 1350 q -429 1386 -349 1386 l -474 1386 l -471 1408 l -426 1408 z "},"ो":{"ha":376,"x_min":-110,"x_max":515,"o":"m 515 1028 l 511 1006 l 286 1006 l 108 0 l 85 0 l 263 1006 l 38 1006 l 42 1028 l 264 1028 q 156 1224 201 1164 q 64 1301 110 1285 q -65 1317 18 1317 l -110 1317 l -106 1339 l -61 1339 q 76 1322 26 1339 q 174 1239 125 1304 q 289 1028 224 1174 l 515 1028 z "},"ौ":{"ha":376,"x_min":-164,"x_max":482,"o":"m 482 1028 l 478 1006 l 253 1006 l 76 0 l 53 0 l 229 1006 l 4 1006 l 8 1028 l 232 1028 q 110 1139 161 1104 q 12 1183 60 1174 q -119 1192 -36 1192 l -164 1192 l -160 1214 l -115 1214 q 15 1206 -32 1214 q 112 1165 63 1197 q 225 1061 161 1133 q 128 1282 171 1214 q 40 1368 85 1350 q -85 1386 -4 1386 l -129 1386 l -126 1408 l -82 1408 q 55 1388 7 1408 q 150 1287 103 1367 q 257 1028 197 1207 l 482 1028 z "},"ॅ":{"ha":0,"x_min":-283,"x_max":194,"o":"m 194 1346 q 152 1251 185 1297 q 63 1175 119 1206 q -72 1144 6 1144 q -230 1196 -176 1144 q -283 1317 -283 1247 q -281 1346 -283 1326 l -258 1346 q -261 1318 -261 1329 q -215 1211 -261 1256 q -75 1167 -168 1167 q 49 1194 -4 1167 q 134 1262 103 1221 q 172 1346 165 1303 l 194 1346 z "},"ॉ":{"ha":376,"x_min":38,"x_max":572,"o":"m 572 1346 q 530 1251 563 1297 q 440 1175 497 1206 q 306 1144 383 1144 q 148 1196 201 1144 q 94 1317 94 1247 q 97 1346 94 1326 l 119 1346 q 117 1318 117 1329 q 163 1211 117 1256 q 303 1167 210 1167 q 427 1194 374 1167 q 512 1262 481 1221 q 550 1346 543 1303 l 572 1346 m 86 0 l 263 1006 l 38 1006 l 42 1028 l 515 1028 l 511 1006 l 286 1006 l 110 0 l 86 0 z "},"क":{"ha":1418,"x_min":38,"x_max":1557,"o":"m 813 1006 l 743 614 q 865 756 788 700 q 1053 811 943 811 q 1233 744 1163 811 q 1303 564 1303 678 q 1297 499 1303 531 q 1228 326 1279 399 q 1105 215 1178 253 q 947 176 1032 176 q 869 185 906 176 l 874 207 q 951 199 907 199 q 1094 234 1026 199 q 1210 338 1163 269 q 1274 499 1257 406 q 1279 561 1279 528 q 1215 728 1279 667 q 1051 789 1151 789 q 890 747 960 789 q 780 639 821 704 q 724 501 739 574 l 636 0 l 614 0 l 679 369 q 555 231 636 285 q 365 176 474 176 q 179 243 250 176 q 108 426 108 310 q 115 499 108 457 q 185 664 132 593 q 313 773 238 735 q 472 811 389 811 q 646 756 583 811 q 722 615 708 701 l 790 1006 l 38 1006 l 42 1028 l 1557 1028 l 1553 1006 l 813 1006 m 367 199 q 529 241 460 199 q 640 347 599 283 q 697 478 682 411 l 701 501 q 706 556 706 529 q 649 722 706 654 q 471 789 592 789 q 324 753 394 789 q 204 652 254 718 q 139 499 154 586 q 133 431 133 467 q 197 260 133 321 q 367 199 261 199 z "},"ख":{"ha":1263,"x_min":38,"x_max":1401,"o":"m 1401 1028 l 1397 1006 l 1172 1006 l 996 0 l 972 0 l 1042 394 q 931 270 1003 319 q 761 221 858 221 q 697 228 729 221 q 557 65 646 129 q 354 0 468 0 q 164 62 233 0 q 94 233 94 124 q 100 297 94 268 l 144 547 l 206 547 q 361 597 292 547 q 454 782 431 647 l 493 1006 l 38 1006 l 42 1028 l 1401 1028 m 1149 1006 l 517 1006 l 478 782 q 376 581 451 636 q 193 525 301 525 l 164 525 l 124 297 q 118 239 118 269 q 182 81 118 139 q 360 22 246 22 q 544 83 460 22 q 675 235 629 144 q 567 313 607 257 q 526 451 526 369 q 531 508 526 479 q 591 655 544 592 q 706 751 638 718 q 851 785 774 785 q 1010 736 953 785 q 1079 613 1067 688 l 1149 1006 m 765 243 q 913 282 850 243 q 1012 381 975 321 q 1060 501 1049 440 q 1065 556 1065 538 q 1012 703 1065 643 q 849 763 958 763 q 717 732 779 763 q 611 644 654 701 q 554 508 568 586 q 549 451 549 469 q 609 299 549 354 q 765 243 669 243 z "},"ग":{"ha":949,"x_min":38,"x_max":1088,"o":"m 1088 1028 l 1083 1006 l 858 1006 l 682 0 l 658 0 l 835 1006 l 524 1006 l 447 575 q 381 435 432 490 q 239 379 329 379 q 125 422 163 379 q 88 531 88 465 q 92 572 88 551 l 100 614 l 124 614 l 115 571 q 111 531 111 550 q 142 438 111 475 q 239 401 172 401 q 366 451 322 401 q 424 575 410 501 l 500 1006 l 38 1006 l 42 1028 l 1088 1028 z "},"घ":{"ha":1001,"x_min":38,"x_max":1140,"o":"m 1136 1006 l 913 1006 l 735 0 l 711 0 l 779 383 q 622 222 725 282 q 394 161 518 161 q 190 214 265 161 q 114 367 114 267 q 118 415 114 390 q 208 569 135 511 q 375 636 282 628 l 375 639 q 263 688 306 647 q 221 807 221 728 q 226 864 221 836 l 253 1006 l 38 1006 l 42 1028 l 1140 1028 l 1136 1006 m 889 1006 l 276 1006 l 250 864 q 244 808 244 825 q 297 689 244 729 q 460 649 349 649 l 535 649 l 531 626 l 456 626 q 237 567 315 626 q 142 415 158 508 q 138 371 138 393 q 209 231 138 278 q 399 183 281 183 q 578 224 493 183 q 723 337 664 264 q 800 501 782 410 l 889 1006 z "},"ङ":{"ha":865,"x_min":39,"x_max":1004,"o":"m 1004 1028 l 1000 1006 l 729 1006 l 689 781 l 685 758 l 450 758 q 185 596 214 758 q 182 564 182 574 q 233 467 182 497 q 364 436 283 436 l 426 436 q 602 392 531 436 q 674 254 674 349 q 669 208 674 233 q 570 49 651 111 q 356 -12 489 -12 q 146 49 218 -12 q 74 208 74 111 q 78 256 74 231 l 101 256 q 97 210 97 233 q 163 65 97 119 q 360 10 228 10 q 555 66 479 10 q 646 208 631 122 q 650 253 650 232 q 584 377 650 340 q 421 414 518 414 l 358 414 q 215 452 272 414 q 158 563 158 490 q 161 597 158 585 q 258 739 179 697 q 440 781 336 781 l 665 781 l 706 1006 l 39 1006 l 43 1028 l 1004 1028 m 808 610 q 831 601 822 610 q 836 576 839 592 q 822 552 833 561 q 796 543 810 543 q 773 552 781 543 q 768 576 765 561 q 782 601 771 592 q 808 610 793 610 z "},"च":{"ha":997,"x_min":38,"x_max":1136,"o":"m 1132 1006 l 908 1006 l 731 0 l 707 0 l 769 353 q 634 214 722 268 q 446 160 546 160 q 260 223 333 160 q 188 394 188 286 q 193 450 188 411 q 277 625 211 551 q 442 729 343 699 l 106 729 l 110 751 l 606 751 l 601 729 l 561 729 q 398 692 471 729 q 278 592 325 656 q 217 450 231 528 q 211 396 211 411 q 278 239 211 296 q 449 182 346 182 q 602 220 529 182 q 724 321 675 258 q 788 456 772 383 l 885 1006 l 38 1006 l 42 1028 l 1136 1028 l 1132 1006 z "},"छ":{"ha":1122,"x_min":35,"x_max":1261,"o":"m 917 1006 l 876 779 q 1006 722 954 776 q 1057 568 1057 668 q 1050 494 1057 539 q 941 254 1025 356 q 732 99 857 153 q 461 46 607 46 q 185 113 290 46 q 79 300 79 179 q 83 349 79 324 q 179 519 103 456 q 356 590 256 582 l 356 593 q 244 642 286 601 q 203 760 203 682 q 208 818 203 790 l 242 1006 l 35 1006 l 38 1028 l 1261 1028 l 1258 1006 l 917 1006 m 893 1006 l 265 1006 l 232 818 q 226 761 226 790 q 278 642 226 682 q 440 603 329 603 l 474 603 l 471 581 l 438 581 q 210 515 294 581 q 107 349 125 450 q 103 303 103 326 q 203 128 103 189 q 464 68 304 68 q 720 120 600 68 q 922 269 840 172 q 1025 493 1003 365 q 1032 563 1032 535 q 982 708 1032 658 q 860 757 932 757 q 713 708 782 757 q 625 551 644 658 q 619 488 619 524 q 626 403 619 451 l 603 403 q 596 483 596 438 q 601 551 596 524 q 694 719 622 664 q 853 779 765 775 l 893 1006 z "},"ज":{"ha":1143,"x_min":38,"x_max":1282,"o":"m 1278 1006 l 1054 1006 l 876 0 l 853 0 l 974 685 l 617 685 l 579 472 q 486 290 558 360 q 306 221 414 221 q 171 275 221 221 q 121 417 121 329 q 126 472 121 433 l 168 707 l 192 707 l 150 471 q 144 415 144 432 q 188 290 144 338 q 308 243 232 243 q 470 306 403 243 q 556 471 538 369 l 597 707 l 978 707 l 1031 1006 l 38 1006 l 42 1028 l 1282 1028 l 1278 1006 z "},"झ":{"ha":1164,"x_min":47,"x_max":1303,"o":"m 1299 1006 l 1074 1006 l 896 0 l 872 0 l 946 415 l 551 417 q 645 359 610 400 q 681 253 681 318 q 676 208 681 232 q 588 59 660 118 q 392 0 515 0 q 247 30 304 0 q 163 97 190 60 q 132 163 136 135 l 85 -99 l 61 -99 l 122 240 l 143 240 q 205 85 142 147 q 397 22 268 22 q 574 76 508 22 q 653 208 639 129 q 657 250 657 232 q 598 371 657 328 q 429 414 539 414 l 367 414 q 219 451 275 414 q 163 561 163 489 q 165 596 163 583 q 263 738 182 696 q 450 781 344 781 l 672 781 l 713 1006 l 47 1006 l 51 1028 l 1303 1028 l 1299 1006 m 1050 1006 l 736 1006 l 696 781 l 692 758 l 457 758 q 281 723 358 758 q 189 596 204 688 q 186 563 186 583 q 238 467 186 497 q 371 436 289 436 l 433 436 l 950 436 l 1050 1006 z "},"ञ":{"ha":1093,"x_min":38,"x_max":1232,"o":"m 1228 1006 l 1003 1006 l 826 0 l 803 0 l 888 482 l 707 482 q 644 327 690 399 q 523 212 597 256 q 350 168 449 168 q 163 233 225 168 q 94 383 101 297 l 118 383 q 181 249 125 306 q 351 192 238 192 q 513 233 442 192 q 627 342 583 274 q 685 492 671 410 q 690 557 690 521 q 631 723 690 658 q 457 788 572 788 q 264 729 342 788 q 156 594 186 671 l 132 594 q 249 746 167 682 q 461 810 332 810 q 651 739 589 810 q 714 560 714 668 q 710 504 714 532 l 892 504 l 979 1006 l 38 1006 l 42 1028 l 1232 1028 l 1228 1006 z "},"ट":{"ha":901,"x_min":31,"x_max":1040,"o":"m 556 774 q 269 687 389 774 q 119 433 150 600 q 114 371 114 406 q 150 235 114 294 q 251 142 186 175 q 401 110 317 110 q 579 152 499 110 q 713 271 660 194 q 782 444 765 347 l 806 444 q 732 258 788 339 q 590 133 676 178 q 397 88 504 88 q 238 123 308 88 q 129 222 168 158 q 90 369 90 286 q 96 435 90 406 q 255 705 128 614 q 560 796 382 796 l 632 796 l 668 1006 l 31 1006 l 35 1028 l 1040 1028 l 1036 1006 l 692 1006 l 650 774 l 556 774 z "},"ठ":{"ha":938,"x_min":31,"x_max":1076,"o":"m 563 1006 l 522 776 q 672 737 607 774 q 772 636 736 700 q 808 492 808 572 q 803 426 808 456 q 725 251 785 328 q 577 131 665 174 q 389 88 489 88 q 234 124 301 88 q 129 224 167 160 q 92 371 92 289 q 97 438 92 408 q 172 610 114 535 q 315 730 229 686 q 499 776 400 774 l 539 1006 l 31 1006 l 35 1028 l 1076 1028 l 1072 1006 l 563 1006 m 779 426 q 785 490 785 456 q 750 628 785 568 q 653 721 715 688 q 507 754 590 754 q 334 714 417 754 q 194 601 251 674 q 121 438 138 529 q 115 375 115 410 q 150 238 115 297 q 248 144 185 178 q 393 110 311 110 q 566 150 483 110 q 706 263 649 190 q 779 426 763 335 z "},"ड":{"ha":810,"x_min":39,"x_max":949,"o":"m 450 758 q 185 596 214 758 q 182 564 182 574 q 233 467 182 497 q 364 436 283 436 l 426 436 q 602 392 531 436 q 674 254 674 349 q 669 208 674 233 q 570 49 651 111 q 356 -12 489 -12 q 146 49 218 -12 q 74 208 74 111 q 78 256 74 231 l 101 256 q 97 210 97 233 q 163 65 97 119 q 360 10 228 10 q 555 66 479 10 q 646 208 631 122 q 650 253 650 232 q 584 377 650 340 q 421 414 518 414 l 358 414 q 215 452 272 414 q 158 563 158 490 q 161 597 158 585 q 258 739 179 697 q 440 781 336 781 l 654 781 l 694 1006 l 39 1006 l 43 1028 l 949 1028 l 944 1006 l 718 1006 l 674 758 l 450 758 z "},"ढ":{"ha":869,"x_min":35,"x_max":1008,"o":"m 575 774 q 369 733 464 774 q 208 610 274 692 q 121 410 142 529 q 114 340 114 371 q 153 190 114 256 q 263 90 192 125 q 426 54 335 54 q 576 85 507 54 q 691 171 646 117 q 749 293 736 225 q 753 333 753 314 q 708 449 753 404 q 589 493 664 493 q 453 447 511 493 q 383 322 394 400 q 381 292 381 303 l 357 292 q 360 324 357 304 q 440 463 375 411 q 593 515 506 515 q 725 465 674 515 q 776 336 776 415 q 772 293 776 317 q 710 158 760 218 q 586 65 661 99 q 422 32 511 32 q 250 70 325 32 q 133 178 175 108 q 90 338 90 247 q 97 408 90 367 q 190 624 119 538 q 360 753 260 711 q 579 796 461 796 l 661 796 l 697 1006 l 35 1006 l 39 1028 l 1008 1028 l 1004 1006 l 721 1006 l 681 774 l 575 774 z "},"ण":{"ha":1139,"x_min":38,"x_max":1278,"o":"m 1274 1006 l 1049 1006 l 872 0 l 849 0 l 1025 1006 l 678 1006 l 599 554 q 508 372 578 442 q 333 303 438 303 q 192 355 243 303 q 140 494 140 407 q 146 554 140 526 l 225 1006 l 38 1006 l 42 1028 l 1278 1028 l 1274 1006 m 654 1006 l 249 1006 l 169 553 q 164 499 164 514 q 208 372 164 419 q 332 325 253 325 q 492 388 426 325 q 575 553 557 451 l 654 1006 z "},"त":{"ha":946,"x_min":38,"x_max":1085,"o":"m 1081 1006 l 857 1006 l 679 0 l 656 0 l 775 676 l 544 676 q 256 595 369 676 q 113 351 142 514 q 106 274 106 306 q 180 90 106 154 q 393 25 254 25 l 426 25 l 422 3 l 389 3 q 163 73 243 3 q 82 272 82 143 q 89 351 82 317 q 241 613 121 526 q 547 699 361 699 l 779 699 l 833 1006 l 38 1006 l 42 1028 l 1085 1028 l 1081 1006 z "},"थ":{"ha":1028,"x_min":132,"x_max":1167,"o":"m 1167 1028 l 1164 1006 l 939 1006 l 761 0 l 738 0 l 803 367 q 731 269 781 317 q 608 190 681 221 q 451 158 536 158 q 217 236 303 158 q 132 444 132 314 q 139 522 132 489 q 150 571 142 538 l 300 571 q 531 622 431 571 q 654 807 631 674 q 658 851 658 831 q 613 972 658 926 q 483 1018 567 1018 q 294 938 364 1018 q 224 729 224 857 l 200 729 q 235 890 200 819 q 334 1001 269 961 q 483 1040 399 1040 q 629 988 576 1040 q 682 854 682 936 q 678 807 682 831 q 548 608 653 667 q 297 549 443 549 l 168 549 q 156 447 156 494 q 235 251 156 321 q 454 181 314 181 q 619 219 540 181 q 751 324 697 257 q 821 476 806 392 l 918 1028 l 1167 1028 z "},"द":{"ha":843,"x_min":38,"x_max":982,"o":"m 978 1006 l 742 1006 l 704 794 l 536 794 q 356 762 440 794 q 214 663 272 729 q 139 497 156 596 q 133 435 133 468 q 199 265 133 328 q 379 201 265 201 q 505 227 440 201 q 619 308 569 253 q 683 446 669 363 l 704 446 l 626 0 l 603 0 l 661 335 q 548 223 626 267 q 376 179 469 179 q 182 249 254 179 q 110 432 110 318 q 115 497 110 468 q 262 737 144 657 q 539 817 379 817 l 683 817 l 718 1006 l 38 1006 l 42 1028 l 982 1028 l 978 1006 z "},"ध":{"ha":963,"x_min":117,"x_max":1101,"o":"m 1099 1006 l 874 1006 l 696 0 l 672 0 l 739 382 q 586 221 685 281 q 369 161 488 161 q 188 214 260 161 q 117 357 117 267 q 121 399 117 376 q 199 539 138 488 q 335 597 260 590 l 335 600 q 228 656 271 611 q 186 775 186 701 q 190 825 186 799 q 276 979 207 918 q 444 1040 346 1040 q 576 996 529 1040 q 624 875 624 951 q 613 796 624 833 l 589 796 q 600 872 600 833 q 558 980 600 942 q 440 1018 517 1018 q 292 962 356 1018 q 214 824 228 906 q 210 779 210 801 q 263 656 210 701 q 421 611 317 611 l 496 611 l 492 589 l 417 589 q 266 558 328 589 q 173 475 204 526 q 142 361 142 424 q 207 230 142 276 q 374 183 272 183 q 546 224 464 183 q 685 336 628 264 q 760 499 743 408 l 851 1017 l 853 1028 l 1101 1028 l 1099 1006 z "},"न":{"ha":1056,"x_min":38,"x_max":1194,"o":"m 1190 1006 l 967 1006 l 789 0 l 765 0 l 888 689 l 489 689 q 573 626 540 672 q 606 514 606 579 q 601 467 606 492 q 500 291 582 360 q 308 222 418 222 q 151 276 210 222 q 92 418 92 331 q 96 464 92 439 q 198 642 115 575 q 401 710 281 710 l 890 710 l 943 1006 l 38 1006 l 42 1028 l 1194 1028 l 1190 1006 m 578 467 q 582 513 582 490 q 529 639 582 590 q 390 688 476 688 q 213 626 288 688 q 119 464 138 564 q 115 419 115 442 q 168 292 115 340 q 313 244 221 244 q 433 274 376 244 q 528 355 490 304 q 578 467 567 406 z "},"प":{"ha":882,"x_min":38,"x_max":1021,"o":"m 1017 1006 l 792 1006 l 615 0 l 592 0 l 678 488 q 563 365 636 410 q 394 321 489 321 q 216 384 278 321 q 154 563 154 447 q 163 651 154 604 l 225 1006 l 38 1006 l 42 1028 l 1021 1028 l 1017 1006 m 768 1006 l 249 1006 l 186 651 q 178 565 178 606 q 233 401 178 458 q 396 343 289 343 q 538 377 475 343 q 642 469 601 411 q 697 597 683 528 l 768 1006 z "},"फ":{"ha":1369,"x_min":38,"x_max":1508,"o":"m 764 1006 l 694 608 q 817 754 738 697 q 1007 811 896 811 q 1185 745 1115 811 q 1254 565 1254 679 q 1249 499 1254 531 q 1180 326 1231 399 q 1056 215 1129 253 q 899 176 982 176 q 821 185 857 176 l 825 207 q 903 199 858 199 q 1047 234 979 199 q 1161 338 1114 269 q 1225 499 1208 406 q 1231 561 1231 528 q 1167 728 1231 667 q 1003 789 1103 789 q 842 746 911 789 q 731 637 772 703 q 675 499 689 571 l 588 0 l 564 0 l 650 490 q 538 366 610 411 q 376 321 467 321 q 209 381 265 321 q 153 553 153 440 q 163 651 153 589 l 225 1006 l 38 1006 l 42 1028 l 1508 1028 l 1504 1006 l 764 1006 m 740 1006 l 249 1006 l 186 651 q 176 554 176 590 q 227 397 176 451 q 382 343 278 343 q 574 419 496 343 q 671 608 651 494 l 740 1006 z "},"ब":{"ha":958,"x_min":38,"x_max":1097,"o":"m 1097 1028 l 1093 1006 l 868 1006 l 692 0 l 668 0 l 735 372 q 601 225 689 283 q 396 167 514 167 q 249 198 315 167 q 146 288 183 229 q 108 428 108 347 q 114 490 108 461 q 188 667 132 592 q 326 783 244 743 q 500 824 408 824 q 690 763 619 824 q 775 613 760 703 l 844 1006 l 38 1006 l 42 1028 l 1097 1028 m 642 286 q 717 385 688 331 q 754 493 746 440 q 760 551 760 519 q 732 675 760 618 q 646 767 704 732 q 500 801 588 801 q 378 781 438 801 q 269 719 318 760 l 642 286 m 138 490 q 132 429 132 463 q 206 253 132 317 q 397 189 281 189 q 626 272 529 189 l 254 706 q 138 490 163 625 z "},"भ":{"ha":1031,"x_min":107,"x_max":1169,"o":"m 1169 1028 l 1167 1006 l 942 1006 l 764 0 l 740 0 l 844 596 l 567 596 l 542 451 q 454 255 519 321 q 292 189 389 189 q 158 236 208 189 q 107 361 107 283 q 111 403 107 381 q 202 559 129 500 q 378 618 275 618 l 547 618 l 575 772 q 583 857 583 818 q 549 975 583 933 q 443 1017 514 1017 q 310 965 367 1017 q 236 822 253 913 q 232 761 232 793 l 208 761 q 213 822 208 793 q 294 982 231 924 q 443 1040 357 1040 q 566 993 525 1040 q 607 857 607 946 q 599 774 607 819 l 571 618 l 849 618 l 921 1028 l 1169 1028 m 544 596 l 375 596 q 217 543 283 596 q 135 403 150 490 q 131 363 131 382 q 175 252 131 293 q 292 211 219 211 q 438 274 378 211 q 518 450 499 336 l 544 596 z "},"म":{"ha":1021,"x_min":38,"x_max":1160,"o":"m 1156 1006 l 931 1006 l 754 0 l 731 0 l 835 596 l 513 596 l 488 451 q 400 255 465 321 q 238 189 335 189 q 103 236 154 189 q 53 361 53 283 q 57 403 53 381 q 147 559 74 500 q 324 618 221 618 l 493 618 l 561 1006 l 38 1006 l 42 1028 l 1160 1028 l 1156 1006 m 907 1006 l 585 1006 l 517 618 l 839 618 l 907 1006 m 489 596 l 319 596 q 162 543 228 596 q 81 403 96 490 q 76 363 76 382 q 121 252 76 293 q 238 211 165 211 q 383 274 324 211 q 464 450 443 336 l 489 596 z "},"य":{"ha":1000,"x_min":38,"x_max":1139,"o":"m 1135 1006 l 910 1006 l 733 0 l 710 0 l 779 393 q 644 251 736 311 q 425 192 551 192 q 199 272 281 192 q 117 492 117 353 q 125 583 117 536 q 136 632 131 613 l 161 632 q 380 685 293 632 q 493 882 467 739 l 514 1006 l 38 1006 l 42 1028 l 1139 1028 l 1135 1006 m 886 1006 l 538 1006 l 517 882 q 397 670 489 731 q 157 610 304 610 l 153 610 l 147 583 q 139 492 139 533 q 216 287 139 360 q 431 214 293 214 q 593 249 515 214 q 725 350 671 285 q 797 500 779 415 l 886 1006 z "},"र":{"ha":750,"x_min":39,"x_max":889,"o":"m 885 1006 l 676 1006 l 644 821 q 525 594 617 668 q 293 519 433 519 l 164 519 l 124 283 q 117 210 117 253 q 167 64 117 118 q 311 10 217 10 q 481 78 414 10 q 569 261 549 146 l 572 276 l 596 276 q 593 261 593 265 q 498 61 572 135 q 311 -12 424 -12 q 149 47 207 -12 q 92 207 92 106 q 100 285 92 243 l 144 542 l 297 542 q 511 611 426 542 q 621 821 596 681 l 653 1006 l 39 1006 l 43 1028 l 889 1028 l 885 1006 z "},"ल":{"ha":1231,"x_min":25,"x_max":1369,"o":"m 957 1006 l 917 778 q 1063 711 1013 774 q 1113 550 1113 649 q 1106 474 1113 518 q 988 236 1081 328 q 747 144 894 144 q 696 147 729 144 l 700 171 q 743 168 731 168 q 970 253 882 168 q 1082 474 1058 338 q 1089 547 1089 515 q 1042 699 1089 642 q 903 756 996 756 q 710 667 788 756 q 604 421 632 578 l 603 410 l 579 410 l 581 421 q 592 533 592 485 q 545 697 592 639 q 408 756 499 756 q 218 678 292 756 q 122 474 144 600 q 115 399 115 429 q 175 231 115 293 q 353 168 235 168 q 396 171 365 168 l 392 147 q 351 144 364 144 q 158 213 225 144 q 90 396 90 282 q 99 474 90 432 q 203 694 122 611 q 410 778 283 778 q 569 706 521 778 q 613 538 617 633 l 615 538 q 715 703 646 632 q 893 778 783 774 l 933 1006 l 25 1006 l 29 1028 l 1369 1028 l 1365 1006 l 957 1006 z "},"व":{"ha":946,"x_min":38,"x_max":1085,"o":"m 1085 1028 l 1081 1006 l 856 1006 l 679 0 l 656 0 l 721 372 q 590 230 676 286 q 386 174 504 174 q 186 242 263 174 q 110 431 110 310 q 115 499 110 467 q 188 667 132 594 q 322 778 243 739 q 490 817 401 817 q 681 759 613 817 q 763 611 749 701 l 832 1006 l 38 1006 l 42 1028 l 1085 1028 m 386 196 q 565 241 489 196 q 685 354 640 286 q 742 492 729 422 q 747 553 747 518 q 685 725 747 656 q 492 794 622 794 q 335 759 410 794 q 208 656 260 724 q 139 499 156 589 q 133 433 133 469 q 203 258 133 321 q 386 196 272 196 z "},"श":{"ha":1079,"x_min":106,"x_max":1218,"o":"m 506 1040 q 668 981 607 1040 q 729 821 729 921 q 724 758 729 788 q 601 556 700 626 q 360 485 501 485 l 171 485 l 136 283 q 129 210 129 239 q 179 63 129 117 q 326 10 229 10 q 506 82 432 10 q 599 276 581 154 l 622 276 q 526 68 603 149 q 328 -12 450 -12 q 163 46 219 -12 q 106 207 106 104 q 113 285 106 250 l 151 507 l 364 507 q 586 575 492 507 q 701 764 681 643 q 707 821 707 790 q 652 965 707 913 q 506 1018 597 1018 q 356 976 421 1018 q 254 860 290 933 q 218 694 218 786 l 194 694 q 234 872 194 793 q 344 996 274 951 q 506 1040 415 1040 m 1218 1028 l 1214 1006 l 989 1006 l 813 0 l 789 0 l 969 1028 l 1218 1028 z "},"ष":{"ha":882,"x_min":38,"x_max":1021,"o":"m 1017 1006 l 792 1006 l 615 0 l 592 0 l 678 486 q 563 365 636 410 q 397 321 490 321 q 220 387 286 321 q 154 569 154 453 q 163 651 154 608 l 225 1006 l 38 1006 l 42 1028 l 1021 1028 l 1017 1006 m 768 1006 l 250 1006 l 679 539 q 699 608 693 575 l 768 1006 m 403 343 q 563 391 493 343 q 669 518 633 439 l 244 978 l 186 651 q 179 572 179 617 q 238 403 179 464 q 403 343 297 343 z "},"स":{"ha":1126,"x_min":38,"x_max":1265,"o":"m 1261 1006 l 1036 1006 l 860 0 l 836 0 l 932 547 l 168 547 l 122 283 q 115 213 115 242 q 165 64 115 118 q 313 10 215 10 q 485 84 418 10 q 571 276 553 158 l 594 276 q 502 68 575 149 q 311 -12 429 -12 q 149 48 207 -12 q 92 213 92 108 q 99 285 92 243 l 149 569 l 301 569 q 513 644 426 569 q 624 849 600 719 l 653 1006 l 38 1006 l 42 1028 l 1265 1028 l 1261 1006 m 1013 1006 l 675 1006 l 646 849 q 559 660 624 729 q 414 568 494 590 l 936 568 l 1013 1006 z "},"ह":{"ha":828,"x_min":50,"x_max":967,"o":"m 967 1028 l 963 1006 l 750 1006 l 711 785 l 707 763 l 440 763 q 288 726 353 763 q 210 611 224 690 q 207 582 207 592 q 243 494 207 529 q 340 446 279 460 q 429 456 389 456 q 569 425 513 456 q 652 349 625 394 q 683 254 679 303 l 660 254 q 631 338 656 297 q 554 406 606 379 q 425 433 503 433 q 267 395 338 433 q 153 294 197 357 q 97 160 110 232 q 92 103 92 133 q 151 -51 92 8 q 329 -111 211 -111 q 515 -58 438 -111 q 626 67 593 -4 l 650 67 q 533 -73 617 -11 q 329 -135 450 -135 q 135 -67 201 -135 q 68 103 68 0 q 74 160 68 121 q 150 326 90 251 q 301 435 210 401 q 220 486 256 450 q 185 581 185 522 q 188 613 185 590 q 273 743 203 701 q 444 785 343 785 l 688 785 l 726 1006 l 50 1006 l 54 1028 l 967 1028 z "},"ळ":{"ha":1415,"x_min":22,"x_max":1554,"o":"m 1097 1006 l 1061 800 q 1233 726 1168 793 q 1297 553 1297 660 q 1292 488 1297 517 q 1226 332 1276 401 q 1099 224 1175 263 q 935 185 1022 185 q 800 215 857 185 q 713 297 743 246 q 682 408 683 349 l 679 408 q 556 250 644 315 q 351 185 468 185 q 163 253 235 185 q 92 429 92 321 q 97 488 92 461 q 165 651 114 581 q 292 761 217 722 q 454 800 368 800 q 640 735 576 800 q 710 579 703 671 l 713 579 q 833 735 750 671 q 1038 800 917 799 l 1074 1006 l 22 1006 l 26 1028 l 1554 1028 l 1550 1006 l 1097 1006 m 681 488 q 686 551 686 517 q 624 716 686 654 q 453 778 563 778 q 302 742 372 778 q 184 640 232 706 q 121 488 136 574 q 115 432 115 449 q 181 269 115 331 q 353 207 246 207 q 504 243 435 207 q 620 343 574 279 q 681 488 667 407 m 1268 488 q 1274 549 1274 517 q 1210 716 1274 654 q 1039 778 1146 778 q 822 697 913 778 q 708 488 732 617 q 703 429 703 460 q 765 268 703 329 q 936 207 828 207 q 1087 242 1017 207 q 1206 342 1157 278 q 1268 488 1254 406 z "},"क़":{"ha":1418,"x_min":38,"x_max":1557,"o":"m 813 1006 l 743 614 q 865 756 788 700 q 1053 811 943 811 q 1233 744 1163 811 q 1303 564 1303 678 q 1297 499 1303 531 q 1228 326 1279 399 q 1105 215 1178 253 q 947 176 1032 176 q 869 185 906 176 l 874 207 q 951 199 907 199 q 1094 234 1026 199 q 1210 338 1163 269 q 1274 499 1257 406 q 1279 561 1279 528 q 1215 728 1279 667 q 1051 789 1151 789 q 890 747 960 789 q 780 639 821 704 q 724 501 739 574 l 636 0 l 614 0 l 679 369 q 555 231 636 285 q 365 176 474 176 q 179 243 250 176 q 108 426 108 310 q 115 499 108 457 q 185 664 132 593 q 313 773 238 735 q 472 811 389 811 q 646 756 583 811 q 722 615 708 701 l 790 1006 l 38 1006 l 42 1028 l 1557 1028 l 1553 1006 l 813 1006 m 367 199 q 529 241 460 199 q 640 347 599 283 q 697 478 682 411 l 701 501 q 706 556 706 529 q 649 722 706 654 q 471 789 592 789 q 324 753 394 789 q 204 652 254 718 q 139 499 154 586 q 133 431 133 467 q 197 260 133 321 q 367 199 261 199 m 357 10 q 345 -18 357 -7 q 318 -29 333 -29 q 297 -22 304 -29 q 289 -1 289 -14 q 301 26 289 15 q 329 38 313 38 q 349 30 342 38 q 357 10 357 22 z "},"ख़":{"ha":1263,"x_min":38,"x_max":1401,"o":"m 1401 1028 l 1397 1006 l 1172 1006 l 996 0 l 972 0 l 1042 394 q 931 270 1003 319 q 761 221 858 221 q 697 228 729 221 q 557 65 646 129 q 354 0 468 0 q 164 62 233 0 q 94 233 94 124 q 100 297 94 268 l 144 547 l 206 547 q 361 597 292 547 q 454 782 431 647 l 493 1006 l 38 1006 l 42 1028 l 1401 1028 m 1149 1006 l 517 1006 l 478 782 q 376 581 451 636 q 193 525 301 525 l 164 525 l 124 297 q 118 239 118 269 q 182 81 118 139 q 360 22 246 22 q 544 83 460 22 q 675 235 629 144 q 567 313 607 257 q 526 451 526 369 q 531 508 526 479 q 591 655 544 592 q 706 751 638 718 q 851 785 774 785 q 1010 736 953 785 q 1079 613 1067 688 l 1149 1006 m 765 243 q 913 282 850 243 q 1012 381 975 321 q 1060 501 1049 440 q 1065 556 1065 538 q 1012 703 1065 643 q 849 763 958 763 q 717 732 779 763 q 611 644 654 701 q 554 508 568 586 q 549 451 549 469 q 609 299 549 354 q 765 243 669 243 m 340 -167 q 328 -194 340 -183 q 301 -206 317 -206 q 280 -198 288 -206 q 272 -178 272 -190 q 284 -150 272 -161 q 313 -139 296 -139 q 333 -147 325 -139 q 340 -167 340 -154 z "},"ग़":{"ha":949,"x_min":38,"x_max":1088,"o":"m 1088 1028 l 1083 1006 l 858 1006 l 682 0 l 658 0 l 835 1006 l 524 1006 l 447 575 q 381 435 432 490 q 239 379 329 379 q 125 422 163 379 q 88 531 88 465 q 92 572 88 551 l 100 614 l 124 614 l 115 571 q 111 531 111 550 q 142 438 111 475 q 239 401 172 401 q 366 451 322 401 q 424 575 410 501 l 500 1006 l 38 1006 l 42 1028 l 1088 1028 m 247 203 q 235 175 247 186 q 208 164 224 164 q 187 172 194 164 q 179 192 179 179 q 191 219 179 208 q 219 231 203 231 q 240 223 232 231 q 247 203 247 215 z "},"ज़":{"ha":1143,"x_min":38,"x_max":1282,"o":"m 1278 1006 l 1054 1006 l 876 0 l 853 0 l 974 685 l 617 685 l 579 472 q 486 290 558 360 q 306 221 414 221 q 171 275 221 221 q 121 417 121 329 q 126 472 121 433 l 168 707 l 192 707 l 150 471 q 144 415 144 432 q 188 290 144 338 q 308 243 232 243 q 470 306 403 243 q 556 471 538 369 l 597 707 l 978 707 l 1031 1006 l 38 1006 l 42 1028 l 1282 1028 l 1278 1006 m 315 54 q 303 26 315 38 q 276 15 292 15 q 255 23 263 15 q 247 43 247 31 q 259 71 247 60 q 288 82 271 82 q 308 74 300 82 q 315 54 315 67 z "},"ड़":{"ha":810,"x_min":39,"x_max":949,"o":"m 450 758 q 185 596 214 758 q 182 564 182 574 q 233 467 182 497 q 364 436 283 436 l 426 436 q 602 392 531 436 q 674 254 674 349 q 669 208 674 233 q 570 49 651 111 q 356 -12 489 -12 q 146 49 218 -12 q 74 208 74 111 q 78 256 74 231 l 101 256 q 97 210 97 233 q 163 65 97 119 q 360 10 228 10 q 555 66 479 10 q 646 208 631 122 q 650 253 650 232 q 584 377 650 340 q 421 414 518 414 l 358 414 q 215 452 272 414 q 158 563 158 490 q 161 597 158 585 q 258 739 179 697 q 440 781 336 781 l 654 781 l 694 1006 l 39 1006 l 43 1028 l 949 1028 l 944 1006 l 718 1006 l 674 758 l 450 758 m 349 -179 q 337 -207 349 -196 q 310 -218 325 -218 q 288 -210 296 -218 q 281 -190 281 -203 q 292 -162 281 -174 q 321 -151 304 -151 q 341 -159 333 -151 q 349 -179 349 -167 z "},"ढ़":{"ha":869,"x_min":35,"x_max":1008,"o":"m 575 774 q 369 733 464 774 q 208 610 274 692 q 121 410 142 529 q 114 340 114 371 q 153 190 114 256 q 263 90 192 125 q 426 54 335 54 q 576 85 507 54 q 691 171 646 117 q 749 293 736 225 q 753 333 753 314 q 708 449 753 404 q 589 493 664 493 q 453 447 511 493 q 383 322 394 400 q 381 292 381 303 l 357 292 q 360 324 357 304 q 440 463 375 411 q 593 515 506 515 q 725 465 674 515 q 776 336 776 415 q 772 293 776 317 q 710 158 760 218 q 586 65 661 99 q 422 32 511 32 q 250 70 325 32 q 133 178 175 108 q 90 338 90 247 q 97 408 90 367 q 190 624 119 538 q 360 753 260 711 q 579 796 461 796 l 661 796 l 697 1006 l 35 1006 l 39 1028 l 1008 1028 l 1004 1006 l 721 1006 l 681 774 l 575 774 m 386 -135 q 374 -162 386 -151 q 347 -174 363 -174 q 326 -166 333 -174 q 318 -146 318 -158 q 330 -118 318 -129 q 358 -107 342 -107 q 378 -115 371 -107 q 386 -135 386 -122 z "},"फ़":{"ha":1369,"x_min":38,"x_max":1508,"o":"m 764 1006 l 694 608 q 817 754 738 697 q 1007 811 896 811 q 1185 745 1115 811 q 1254 565 1254 679 q 1249 499 1254 531 q 1180 326 1231 399 q 1056 215 1129 253 q 899 176 982 176 q 821 185 857 176 l 825 207 q 903 199 858 199 q 1047 234 979 199 q 1161 338 1114 269 q 1225 499 1208 406 q 1231 561 1231 528 q 1167 728 1231 667 q 1003 789 1103 789 q 842 746 911 789 q 731 637 772 703 q 675 499 689 571 l 588 0 l 564 0 l 650 490 q 538 366 610 411 q 376 321 467 321 q 209 381 265 321 q 153 553 153 440 q 163 651 153 589 l 225 1006 l 38 1006 l 42 1028 l 1508 1028 l 1504 1006 l 764 1006 m 740 1006 l 249 1006 l 186 651 q 176 554 176 590 q 227 397 176 451 q 382 343 278 343 q 574 419 496 343 q 671 608 651 494 l 740 1006 m 371 154 q 359 126 371 138 q 332 115 347 115 q 310 123 318 115 q 303 143 303 131 q 315 171 303 160 q 343 182 326 182 q 363 174 356 182 q 371 154 371 167 z "},"ऱ":{"ha":750,"x_min":36,"x_max":889,"o":"m 885 1006 l 676 1006 l 644 821 q 525 594 617 668 q 293 519 433 519 l 164 519 l 124 283 q 117 210 117 253 q 167 64 117 118 q 311 10 217 10 q 481 78 414 10 q 569 261 549 146 l 572 276 l 596 276 q 593 261 593 265 q 498 61 572 135 q 311 -12 424 -12 q 149 47 207 -12 q 92 207 92 106 q 100 285 92 243 l 144 542 l 297 542 q 511 611 426 542 q 621 821 596 681 l 653 1006 l 39 1006 l 43 1028 l 889 1028 l 885 1006 m 104 -117 q 92 -144 104 -133 q 65 -156 81 -156 q 44 -148 51 -156 q 36 -128 36 -140 q 48 -100 36 -111 q 76 -89 60 -89 q 97 -97 89 -89 q 104 -117 104 -104 z "},"ं":{"ha":0,"x_min":-96,"x_max":-28,"o":"m -28 1226 q -40 1199 -28 1210 q -67 1188 -51 1188 q -88 1195 -81 1188 q -96 1215 -96 1203 q -84 1243 -96 1232 q -57 1254 -72 1254 q -35 1247 -43 1254 q -28 1226 -28 1239 z "},"ँ":{"ha":0,"x_min":-283,"x_max":194,"o":"m 1 1399 q -11 1370 1 1382 q -40 1358 -24 1358 q -61 1366 -54 1358 q -68 1385 -68 1374 q -57 1414 -68 1403 q -28 1425 -46 1425 q -7 1417 -15 1425 q 1 1399 1 1410 m 194 1346 q 152 1251 185 1297 q 63 1175 119 1206 q -72 1144 6 1144 q -230 1196 -176 1144 q -283 1317 -283 1247 q -281 1346 -283 1326 l -258 1346 q -261 1318 -261 1329 q -215 1211 -261 1256 q -75 1167 -168 1167 q 49 1194 -4 1167 q 134 1262 103 1221 q 172 1346 165 1303 l 194 1346 z "},"ः":{"ha":263,"x_min":56,"x_max":207,"o":"m 204 713 q 190 688 201 697 q 165 679 179 679 q 142 689 150 679 q 136 713 133 699 q 150 737 139 728 q 176 746 161 746 q 199 737 190 746 q 204 713 207 728 m 126 274 q 114 250 125 260 q 88 240 103 240 q 64 249 72 240 q 58 274 56 258 q 72 298 61 289 q 99 307 83 307 q 122 297 114 307 q 126 274 129 288 z "},"ऽ":{"ha":775,"x_min":56,"x_max":717,"o":"m 56 104 l 60 126 l 394 126 q 514 169 471 126 q 557 271 557 211 q 520 377 557 325 q 410 504 483 429 q 290 642 331 585 q 250 763 250 699 q 253 794 250 772 q 324 902 267 871 q 464 933 382 933 l 717 933 l 713 911 l 465 911 q 330 879 386 911 q 274 767 274 847 q 312 656 274 710 q 425 525 350 601 q 541 391 501 447 q 581 274 581 335 q 535 156 581 207 q 390 104 490 104 l 56 104 z "},"्":{"ha":0,"x_min":-301,"x_max":-160,"o":"m -186 -339 l -301 -92 l -276 -92 l -160 -339 l -186 -339 z "},"़":{"ha":0,"x_min":-628,"x_max":-560,"o":"m -560 -24 q -572 -51 -560 -40 q -599 -62 -583 -62 q -620 -55 -612 -62 q -628 -35 -628 -47 q -616 -7 -628 -18 q -587 4 -604 4 q -567 -3 -575 4 q -560 -24 -560 -11 z "},"०":{"ha":817,"x_min":94,"x_max":764,"o":"m 118 492 q 190 756 146 649 q 313 925 233 863 q 517 988 392 988 q 707 915 650 988 q 764 710 764 843 q 740 492 764 626 q 668 226 713 335 q 544 53 624 117 q 340 -10 464 -10 q 151 63 207 -10 q 94 269 94 135 q 118 492 94 354 m 713 492 q 736 707 736 626 q 685 897 736 831 q 513 963 633 963 q 325 903 397 963 q 213 743 253 844 q 146 492 172 642 q 122 271 122 354 q 173 81 122 147 q 344 15 224 15 q 531 75 458 15 q 644 238 604 135 q 713 492 685 340 z "},"१":{"ha":314,"x_min":101,"x_max":303,"o":"m 122 953 l 128 978 l 303 978 l 129 0 l 101 0 l 269 953 l 122 953 z "},"२":{"ha":788,"x_min":3,"x_max":750,"o":"m 6 15 q 497 371 307 190 q 717 715 688 551 q 722 779 722 743 q 673 913 722 863 q 511 963 624 963 q 290 881 376 963 q 171 667 204 800 l 143 667 q 278 902 181 817 q 515 988 376 988 q 683 938 617 988 q 750 782 750 888 q 744 715 750 747 q 613 460 724 592 q 353 215 501 328 q 61 25 204 101 l 657 25 l 651 0 l 3 0 l 6 15 z "},"३":{"ha":799,"x_min":56,"x_max":757,"o":"m 151 717 q 284 915 188 843 q 521 988 381 988 q 697 934 636 988 q 757 793 757 881 q 753 746 757 771 q 669 591 738 657 q 469 514 600 525 l 468 506 q 628 440 568 493 q 688 299 688 388 q 683 249 688 276 q 576 63 663 136 q 343 -10 490 -10 q 131 65 206 -10 q 56 274 56 139 l 83 274 q 152 89 85 160 q 349 18 219 18 q 558 83 479 18 q 656 249 638 147 q 660 293 660 272 q 574 444 660 393 q 335 496 489 496 l 311 496 l 317 522 l 342 522 q 613 581 519 522 q 725 746 707 639 q 729 789 729 769 q 674 916 729 869 q 517 963 619 963 q 310 903 403 963 q 179 717 217 843 l 151 717 z "},"४":{"ha":797,"x_min":8,"x_max":761,"o":"m 8 264 l 13 286 l 686 978 l 714 978 l 592 289 l 761 289 l 757 264 l 588 264 l 540 0 l 513 0 l 560 264 l 8 264 m 678 933 l 47 289 l 564 289 l 678 933 z "},"५":{"ha":822,"x_min":75,"x_max":806,"o":"m 800 953 l 242 953 l 164 508 q 299 604 215 568 q 475 640 383 640 q 679 573 614 640 q 744 399 744 506 q 738 328 744 367 q 615 88 713 185 q 354 -10 518 -10 q 149 64 224 -10 q 78 267 75 138 l 106 267 q 176 82 107 146 q 358 18 244 18 q 596 103 506 18 q 710 328 686 189 q 717 396 717 367 q 653 558 717 500 q 471 615 590 615 q 291 574 375 615 q 153 463 207 533 l 128 463 l 219 978 l 806 978 l 800 953 z "},"६":{"ha":853,"x_min":96,"x_max":797,"o":"m 763 725 q 715 901 768 839 q 549 964 661 964 q 276 834 382 964 q 132 413 169 704 q 269 585 168 521 q 496 650 371 650 q 697 583 628 650 q 767 396 767 517 q 758 311 767 356 q 699 153 743 225 q 575 35 654 81 q 386 -10 496 -10 q 162 70 228 -10 q 96 290 96 150 q 114 471 96 369 q 263 854 158 719 q 553 989 368 989 q 738 918 678 989 q 790 725 797 847 l 763 725 m 492 625 q 336 593 414 625 q 201 497 258 561 q 128 340 143 433 q 121 269 121 301 q 186 88 121 160 q 390 15 251 15 q 613 94 521 15 q 731 311 706 174 q 738 393 738 347 q 673 566 738 507 q 492 625 608 625 z "},"७":{"ha":697,"x_min":115,"x_max":749,"o":"m 743 953 l 186 0 l 154 0 l 717 953 l 115 953 l 121 978 l 749 978 l 743 953 z "},"८":{"ha":844,"x_min":49,"x_max":808,"o":"m 339 503 q 206 572 249 522 q 164 692 164 621 q 168 739 164 714 q 285 919 188 851 q 531 988 382 988 q 735 933 663 988 q 808 785 808 878 q 804 739 808 763 q 726 588 789 651 q 550 503 663 525 q 698 432 646 486 q 750 294 750 378 q 746 246 750 271 q 618 40 722 115 q 350 -35 514 -35 q 127 25 206 -35 q 49 190 49 85 q 54 246 49 207 q 148 416 72 349 q 339 503 224 483 m 526 963 q 304 905 393 963 q 196 739 215 847 q 192 697 192 717 q 259 563 192 610 q 447 515 326 515 q 670 574 582 515 q 776 739 758 633 q 781 782 781 763 q 713 916 781 869 q 526 963 644 963 m 443 490 q 203 431 304 490 q 82 246 103 371 q 76 194 76 210 q 151 43 76 96 q 354 -10 225 -10 q 598 57 500 -10 q 718 246 696 124 q 722 293 722 271 q 645 442 722 394 q 443 490 568 490 z "},"९":{"ha":853,"x_min":96,"x_max":797,"o":"m 129 253 q 178 76 125 139 q 344 14 232 14 q 617 144 511 14 q 761 565 724 274 q 622 392 724 457 q 397 328 521 328 q 196 394 265 328 q 126 582 126 461 q 135 667 126 624 q 194 825 150 753 q 318 942 239 897 q 507 988 397 988 q 731 908 665 988 q 797 688 797 828 q 779 507 797 608 q 630 124 735 258 q 340 -11 525 -11 q 156 60 215 -11 q 101 253 96 131 l 129 253 m 401 353 q 556 385 479 353 q 691 481 633 417 q 765 638 749 544 q 772 708 772 676 q 707 890 772 818 q 503 963 642 963 q 280 883 372 963 q 163 667 188 804 q 156 585 156 631 q 220 412 156 471 q 401 353 285 353 z "},"ॐ":{"ha":1447,"x_min":53,"x_max":1310,"o":"m 922 1271 q 901 1278 908 1271 q 893 1299 893 1286 q 905 1326 893 1315 q 933 1338 917 1338 q 953 1330 946 1338 q 961 1310 961 1322 q 949 1282 961 1293 q 922 1271 938 1271 m 897 1057 q 734 1107 789 1057 q 679 1226 679 1157 q 682 1258 679 1249 l 704 1258 q 701 1231 701 1239 q 750 1124 701 1168 q 896 1079 799 1079 q 1062 1133 1003 1079 q 1135 1258 1121 1186 l 1157 1258 q 1078 1118 1143 1179 q 897 1057 1014 1057 m 1117 958 q 1264 902 1218 958 q 1310 742 1310 846 q 1297 614 1310 683 l 1260 406 q 1138 134 1228 222 q 864 46 1047 46 q 733 60 813 46 l 738 82 q 868 68 818 68 q 1122 153 1038 68 q 1236 406 1206 238 l 1274 614 q 1286 740 1286 683 q 1245 885 1286 835 q 1113 936 1204 936 q 942 874 1003 936 q 864 708 882 811 q 624 500 826 500 l 571 500 q 629 349 629 444 q 625 297 629 325 q 513 96 601 172 q 300 19 425 19 q 121 80 189 19 q 53 240 53 140 q 57 292 53 265 l 81 292 q 76 244 76 267 q 138 97 76 153 q 303 42 200 42 q 498 113 415 42 q 601 297 581 183 q 606 344 606 321 q 553 483 606 426 q 389 539 501 539 l 342 539 l 346 561 l 393 561 q 530 594 471 561 q 623 676 589 626 q 667 781 657 726 q 671 829 671 806 q 613 968 671 918 q 465 1018 556 1018 q 281 959 361 1018 q 183 801 201 900 l 160 801 q 266 976 179 913 q 469 1040 353 1040 q 633 985 571 1040 q 696 835 696 929 q 692 786 696 811 q 616 631 675 694 q 461 551 557 568 l 461 550 q 542 522 504 544 l 628 522 q 766 565 710 522 q 840 708 822 608 q 928 891 861 824 q 1117 958 994 958 z "},"॰":{"ha":707,"x_min":126,"x_max":581,"o":"m 392 717 q 528 668 476 717 q 581 540 581 619 q 576 497 581 521 q 489 343 560 403 q 322 283 418 283 q 181 332 235 283 q 126 460 126 381 q 131 500 126 479 q 220 656 147 594 q 392 717 293 717 m 392 694 q 272 664 326 694 q 184 581 217 633 q 151 463 151 528 q 198 349 151 392 q 322 306 244 306 q 473 359 408 306 q 553 497 538 413 q 556 536 556 511 q 511 651 556 607 q 392 694 467 694 z "},"।":{"ha":315,"x_min":139,"x_max":343,"o":"m 343 1031 l 163 0 l 139 0 l 319 1031 l 343 1031 z "},"॥":{"ha":531,"x_min":139,"x_max":558,"o":"m 343 1031 l 163 0 l 139 0 l 319 1031 l 343 1031 m 558 1031 l 378 0 l 354 0 l 535 1031 l 558 1031 z "},"₨":{"ha":1375,"x_min":51,"x_max":1321,"o":"m 472 978 q 676 922 610 978 q 742 768 742 867 q 735 701 742 740 q 626 502 713 572 q 396 426 539 432 l 621 0 l 586 0 l 363 426 l 156 426 l 79 0 l 51 0 l 225 978 l 472 978 m 707 701 q 714 767 714 740 q 467 950 714 950 l 247 950 l 160 456 l 379 456 q 707 701 664 456 m 1092 760 q 1262 698 1203 760 q 1314 531 1321 636 l 1286 531 q 1242 676 1292 617 q 1088 735 1193 735 q 933 688 994 735 q 857 565 871 642 q 854 535 854 543 q 881 463 854 490 q 944 422 907 436 q 1047 393 982 408 q 1161 359 1119 375 q 1233 310 1203 343 q 1263 224 1263 278 q 1228 105 1263 158 q 1136 21 1194 51 q 1006 -10 1078 -10 q 820 52 886 -10 q 760 219 754 114 l 788 219 q 838 74 781 132 q 1011 15 894 15 q 1159 63 1100 15 q 1231 185 1218 111 q 1233 217 1233 207 q 1206 292 1233 264 q 1140 335 1179 321 q 1035 367 1101 350 q 925 399 967 383 q 855 447 883 415 q 826 529 826 478 q 829 565 826 553 q 917 707 844 654 q 1092 760 989 760 z "},"₹":{"ha":936,"x_min":140,"x_max":953,"o":"m 681 761 l 674 724 l 907 724 l 903 699 l 668 699 q 593 540 642 593 q 456 468 544 488 q 206 449 367 449 l 175 269 q 168 194 168 224 q 358 11 168 11 q 532 74 465 11 q 619 256 599 138 l 647 256 q 547 55 624 124 q 354 -14 469 -14 q 194 40 247 -14 q 140 188 140 93 q 147 261 140 217 l 185 474 q 445 492 357 474 q 576 556 533 510 q 642 699 619 603 l 147 699 l 151 724 l 647 724 q 654 764 649 736 l 688 953 l 192 953 l 197 978 l 953 978 l 947 953 l 714 953 l 681 761 z "},"‌":{"ha":0,"x_min":-32,"x_max":33,"o":"m -32 -319 l -32 1126 l 33 1126 l 33 -319 l -32 -319 z "},"‍":{"ha":0,"x_min":-178,"x_max":178,"o":"m 132 778 l 32 882 l 32 -319 l -33 -319 l -33 882 l -129 781 l -175 826 l -46 956 l -178 1088 l -132 1133 l 0 1001 l 133 1133 l 178 1089 l 44 956 l 178 824 l 132 778 z "},"◌":{"ha":904,"x_min":69,"x_max":835,"o":"m 478 692 q 461 649 478 665 q 418 633 444 633 q 375 649 392 633 q 358 692 358 665 q 375 734 358 718 q 418 750 392 750 q 461 734 444 750 q 478 692 478 718 m 646 671 q 629 628 646 644 q 586 613 613 613 q 543 628 560 613 q 526 671 526 644 q 543 713 526 697 q 586 729 560 729 q 629 713 613 729 q 646 671 646 697 m 315 633 q 299 591 315 607 q 256 575 282 575 q 213 591 229 575 q 196 633 196 607 q 213 676 196 660 q 256 692 229 692 q 299 676 282 692 q 315 633 315 660 m 774 568 q 757 526 774 542 q 714 510 740 510 q 671 526 688 510 q 654 568 654 542 q 671 610 654 594 q 714 626 688 626 q 757 610 740 626 q 774 568 774 594 m 210 496 q 193 453 210 469 q 150 438 176 438 q 107 453 124 438 q 90 496 90 469 q 107 538 90 522 q 150 554 124 554 q 193 538 176 554 q 210 496 210 522 m 835 410 q 818 367 835 383 q 775 351 801 351 q 732 367 749 351 q 715 410 715 383 q 732 452 715 436 q 775 468 749 468 q 818 452 801 468 q 835 410 835 436 m 189 328 q 172 285 189 301 q 129 269 156 269 q 86 285 103 269 q 69 328 69 301 q 86 370 69 354 q 129 386 103 386 q 172 370 156 386 q 189 328 189 354 m 821 243 q 804 201 821 217 q 761 185 788 185 q 718 201 735 185 q 701 243 701 217 q 718 285 701 269 q 761 301 735 301 q 804 285 788 301 q 821 243 821 269 m 251 171 q 235 128 251 144 q 192 113 218 113 q 149 128 165 113 q 132 171 132 144 q 149 213 132 197 q 192 229 165 229 q 235 213 218 229 q 251 171 251 197 m 719 110 q 703 67 719 83 q 660 51 686 51 q 617 67 633 51 q 600 110 600 83 q 617 152 600 136 q 660 168 633 168 q 703 152 686 168 q 719 110 719 136 m 388 65 q 371 23 388 39 q 328 7 354 7 q 285 23 301 7 q 268 65 268 39 q 285 108 268 92 q 328 124 301 124 q 371 108 354 124 q 388 65 388 92 m 560 46 q 543 3 560 19 q 500 -12 526 -12 q 457 3 474 -12 q 440 46 440 19 q 457 88 440 72 q 500 104 474 104 q 543 88 526 104 q 560 46 560 72 z "},"!":{"ha":314,"x_min":60,"x_max":278,"o":"m 278 978 l 139 218 l 114 218 l 244 978 l 278 978 m 90 -3 q 68 5 76 -3 q 60 26 60 13 q 73 59 60 46 q 104 72 86 72 q 126 65 118 72 q 135 43 135 57 q 122 10 135 24 q 90 -3 108 -3 z "},"\"":{"ha":272,"x_min":151,"x_max":344,"o":"m 226 1101 l 174 853 l 151 853 l 183 1101 l 226 1101 m 344 1101 l 292 853 l 269 853 l 301 1101 l 344 1101 z "},"#":{"ha":1032,"x_min":50,"x_max":1029,"o":"m 799 646 l 690 369 l 906 369 l 901 344 l 681 344 l 546 0 l 518 0 l 653 344 l 304 344 l 169 0 l 142 0 l 276 344 l 50 344 l 54 369 l 286 369 l 394 646 l 172 646 l 178 671 l 404 671 l 543 1028 l 571 1028 l 432 671 l 781 671 l 919 1028 l 947 1028 l 808 671 l 1029 671 l 1024 646 l 799 646 m 771 646 l 422 646 l 314 369 l 663 369 l 771 646 z "},"$":{"ha":744,"x_min":58,"x_max":708,"o":"m 681 776 q 631 894 676 838 q 489 961 585 950 l 410 510 q 532 464 485 486 q 610 400 579 442 q 642 292 642 358 q 636 235 642 263 q 588 118 625 174 q 485 26 551 63 q 328 -10 419 -10 l 318 -10 l 299 -121 l 271 -121 l 290 -8 q 162 34 215 -1 q 83 123 108 69 q 63 235 58 176 l 90 235 q 108 144 89 192 q 173 61 126 97 q 294 17 219 25 l 378 490 q 255 536 301 514 q 176 599 208 558 q 144 703 144 639 q 150 754 144 718 q 249 922 168 856 q 456 988 329 988 l 465 988 l 488 1111 l 515 1111 l 493 986 q 652 914 600 975 q 708 776 704 853 l 681 776 m 461 963 l 451 963 q 269 908 344 963 q 178 754 194 853 q 174 708 174 729 q 201 617 174 653 q 272 560 229 581 q 383 518 315 539 l 461 963 m 608 235 q 613 283 613 263 q 585 379 613 342 q 514 439 557 417 q 404 482 471 461 l 322 15 l 332 15 q 519 78 447 15 q 608 235 592 140 z "},"%":{"ha":735,"x_min":-10,"x_max":783,"o":"m 129 774 q 158 881 129 832 q 236 959 188 931 q 340 988 285 988 q 447 947 407 988 q 488 843 488 907 q 458 735 488 785 q 381 658 429 686 q 276 629 332 629 q 169 669 210 629 q 129 774 129 710 m 783 978 l 22 0 l -10 0 l 751 978 l 783 978 m 336 963 q 247 938 288 963 q 181 871 206 914 q 157 776 157 828 q 190 688 157 722 q 281 654 224 654 q 370 678 329 654 q 435 746 411 703 q 460 840 460 789 q 426 928 460 894 q 336 963 393 963 m 288 133 q 316 241 288 192 q 393 319 344 290 q 497 347 442 347 q 605 307 564 347 q 646 203 646 267 q 617 95 646 144 q 539 17 588 46 q 435 -11 490 -11 q 328 29 368 -11 q 288 133 288 69 m 493 322 q 403 297 444 322 q 339 229 363 272 q 315 135 315 186 q 349 47 315 81 q 439 14 382 14 q 553 58 504 14 q 615 168 603 101 q 618 199 618 190 q 584 288 618 254 q 493 322 550 322 z "},"&":{"ha":933,"x_min":39,"x_max":944,"o":"m 836 354 q 683 171 750 239 l 818 0 l 786 0 l 665 151 q 494 26 578 65 q 311 -14 410 -14 q 169 17 231 -14 q 73 105 107 49 q 39 233 39 161 q 115 437 39 349 q 325 572 192 525 l 329 574 q 269 668 289 624 q 249 760 249 713 q 281 875 249 824 q 372 956 314 926 q 499 985 429 985 q 631 944 578 985 q 683 829 683 903 q 681 796 683 818 l 653 796 q 656 825 656 815 q 610 924 656 889 q 497 958 565 958 q 340 903 403 958 q 276 761 276 849 q 295 679 276 719 q 350 593 314 639 l 668 190 q 825 382 735 261 l 914 500 l 944 500 l 836 354 m 311 13 q 486 51 406 13 q 650 172 567 89 l 346 553 l 335 549 q 138 424 208 504 q 67 233 67 344 q 134 74 67 135 q 311 13 201 13 z "},"'":{"ha":165,"x_min":157,"x_max":238,"o":"m 238 1101 l 179 853 l 157 853 l 183 1101 l 238 1101 z "},"(":{"ha":471,"x_min":89,"x_max":558,"o":"m 253 -258 q 133 -20 178 -160 q 89 290 89 119 q 142 660 89 474 q 293 1013 194 847 q 526 1297 392 1179 l 558 1297 l 558 1293 q 321 1007 421 1171 q 169 659 221 843 q 117 290 117 475 q 159 -8 117 131 q 283 -254 201 -147 l 283 -258 l 253 -258 z "},")":{"ha":469,"x_min":-36,"x_max":432,"o":"m -36 -258 l -36 -254 q 202 32 103 -132 q 353 381 301 196 q 404 751 404 565 q 363 1049 404 911 q 238 1293 321 1186 l 238 1297 l 269 1297 q 388 1061 344 1200 q 432 754 432 922 q 380 381 432 569 q 229 27 328 193 q -4 -258 131 -139 l -36 -258 z "},"*":{"ha":596,"x_min":122,"x_max":614,"o":"m 604 890 l 614 867 l 390 757 l 574 644 l 561 624 l 378 738 l 338 500 l 313 500 l 356 738 l 133 624 l 122 647 l 349 757 l 167 869 l 179 890 l 363 776 l 403 1011 l 428 1011 l 385 776 l 604 890 z "},"+":{"ha":818,"x_min":81,"x_max":792,"o":"m 788 515 l 446 515 l 386 174 l 358 174 l 418 515 l 81 515 l 85 540 l 424 540 l 483 882 l 511 882 l 451 540 l 792 540 l 788 515 z "},",":{"ha":157,"x_min":-136,"x_max":68,"o":"m 68 129 l -108 -215 l -136 -215 l 32 129 l 68 129 z "},"-":{"ha":617,"x_min":-24,"x_max":486,"o":"m 486 540 l 482 515 l -24 515 l -19 540 l 486 540 z "},".":{"ha":161,"x_min":-17,"x_max":58,"o":"m 14 -3 q -8 5 0 -3 q -17 26 -17 13 q -3 59 -17 46 q 28 72 10 72 q 50 65 42 72 q 58 43 58 57 q 45 10 58 24 q 14 -3 32 -3 z "},"/":{"ha":499,"x_min":-62,"x_max":619,"o":"m 619 1299 l -35 -217 l -62 -217 l 589 1299 l 619 1299 z "},":":{"ha":161,"x_min":-17,"x_max":58,"o":"m 14 -3 q -8 5 0 -3 q -17 26 -17 13 q -3 59 -17 46 q 28 72 10 72 q 50 65 42 72 q 58 43 58 57 q 45 10 58 24 q 14 -3 32 -3 m 14 626 q -8 634 0 626 q -17 656 -17 642 q -3 688 -17 675 q 28 701 10 701 q 50 694 42 701 q 58 672 58 686 q 45 640 58 653 q 14 626 32 626 z "},";":{"ha":194,"x_min":-108,"x_max":176,"o":"m 132 629 q 110 637 118 629 q 101 658 101 644 q 115 691 101 678 q 146 704 128 704 q 168 697 160 704 q 176 675 176 689 q 163 642 176 656 q 132 629 150 629 m 96 129 l -81 -215 l -108 -215 l 60 129 l 96 129 z "},"<":{"ha":529,"x_min":82,"x_max":558,"o":"m 408 199 l 82 528 l 524 858 l 558 858 l 117 528 l 443 199 l 408 199 z "},"=":{"ha":783,"x_min":58,"x_max":779,"o":"m 779 664 l 775 639 l 103 639 l 107 664 l 779 664 m 735 418 l 731 393 l 58 393 l 63 418 l 735 418 z "},">":{"ha":529,"x_min":25,"x_max":500,"o":"m 140 858 l 175 858 l 500 528 l 60 199 l 25 199 l 465 528 l 140 858 z "},"?":{"ha":669,"x_min":100,"x_max":682,"o":"m 433 988 q 613 927 544 988 q 682 767 682 867 q 676 714 682 750 q 540 483 647 553 q 258 413 432 414 l 219 211 l 197 211 l 235 438 l 257 438 q 515 494 410 438 q 649 714 619 550 q 653 764 653 742 q 592 909 653 856 q 429 963 531 963 q 229 898 311 963 q 128 725 147 833 l 100 725 q 216 917 122 847 q 433 988 310 988 m 172 -3 q 150 5 158 -3 q 142 26 142 13 q 155 59 142 46 q 186 72 168 72 q 208 65 200 72 q 217 43 217 57 q 203 10 217 24 q 172 -3 190 -3 z "},"@":{"ha":1340,"x_min":92,"x_max":1224,"o":"m 735 867 q 988 808 876 867 q 1161 646 1099 750 q 1224 408 1224 542 q 1193 207 1224 303 q 1105 52 1163 111 q 969 -7 1047 -7 q 882 31 913 -7 q 851 129 851 68 q 853 157 851 147 q 742 36 813 79 q 590 -7 671 -7 q 429 56 488 -7 q 371 226 371 119 q 413 414 371 326 q 529 554 454 501 q 699 607 604 607 q 835 562 781 607 q 901 435 889 517 l 928 586 l 953 586 l 881 175 q 876 132 876 153 q 902 49 876 81 q 974 18 928 18 q 1090 74 1039 18 q 1168 219 1140 131 q 1196 403 1196 308 q 1138 633 1196 533 q 974 787 1079 732 q 731 842 868 842 q 419 755 560 842 q 199 521 279 668 q 119 201 119 374 q 176 -31 119 67 q 337 -181 233 -129 q 576 -233 440 -233 q 804 -189 693 -233 l 811 -214 q 568 -258 693 -258 q 320 -203 428 -258 q 152 -44 213 -147 q 92 197 92 60 q 176 535 92 382 q 407 778 260 689 q 735 867 554 867 m 596 18 q 776 92 697 18 q 878 300 854 165 q 886 376 886 340 q 838 525 886 468 q 696 582 789 582 q 540 532 608 582 q 435 401 472 482 q 399 229 399 319 q 451 74 399 131 q 596 18 503 18 z "},"A":{"ha":835,"x_min":-25,"x_max":726,"o":"m 640 269 l 157 269 l 7 0 l -25 0 l 506 949 l 533 949 l 726 0 l 694 0 l 640 269 m 635 294 l 511 904 l 171 294 l 635 294 z "},"B":{"ha":778,"x_min":51,"x_max":754,"o":"m 750 739 q 671 584 733 642 q 528 508 608 526 q 647 438 601 493 q 693 306 693 383 q 689 261 693 285 q 576 73 668 146 q 332 0 483 0 l 51 0 l 225 978 l 506 978 q 694 926 633 978 q 754 789 754 875 q 750 739 754 764 m 433 522 q 630 580 556 522 q 722 739 704 638 q 726 785 726 763 q 671 906 726 861 q 500 950 615 950 l 247 950 l 172 522 l 433 522 m 661 261 q 665 306 665 285 q 600 444 665 393 q 417 494 535 494 l 167 494 l 85 28 l 338 28 q 556 90 471 28 q 661 261 642 153 z "},"C":{"ha":1068,"x_min":93,"x_max":1040,"o":"m 103 488 q 208 747 129 633 q 401 924 286 860 q 647 988 517 988 q 915 908 818 988 q 1040 689 1013 829 l 1013 689 q 896 888 989 813 q 643 963 803 963 q 417 905 524 963 q 233 740 310 847 q 132 488 157 632 q 122 381 122 435 q 167 185 122 268 q 292 59 213 103 q 475 15 372 15 q 755 90 635 15 q 942 288 875 164 l 969 288 q 767 69 893 147 q 471 -10 642 -10 q 272 39 357 -10 q 140 176 186 88 q 93 379 93 264 q 103 488 93 435 z "},"D":{"ha":975,"x_min":51,"x_max":922,"o":"m 482 978 q 811 883 700 978 q 922 610 922 788 q 911 489 922 546 q 715 128 869 256 q 308 0 561 0 l 51 0 l 225 978 l 482 978 m 314 25 q 700 147 556 25 q 883 489 844 269 q 894 603 894 553 q 789 861 894 769 q 476 953 683 953 l 247 953 l 85 25 l 314 25 z "},"E":{"ha":665,"x_min":51,"x_max":703,"o":"m 247 953 l 168 501 l 576 501 l 572 476 l 164 476 l 85 25 l 535 25 l 529 0 l 51 0 l 225 978 l 703 978 l 697 953 l 247 953 z "},"F":{"ha":651,"x_min":51,"x_max":703,"o":"m 703 978 l 697 953 l 247 953 l 168 501 l 576 501 l 572 476 l 164 476 l 79 0 l 51 0 l 225 978 l 703 978 z "},"G":{"ha":1100,"x_min":93,"x_max":1040,"o":"m 103 488 q 208 746 128 632 q 406 923 288 860 q 658 986 524 986 q 914 906 815 986 q 1040 688 1013 826 l 1013 688 q 895 885 990 810 q 653 961 800 961 q 421 903 531 961 q 235 738 311 846 q 132 488 158 631 q 122 382 122 438 q 169 186 122 269 q 297 58 215 103 q 486 14 379 14 q 715 69 606 14 q 902 230 824 125 q 1008 474 981 335 l 547 474 l 551 499 l 1039 499 l 1036 488 q 931 229 1011 343 q 734 52 851 115 q 482 -11 617 -11 q 277 38 365 -11 q 141 175 189 86 q 93 381 93 264 q 103 488 93 435 z "},"H":{"ha":901,"x_min":51,"x_max":890,"o":"m 890 978 l 717 0 l 689 0 l 776 490 l 167 490 l 79 0 l 51 0 l 225 978 l 253 978 l 171 515 l 781 515 l 863 978 l 890 978 z "},"I":{"ha":264,"x_min":51,"x_max":253,"o":"m 253 978 l 79 0 l 51 0 l 225 978 l 253 978 z "},"J":{"ha":592,"x_min":13,"x_max":588,"o":"m 588 978 l 450 199 q 367 49 433 108 q 200 -10 300 -10 q 60 40 108 -10 q 13 176 13 89 q 18 240 13 211 l 46 240 q 40 178 40 213 q 79 60 40 104 q 204 15 118 15 q 356 70 303 15 q 422 199 408 125 l 560 978 l 588 978 z "},"K":{"ha":686,"x_min":51,"x_max":765,"o":"m 183 489 l 592 0 l 554 0 l 163 467 l 79 0 l 51 0 l 225 978 l 253 978 l 169 508 l 728 978 l 765 978 l 183 489 z "},"L":{"ha":549,"x_min":51,"x_max":460,"o":"m 85 25 l 460 25 l 454 0 l 51 0 l 225 978 l 253 978 l 85 25 z "},"M":{"ha":1107,"x_min":51,"x_max":1090,"o":"m 1090 950 l 922 0 l 894 0 l 1050 882 l 501 0 l 474 0 l 235 879 l 79 0 l 51 0 l 219 950 l 247 950 l 496 38 l 1063 950 l 1090 950 z "},"N":{"ha":899,"x_min":51,"x_max":886,"o":"m 714 0 l 686 0 l 243 926 l 79 0 l 51 0 l 224 976 l 251 976 l 696 51 l 858 976 l 886 976 l 714 0 z "},"O":{"ha":1100,"x_min":93,"x_max":1046,"o":"m 482 -11 q 277 38 365 -11 q 141 175 189 86 q 93 381 93 264 q 168 680 93 540 q 372 903 243 819 q 658 986 501 986 q 863 938 775 986 q 999 800 951 889 q 1046 594 1046 711 q 972 295 1046 435 q 767 72 897 156 q 482 -11 638 -11 m 486 14 q 756 94 635 14 q 947 307 878 174 q 1017 594 1017 440 q 970 790 1017 707 q 842 917 924 874 q 653 961 760 961 q 381 881 503 961 q 191 667 260 800 q 122 382 122 533 q 169 186 122 269 q 297 58 215 103 q 486 14 379 14 z "},"P":{"ha":733,"x_min":51,"x_max":742,"o":"m 736 708 q 622 507 713 574 q 376 440 531 440 l 157 440 l 79 0 l 51 0 l 225 978 l 472 978 q 676 924 610 978 q 742 774 742 871 q 736 708 742 738 m 382 469 q 610 532 532 469 q 708 708 689 594 q 715 772 715 746 q 656 905 715 860 q 467 950 596 950 l 247 950 l 163 469 l 382 469 z "},"Q":{"ha":1100,"x_min":93,"x_max":1046,"o":"m 1046 594 q 999 355 1046 469 q 868 154 953 240 q 675 25 783 68 l 929 -207 l 881 -207 l 639 13 q 482 -11 564 -11 q 277 38 365 -11 q 141 175 189 86 q 93 381 93 264 q 168 680 93 540 q 372 903 243 819 q 658 986 501 986 q 863 938 775 986 q 999 800 951 889 q 1046 594 1046 711 m 122 382 q 169 186 122 269 q 297 58 215 103 q 486 14 379 14 q 756 94 635 14 q 947 307 878 174 q 1017 594 1017 440 q 970 790 1017 707 q 842 917 924 874 q 653 961 760 961 q 381 881 503 961 q 191 667 260 800 q 122 382 122 533 z "},"R":{"ha":743,"x_min":51,"x_max":744,"o":"m 469 978 q 677 922 610 978 q 744 764 744 865 q 739 703 744 731 q 638 513 717 583 q 433 429 560 443 l 621 0 l 586 0 l 400 426 l 375 426 l 156 426 l 79 0 l 51 0 l 225 978 l 469 978 m 710 703 q 715 764 715 731 q 464 950 715 950 l 247 950 l 160 453 l 379 453 q 606 521 522 453 q 710 703 689 589 z "},"S":{"ha":733,"x_min":44,"x_max":696,"o":"m 318 -10 q 163 24 225 -10 q 72 112 100 57 q 49 231 44 167 l 76 231 q 94 133 74 182 q 169 50 114 85 q 322 15 225 15 q 506 71 432 15 q 594 218 579 126 q 599 269 599 246 q 567 377 599 335 q 488 444 535 419 q 363 499 440 469 q 238 552 285 528 q 160 619 192 576 q 128 725 128 661 q 132 774 128 749 q 181 881 142 832 q 285 958 219 929 q 436 988 350 988 q 580 957 521 988 q 667 879 639 926 q 693 782 696 832 l 665 782 q 642 863 667 821 q 563 933 617 904 q 432 963 510 963 q 251 912 326 963 q 160 774 175 861 q 156 731 156 751 q 185 634 156 672 q 260 574 215 596 q 379 522 304 551 q 511 465 463 490 q 594 392 560 439 q 628 275 628 346 q 622 218 628 246 q 573 105 611 157 q 469 22 535 53 q 318 -10 404 -10 z "},"T":{"ha":653,"x_min":129,"x_max":732,"o":"m 732 978 l 726 953 l 442 953 l 274 0 l 246 0 l 414 953 l 129 953 l 135 978 l 732 978 z "},"U":{"ha":874,"x_min":100,"x_max":869,"o":"m 246 978 l 138 371 q 128 263 128 314 q 194 75 128 135 q 376 15 260 15 q 607 100 513 15 q 733 371 701 185 l 842 978 l 869 978 l 761 371 q 625 83 726 176 q 372 -10 524 -10 q 172 57 244 -10 q 100 261 100 124 q 110 371 100 314 l 218 978 l 246 978 z "},"V":{"ha":860,"x_min":149,"x_max":925,"o":"m 182 978 l 371 49 l 892 978 l 925 978 l 376 0 l 349 0 l 149 978 l 182 978 z "},"W":{"ha":1256,"x_min":156,"x_max":1314,"o":"m 1314 978 l 878 0 l 850 0 l 725 928 l 272 0 l 244 0 l 156 978 l 189 978 l 271 60 l 718 978 l 751 978 l 874 60 l 1281 978 l 1314 978 z "},"X":{"ha":694,"x_min":-25,"x_max":760,"o":"m 383 489 l 586 0 l 554 0 l 360 469 l 7 0 l -25 0 l 349 496 l 149 978 l 181 978 l 372 515 l 728 978 l 760 978 l 383 489 z "},"Y":{"ha":719,"x_min":149,"x_max":785,"o":"m 785 978 l 381 410 l 308 0 l 281 0 l 353 410 l 149 978 l 182 978 l 372 440 l 751 978 l 785 978 z "},"Z":{"ha":676,"x_min":-18,"x_max":721,"o":"m 18 26 l 567 26 l 561 0 l -18 0 l -12 26 l 686 950 l 168 950 l 174 978 l 721 978 l 715 950 l 18 26 z "},"[":{"ha":324,"x_min":7,"x_max":411,"o":"m 411 1297 l 407 1272 l 304 1272 l 39 -232 l 142 -232 l 138 -257 l 7 -257 l 281 1297 l 411 1297 z "},"\\":{"ha":608,"x_min":175,"x_max":429,"o":"m 400 -217 l 175 1299 l 207 1299 l 429 -217 l 400 -217 z "},"]":{"ha":324,"x_min":-36,"x_max":368,"o":"m 94 -257 l -36 -257 l -32 -232 l 71 -232 l 336 1272 l 233 1272 l 238 1297 l 368 1297 l 94 -257 z "},"^":{"ha":767,"x_min":32,"x_max":688,"o":"m 60 242 l 32 242 l 476 949 l 493 949 l 688 242 l 660 242 l 479 907 l 60 242 z "},"_":{"ha":740,"x_min":-22,"x_max":611,"o":"m 611 -42 l 607 -67 l -22 -67 l -18 -42 l 611 -42 z "},"`":{"ha":371,"x_min":165,"x_max":397,"o":"m 397 842 l 393 814 l 165 994 l 171 1028 l 397 842 z "},"a":{"ha":932,"x_min":75,"x_max":881,"o":"m 83 375 q 165 580 104 493 q 318 713 226 667 q 517 760 410 760 q 724 693 646 760 q 814 521 801 626 l 854 750 l 881 750 l 747 0 l 721 0 l 761 229 q 611 58 713 125 q 381 -10 510 -10 q 157 69 239 -10 q 75 286 75 149 q 83 375 75 329 m 788 375 q 794 454 794 410 q 718 659 794 583 q 513 735 642 735 q 249 638 357 735 q 111 375 140 542 q 103 289 103 329 q 177 88 103 160 q 385 15 251 15 q 567 60 482 15 q 710 187 653 106 q 788 375 768 268 z "},"b":{"ha":932,"x_min":51,"x_max":857,"o":"m 171 521 q 322 693 222 626 q 551 760 422 760 q 775 681 693 760 q 857 464 857 601 q 849 375 857 421 q 767 170 828 257 q 614 37 706 83 q 415 -10 522 -10 q 209 57 286 -10 q 118 229 132 124 l 78 0 l 51 0 l 233 1028 l 260 1028 l 171 521 m 821 375 q 829 461 829 421 q 755 663 829 590 q 547 735 681 735 q 365 690 450 735 q 222 563 279 644 q 144 375 164 482 q 138 296 138 340 q 214 91 138 167 q 419 15 290 15 q 683 112 575 15 q 821 375 792 208 z "},"c":{"ha":872,"x_min":75,"x_max":813,"o":"m 83 375 q 166 581 104 493 q 318 714 228 668 q 513 760 408 760 q 734 687 656 760 q 810 496 813 614 l 782 496 q 709 671 783 607 q 508 735 635 735 q 335 695 418 735 q 192 575 253 656 q 111 375 132 494 q 103 288 103 328 q 181 85 103 154 q 381 15 260 15 q 605 80 507 15 q 740 254 703 144 l 768 254 q 624 63 728 136 q 376 -10 519 -10 q 157 69 239 -10 q 75 286 75 147 q 83 375 75 328 z "},"d":{"ha":932,"x_min":75,"x_max":929,"o":"m 83 375 q 165 580 104 493 q 318 713 226 667 q 517 760 410 760 q 724 693 646 760 q 814 521 801 626 l 903 1028 l 929 1028 l 747 0 l 721 0 l 763 231 q 612 58 714 125 q 381 -10 510 -10 q 157 69 239 -10 q 75 286 75 149 q 83 375 75 329 m 788 375 q 794 454 794 410 q 718 659 794 583 q 513 735 642 735 q 249 638 357 735 q 111 375 140 542 q 103 289 103 329 q 177 88 103 160 q 385 15 251 15 q 567 60 482 15 q 710 187 653 106 q 788 375 768 268 z "},"e":{"ha":872,"x_min":75,"x_max":806,"o":"m 513 760 q 674 723 608 760 q 773 626 740 686 q 806 494 806 567 q 800 438 806 476 l 794 410 q 785 363 792 388 l 108 363 q 101 286 101 317 q 181 84 101 153 q 381 15 260 15 q 605 80 507 15 q 740 254 703 144 l 768 254 q 624 63 728 136 q 376 -10 519 -10 q 157 69 239 -10 q 75 286 75 147 q 83 375 75 328 q 166 581 104 493 q 318 714 228 668 q 513 760 408 760 m 767 388 q 779 485 779 442 q 701 672 779 608 q 508 735 624 735 q 338 697 419 735 q 195 581 256 658 q 114 388 135 503 l 767 388 z "},"f":{"ha":442,"x_min":83,"x_max":508,"o":"m 503 1000 q 326 953 382 1000 q 253 803 271 907 l 243 750 l 460 750 l 454 721 l 239 721 l 111 0 l 83 0 l 211 721 l 89 721 l 94 750 l 215 750 l 225 803 q 311 972 246 917 q 508 1028 376 1028 l 503 1000 z "},"g":{"ha":932,"x_min":46,"x_max":881,"o":"m 517 760 q 724 693 646 760 q 814 524 801 626 l 854 750 l 881 750 l 743 -28 q 665 -209 725 -132 q 523 -326 606 -286 q 351 -367 440 -367 q 138 -301 217 -367 q 46 -122 60 -235 l 74 -122 q 158 -283 86 -224 q 356 -342 229 -342 q 518 -303 442 -342 q 647 -193 594 -264 q 717 -28 700 -122 l 761 228 q 611 57 713 124 q 381 -10 510 -10 q 157 69 239 -10 q 75 286 75 149 q 83 375 75 329 q 165 580 104 493 q 318 713 226 667 q 517 760 410 760 m 788 375 q 794 454 794 410 q 718 659 794 583 q 513 735 642 735 q 249 638 357 735 q 111 375 140 542 q 103 289 103 329 q 177 88 103 160 q 385 15 251 15 q 567 60 482 15 q 710 187 653 106 q 788 375 768 268 z "},"h":{"ha":853,"x_min":51,"x_max":761,"o":"m 510 767 q 692 706 622 767 q 761 522 761 644 q 753 438 761 483 l 675 0 l 649 0 l 726 440 q 735 521 735 485 q 674 685 735 629 q 506 742 614 742 q 276 655 372 742 q 150 399 181 568 l 150 400 l 79 0 l 51 0 l 233 1028 l 261 1028 l 176 553 q 311 712 222 657 q 510 767 400 767 z "},"i":{"ha":264,"x_min":51,"x_max":275,"o":"m 232 942 q 210 950 219 942 q 201 971 201 958 q 214 1004 201 992 q 244 1017 226 1017 q 266 1008 257 1017 q 275 986 275 1000 q 262 954 275 967 q 232 942 249 942 m 213 750 l 79 0 l 51 0 l 185 750 l 213 750 z "},"j":{"ha":278,"x_min":-162,"x_max":289,"o":"m 246 942 q 224 950 233 942 q 215 971 215 958 q 228 1004 215 992 q 258 1017 240 1017 q 280 1008 271 1017 q 289 986 289 1000 q 276 954 289 967 q 246 942 263 942 m 57 -211 q 5 -316 44 -279 q -112 -353 -35 -353 l -162 -353 l -158 -325 l -108 -325 q -15 -298 -47 -325 q 31 -203 18 -271 l 199 750 l 226 750 l 57 -211 z "},"k":{"ha":549,"x_min":51,"x_max":592,"o":"m 157 378 l 464 0 l 425 0 l 142 351 l 79 0 l 51 0 l 233 1028 l 261 1028 l 151 407 l 551 750 l 592 750 l 157 378 z "},"l":{"ha":264,"x_min":51,"x_max":261,"o":"m 261 1028 l 79 0 l 51 0 l 233 1028 l 261 1028 z "},"m":{"ha":1393,"x_min":51,"x_max":1301,"o":"m 1065 767 q 1236 707 1171 767 q 1301 526 1301 647 q 1293 438 1301 486 l 1215 0 l 1189 0 l 1267 440 q 1275 526 1275 486 q 1219 687 1275 632 q 1061 742 1163 742 q 845 656 938 742 q 719 408 753 571 l 647 0 l 621 0 l 699 440 q 707 526 707 486 q 651 687 707 632 q 493 742 594 742 q 277 656 369 742 q 151 408 185 571 l 79 0 l 51 0 l 185 750 l 213 750 l 178 553 q 310 713 225 660 q 497 767 394 767 q 667 708 603 767 q 733 529 732 649 q 867 707 778 647 q 1065 767 956 767 z "},"n":{"ha":853,"x_min":51,"x_max":761,"o":"m 510 767 q 692 706 622 767 q 761 522 761 644 q 753 438 761 483 l 675 0 l 649 0 l 726 440 q 735 521 735 485 q 674 685 735 629 q 506 742 614 742 q 278 657 374 742 q 151 406 182 572 l 79 0 l 51 0 l 185 750 l 213 750 l 178 554 q 312 713 224 658 q 510 767 400 767 z "},"o":{"ha":899,"x_min":76,"x_max":822,"o":"m 383 -10 q 160 69 244 -10 q 76 288 76 149 q 133 524 76 415 q 291 696 190 632 q 517 760 392 760 q 739 681 656 760 q 822 463 822 601 q 766 226 822 335 q 609 54 710 118 q 383 -10 508 -10 m 388 15 q 600 76 507 15 q 744 240 693 138 q 794 461 794 342 q 715 665 794 596 q 513 735 635 735 q 300 674 393 735 q 156 510 207 613 q 104 290 104 408 q 185 85 104 156 q 388 15 265 15 z "},"p":{"ha":932,"x_min":-10,"x_max":857,"o":"m 171 521 q 321 692 219 625 q 551 760 422 760 q 775 681 693 760 q 857 464 857 601 q 849 375 857 421 q 767 170 828 257 q 614 37 706 83 q 415 -10 522 -10 q 208 57 286 -10 q 118 229 131 124 l 17 -353 l -10 -353 l 185 750 l 211 750 l 171 521 m 821 375 q 829 461 829 421 q 755 663 829 590 q 547 735 681 735 q 365 690 450 735 q 222 563 279 644 q 144 375 164 482 q 138 296 138 340 q 214 91 138 167 q 419 15 290 15 q 683 112 575 15 q 821 375 792 208 z "},"q":{"ha":932,"x_min":75,"x_max":881,"o":"m 83 375 q 165 580 104 493 q 318 713 226 667 q 517 760 410 760 q 724 693 646 760 q 814 521 801 626 l 854 750 l 881 750 l 686 -353 l 660 -353 l 761 229 q 611 58 713 125 q 381 -10 510 -10 q 157 69 239 -10 q 75 286 75 149 q 83 375 75 329 m 788 375 q 794 454 794 410 q 718 659 794 583 q 513 735 642 735 q 249 638 357 735 q 111 375 140 542 q 103 289 103 329 q 177 88 103 160 q 385 15 251 15 q 567 60 482 15 q 710 187 653 106 q 788 375 768 268 z "},"r":{"ha":469,"x_min":51,"x_max":511,"o":"m 181 567 q 511 767 258 767 l 506 736 l 493 736 q 283 670 378 736 q 160 457 189 604 l 79 0 l 51 0 l 185 750 l 213 750 l 181 567 z "},"s":{"ha":671,"x_min":35,"x_max":594,"o":"m 272 -10 q 98 40 161 -10 q 40 192 35 90 l 68 192 q 115 63 61 110 q 274 15 168 15 q 449 67 385 15 q 513 196 513 118 q 487 274 513 243 q 424 322 461 304 q 324 361 386 340 q 211 406 253 386 q 140 465 169 426 q 111 563 111 503 q 144 665 111 621 q 236 735 178 710 q 364 760 294 760 q 528 708 463 760 q 594 572 594 657 q 593 544 594 554 l 565 544 q 567 569 567 553 q 507 690 567 644 q 360 735 447 735 q 202 688 265 735 q 139 563 139 640 q 165 478 139 511 q 230 426 192 444 q 335 386 268 408 q 444 343 403 363 q 513 288 485 324 q 540 196 540 253 q 466 46 540 101 q 272 -10 392 -10 z "},"t":{"ha":469,"x_min":89,"x_max":481,"o":"m 146 197 q 139 131 139 156 q 170 50 139 72 q 274 28 201 28 l 353 28 l 347 0 l 265 0 q 148 30 185 0 q 111 128 111 60 q 118 197 111 153 l 211 722 l 89 722 l 94 750 l 217 750 l 250 942 l 278 942 l 244 750 l 481 750 l 475 722 l 239 722 l 146 197 z "},"u":{"ha":853,"x_min":92,"x_max":801,"o":"m 801 750 l 668 0 l 640 0 l 676 203 q 543 41 632 96 q 344 -14 454 -14 q 161 47 231 -14 q 92 231 92 108 q 100 315 92 269 l 178 750 l 204 750 l 126 313 q 119 233 119 278 q 180 68 119 125 q 349 11 240 11 q 578 98 483 11 q 703 354 674 185 l 703 351 l 774 750 l 801 750 z "},"v":{"ha":715,"x_min":94,"x_max":754,"o":"m 301 49 l 724 750 l 754 750 l 301 0 l 281 0 l 94 750 l 125 750 l 301 49 z "},"w":{"ha":1115,"x_min":94,"x_max":1154,"o":"m 1154 750 l 785 0 l 764 0 l 615 700 l 218 0 l 197 0 l 94 750 l 125 750 l 221 57 l 613 750 l 636 750 l 783 57 l 1124 750 l 1154 750 z "},"x":{"ha":578,"x_min":-39,"x_max":610,"o":"m 307 378 l 483 0 l 450 0 l 283 356 l -8 0 l -39 0 l 271 383 l 100 750 l 133 750 l 294 404 l 579 750 l 610 750 l 307 378 z "},"y":{"ha":699,"x_min":82,"x_max":738,"o":"m 125 750 l 304 40 l 707 750 l 738 750 l 115 -353 l 82 -353 l 281 -3 l 94 750 l 125 750 z "},"z":{"ha":565,"x_min":-25,"x_max":576,"o":"m 10 25 l 463 25 l 457 0 l -25 0 l -19 25 l 540 725 l 117 725 l 122 750 l 576 750 l 571 725 l 10 25 z "},"{":{"ha":410,"x_min":78,"x_max":569,"o":"m 83 533 q 224 613 185 564 q 276 736 263 661 q 286 841 285 786 q 288 907 288 896 q 290 1012 288 969 q 300 1099 292 1054 q 526 1290 332 1290 l 569 1290 l 565 1265 l 522 1265 q 392 1226 442 1265 q 328 1099 343 1188 q 314 893 314 1018 q 313 830 314 882 q 304 736 311 778 q 106 518 272 553 l 106 515 q 203 458 174 492 q 232 363 232 424 q 219 274 232 324 q 175 124 206 224 q 131 -20 146 36 q 117 -117 117 -76 q 258 -232 117 -232 l 301 -232 l 297 -257 l 254 -257 q 131 -224 174 -257 q 89 -117 89 -190 q 103 -21 89 -76 q 147 126 118 35 q 190 268 175 213 q 204 363 204 324 q 178 445 204 415 q 78 500 153 475 l 83 533 z "},"|":{"ha":264,"x_min":31,"x_max":271,"o":"m 58 -119 l 31 -119 l 243 1081 l 271 1081 l 58 -119 z "},"}":{"ha":410,"x_min":-110,"x_max":382,"o":"m 376 500 q 234 417 272 469 q 183 297 196 364 q 174 192 175 247 q 172 126 172 138 q 170 22 172 65 q 160 -65 168 -21 q 84 -211 142 -165 q -67 -257 26 -257 l -110 -257 l -106 -232 l -62 -232 q 67 -193 18 -232 q 132 -65 117 -154 q 146 140 146 15 q 147 203 146 151 q 156 297 149 256 q 221 437 169 379 q 363 515 272 494 l 363 518 q 262 578 294 535 q 229 686 229 622 q 233 736 229 711 q 279 894 242 785 q 338 1099 325 1025 q 342 1146 342 1126 q 201 1265 342 1265 l 158 1265 l 163 1290 l 206 1290 q 328 1257 286 1290 q 369 1151 369 1224 q 365 1099 369 1128 q 311 910 353 1031 q 261 736 271 796 q 256 682 256 703 q 382 533 256 575 l 376 500 z "},"~":{"ha":572,"x_min":58,"x_max":540,"o":"m 58 388 q 116 477 79 444 q 203 510 153 510 q 257 498 235 510 q 311 461 279 486 q 359 428 340 439 q 404 417 378 417 q 469 444 439 417 q 513 510 499 471 l 540 510 q 483 420 519 453 q 396 388 446 388 q 341 400 364 388 q 289 436 318 413 q 239 470 258 460 q 193 481 219 481 q 129 453 158 481 q 86 388 100 426 l 58 388 z "}," ":{"ha":403,"x_min":0,"x_max":0,"o":""},"¡":{"ha":356,"x_min":60,"x_max":278,"o":"m 247 769 q 269 762 261 769 q 278 740 278 754 q 265 708 278 721 q 233 694 251 694 q 211 702 219 694 q 203 724 203 710 q 216 756 203 743 q 247 769 229 769 m 60 -211 l 199 549 l 224 549 l 93 -211 l 60 -211 z "},"¢":{"ha":817,"x_min":76,"x_max":750,"o":"m 479 718 q 680 644 610 717 q 747 454 750 572 l 719 454 q 653 629 721 565 q 472 693 586 693 q 315 658 390 693 q 184 552 239 624 q 111 375 129 481 q 104 300 104 331 q 177 119 104 181 q 361 57 250 57 q 565 121 475 57 q 692 296 654 185 l 719 296 q 583 106 679 178 q 358 32 488 33 l 331 -129 l 303 -129 l 332 33 q 146 110 215 40 q 76 299 76 181 q 83 375 76 331 q 211 617 110 526 q 451 717 313 708 l 478 865 l 506 865 l 479 718 z "},"£":{"ha":750,"x_min":83,"x_max":776,"o":"m 531 988 q 715 913 653 988 q 769 724 776 838 l 742 724 l 743 747 q 685 903 743 843 q 526 963 626 963 q 351 903 429 963 q 251 728 272 843 q 244 656 244 686 q 249 588 244 621 q 260 524 254 554 q 269 479 267 493 l 536 479 l 532 456 l 274 456 q 285 351 285 386 q 279 288 285 317 q 228 153 267 213 q 117 28 189 94 l 639 28 l 633 0 l 88 0 l 88 26 q 169 114 142 82 q 220 188 197 146 q 253 281 243 229 q 258 342 258 308 q 244 456 258 381 l 83 456 l 88 479 l 240 479 q 222 576 228 542 q 217 650 217 610 q 224 728 217 682 q 278 860 236 801 q 387 953 321 919 q 531 988 453 988 z "},"¤":{"ha":696,"x_min":83,"x_max":663,"o":"m 560 683 q 588 575 588 636 q 583 524 588 551 q 506 365 567 429 l 576 282 l 554 264 l 486 346 q 332 285 414 285 q 254 301 289 285 q 197 347 219 317 l 100 264 l 83 282 l 185 365 q 160 469 160 411 q 165 524 160 485 q 242 682 182 618 l 169 768 l 192 786 l 261 701 q 415 763 331 763 q 489 747 454 763 q 547 701 524 731 l 646 786 l 663 768 l 560 683 m 556 524 q 560 572 560 549 q 517 692 560 647 q 411 738 475 738 q 272 679 332 738 q 193 524 211 621 q 188 471 188 485 q 228 352 188 394 q 336 310 268 310 q 431 335 385 310 q 510 410 476 361 q 556 524 544 458 z "},"¥":{"ha":782,"x_min":89,"x_max":819,"o":"m 465 481 l 706 481 l 701 456 l 447 456 l 415 410 l 399 318 l 678 318 l 672 290 l 394 290 l 343 0 l 315 0 l 367 290 l 89 290 l 94 318 l 371 318 l 388 410 l 371 456 l 118 456 l 122 481 l 363 481 l 183 978 l 217 978 l 407 440 l 786 978 l 819 978 l 465 481 z "},"¦":{"ha":264,"x_min":31,"x_max":271,"o":"m 243 1081 l 271 1081 l 185 594 l 157 594 l 243 1081 m 58 -119 l 31 -119 l 117 368 l 144 368 l 58 -119 z "},"§":{"ha":786,"x_min":67,"x_max":735,"o":"m 199 832 q 233 937 199 890 q 330 1010 267 983 q 476 1038 393 1038 q 667 977 599 1038 q 731 807 735 917 l 703 807 q 686 903 707 856 q 612 981 665 950 q 472 1013 558 1013 q 308 974 374 1013 q 229 861 242 936 q 226 832 226 842 q 275 738 226 775 q 433 675 324 701 q 642 597 569 643 q 714 458 714 550 q 710 417 714 440 q 658 307 700 358 q 547 224 615 256 q 392 192 478 192 q 349 193 363 192 l 347 188 q 532 125 461 165 q 603 6 603 85 q 569 -101 603 -53 q 473 -176 535 -149 q 331 -204 411 -204 q 137 -144 207 -204 q 71 26 67 -83 l 99 26 q 150 -119 94 -60 q 336 -179 206 -179 q 496 -140 432 -179 q 572 -24 560 -101 q 575 6 575 -4 q 526 95 575 60 q 367 158 478 131 q 158 238 231 192 q 86 375 86 283 q 90 417 86 394 q 143 526 101 475 q 254 610 185 578 q 410 642 324 642 q 453 640 438 642 l 453 646 q 270 710 342 669 q 199 832 199 751 m 685 451 q 619 575 685 529 q 432 621 553 621 q 263 588 335 621 q 153 499 190 554 q 115 383 115 444 q 181 258 115 304 q 368 213 247 213 q 538 247 465 213 q 647 335 610 281 q 685 451 685 390 z "},"¨":{"ha":443,"x_min":183,"x_max":450,"o":"m 217 871 q 192 881 201 871 q 183 906 183 890 q 198 940 183 925 q 232 954 213 954 q 255 944 246 954 q 264 919 264 935 q 249 885 264 900 q 217 871 235 871 m 403 871 q 378 881 388 871 q 369 906 369 890 q 384 940 369 925 q 418 954 399 954 q 441 944 432 954 q 450 921 450 935 q 435 886 450 901 q 403 871 421 871 z "},"©":{"ha":1115,"x_min":93,"x_max":1061,"o":"m 664 975 q 875 927 785 975 q 1013 793 965 879 q 1061 593 1061 707 q 1051 489 1061 539 q 948 237 1026 347 q 751 65 869 126 q 493 3 632 3 q 281 51 371 3 q 142 186 190 99 q 93 388 93 274 q 103 489 93 428 q 208 741 128 631 q 406 913 288 851 q 664 975 525 975 m 660 950 q 413 890 525 950 q 228 726 301 831 q 131 489 154 621 q 122 392 122 439 q 166 202 122 285 q 294 74 210 119 q 497 28 379 28 q 743 88 632 28 q 928 252 854 147 q 1024 489 1001 357 q 1033 588 1033 550 q 989 776 1033 694 q 860 904 944 858 q 660 950 776 950 m 640 819 q 485 781 560 819 q 358 669 411 743 q 286 490 304 594 q 279 411 279 456 q 348 224 279 290 q 524 158 417 158 q 710 215 622 158 q 844 374 799 271 l 815 374 q 693 235 771 283 q 529 186 615 186 q 369 247 432 186 q 306 418 306 307 q 313 488 306 446 q 379 653 329 585 q 497 757 429 722 q 636 792 564 792 q 783 743 722 792 q 856 604 843 694 l 885 604 q 807 763 875 707 q 640 819 739 819 z "},"ª":{"ha":601,"x_min":113,"x_max":621,"o":"m 118 733 q 212 915 138 846 q 388 985 286 985 q 515 944 468 985 q 568 833 561 904 l 593 976 l 621 976 l 536 492 l 508 492 l 533 633 q 441 522 501 563 q 300 482 381 482 q 163 535 213 482 q 113 676 113 588 q 118 733 113 694 m 550 733 q 556 786 556 772 q 509 913 556 867 q 383 960 463 960 q 231 898 297 960 q 146 733 164 836 q 142 681 142 707 q 185 553 142 600 q 304 507 229 507 q 464 569 396 507 q 550 733 532 631 z "},"«":{"ha":519,"x_min":68,"x_max":499,"o":"m 175 167 l 68 410 l 260 653 l 297 653 l 103 410 l 213 167 l 175 167 m 376 167 l 269 410 l 461 653 l 499 653 l 304 410 l 414 167 l 376 167 z "},"¬":{"ha":983,"x_min":115,"x_max":958,"o":"m 958 589 l 917 354 l 892 354 l 929 561 l 115 561 l 119 589 l 958 589 z "},"­":{"ha":617,"x_min":-24,"x_max":486,"o":"m 486 540 l 482 515 l -24 515 l -19 540 l 486 540 z "},"®":{"ha":675,"x_min":138,"x_max":660,"o":"m 446 988 q 602 928 544 988 q 660 775 660 868 q 656 722 660 750 q 599 588 643 649 q 490 492 556 528 q 351 457 425 457 q 195 517 253 457 q 138 669 138 576 q 142 722 138 696 q 198 856 154 796 q 307 952 242 917 q 446 988 372 988 m 628 722 q 632 771 632 747 q 580 908 632 854 q 440 961 528 961 q 316 930 374 961 q 219 844 258 899 q 169 722 181 789 q 165 674 165 697 q 217 537 165 590 q 357 483 269 483 q 481 515 424 483 q 578 601 539 546 q 628 722 617 656 m 447 871 q 506 853 485 871 q 526 806 526 836 q 525 789 526 794 q 490 728 518 750 q 418 706 461 706 l 417 706 l 489 575 l 458 574 l 386 706 l 331 706 l 307 574 l 279 574 l 332 871 l 447 871 m 497 789 q 499 801 499 793 q 440 844 499 844 l 356 844 l 335 732 l 419 732 q 497 789 486 732 z "},"¯":{"ha":540,"x_min":151,"x_max":585,"o":"m 585 940 l 581 915 l 151 915 l 156 940 l 585 940 z "},"°":{"ha":494,"x_min":97,"x_max":519,"o":"m 103 721 q 190 894 122 828 q 350 960 257 960 q 474 911 429 960 q 519 779 519 863 q 514 721 519 749 q 427 548 494 614 q 267 482 360 482 q 142 531 188 482 q 97 663 97 579 q 103 721 97 693 m 486 721 q 492 779 492 749 q 453 894 492 853 q 346 935 415 935 q 206 878 264 935 q 131 721 149 821 q 125 663 125 693 q 163 548 125 589 q 271 507 201 507 q 410 564 353 507 q 486 721 468 621 z "},"±":{"ha":818,"x_min":11,"x_max":797,"o":"m 797 568 l 792 543 l 451 543 l 396 229 l 368 229 l 424 543 l 85 543 l 90 568 l 428 568 l 483 882 l 511 882 l 456 568 l 797 568 m 17 151 l 724 151 l 718 126 l 11 126 l 17 151 z "},"²":{"ha":418,"x_min":75,"x_max":432,"o":"m 429 847 q 379 740 418 788 q 267 631 340 692 l 125 514 l 388 514 l 382 489 l 75 489 l 78 503 l 264 660 q 358 751 324 711 q 401 847 392 792 q 404 874 404 867 q 379 936 404 915 q 313 957 354 957 q 219 924 257 957 q 164 831 181 892 l 136 831 q 199 939 153 896 q 317 982 244 982 q 401 954 369 982 q 432 876 432 926 q 429 847 432 869 z "},"³":{"ha":419,"x_min":90,"x_max":449,"o":"m 143 860 q 208 948 163 914 q 322 982 254 982 q 414 953 379 982 q 449 874 449 924 q 418 784 449 822 q 332 732 388 746 l 332 729 q 388 694 368 718 q 408 635 408 671 q 388 563 408 599 q 326 505 367 528 q 231 482 286 482 q 99 617 90 482 l 126 617 q 151 532 122 557 q 235 507 181 507 q 340 541 301 507 q 379 631 379 575 q 349 694 379 671 q 267 717 318 717 l 182 717 l 188 742 l 276 742 q 370 770 332 742 q 418 849 408 799 q 419 869 419 856 q 392 931 419 908 q 318 954 365 954 q 225 929 263 954 q 171 860 188 904 l 143 860 z "},"´":{"ha":371,"x_min":133,"x_max":431,"o":"m 425 994 l 133 814 l 138 842 l 431 1028 l 425 994 z "},"µ":{"ha":860,"x_min":-10,"x_max":808,"o":"m 808 750 l 675 0 l 647 0 l 685 210 q 553 40 639 97 q 367 -17 467 -17 q 195 35 265 -17 q 114 206 125 88 l 17 -353 l -10 -353 l 185 750 l 211 750 l 143 365 q 133 261 133 313 q 197 72 133 136 q 371 8 260 8 q 587 94 496 8 q 708 344 678 179 l 781 750 l 808 750 z "},"¶":{"ha":679,"x_min":76,"x_max":663,"o":"m 494 0 l 467 0 l 631 925 l 481 925 l 317 0 l 289 0 l 363 413 l 361 413 q 148 469 219 413 q 76 625 76 525 q 82 681 76 642 q 200 878 103 806 q 456 950 297 950 l 663 950 l 494 0 z "},"·":{"ha":157,"x_min":-17,"x_max":58,"o":"m 14 463 q -8 470 0 463 q -17 492 -17 478 q -3 524 -17 511 q 28 538 10 538 q 50 530 42 538 q 58 508 58 522 q 45 476 58 489 q 14 463 32 463 z "},"¸":{"ha":346,"x_min":-72,"x_max":185,"o":"m 28 -124 q 145 -142 106 -118 q 185 -212 185 -165 q 183 -233 185 -226 q 130 -320 174 -287 q 15 -353 86 -353 l -72 -353 l -68 -325 l 15 -325 q 156 -233 139 -325 q 157 -217 157 -228 q 131 -167 157 -186 q 47 -149 106 -149 l -4 -149 l 24 10 l 51 10 l 28 -124 z "},"¹":{"ha":214,"x_min":150,"x_max":265,"o":"m 157 953 l 163 978 l 265 978 l 178 489 l 150 489 l 232 953 l 157 953 z "},"º":{"ha":572,"x_min":113,"x_max":588,"o":"m 118 731 q 171 863 131 806 q 269 953 211 921 q 394 985 328 985 q 535 931 482 985 q 588 786 588 876 q 582 731 588 769 q 529 598 569 656 q 431 508 489 540 q 306 476 372 476 q 165 531 218 476 q 113 675 113 585 q 118 731 113 692 m 554 731 q 560 786 560 757 q 513 913 560 868 q 390 957 467 957 q 233 897 301 957 q 146 731 165 836 q 142 676 142 701 q 188 549 142 594 q 310 504 233 504 q 467 565 399 504 q 554 731 536 625 z "},"»":{"ha":519,"x_min":33,"x_max":463,"o":"m 228 410 l 118 653 l 157 653 l 261 410 l 72 167 l 33 167 l 228 410 m 429 410 l 319 653 l 358 653 l 463 410 l 274 167 l 235 167 l 429 410 z "},"¼":{"ha":711,"x_min":13,"x_max":697,"o":"m 697 978 l 40 0 l 13 0 l 669 978 l 697 978 m 185 953 l 190 978 l 293 978 l 206 489 l 178 489 l 260 953 l 185 953 m 608 106 l 532 106 l 513 0 l 485 0 l 504 106 l 265 106 l 269 131 l 579 493 l 600 493 l 536 133 l 613 133 l 608 106 m 561 429 l 303 133 l 508 133 l 561 429 z "},"½":{"ha":824,"x_min":-11,"x_max":838,"o":"m 674 978 l 17 0 l -11 0 l 646 978 l 674 978 m 182 489 l 264 953 l 189 953 l 194 978 l 297 978 l 210 489 l 182 489 m 835 357 q 785 249 824 297 q 672 140 746 201 l 531 24 l 793 24 l 788 -1 l 481 -1 l 483 13 l 669 169 q 763 261 729 221 q 807 357 797 301 q 810 383 810 376 q 785 446 810 425 q 718 467 760 467 q 624 434 663 467 q 569 340 586 401 l 542 340 q 604 449 558 406 q 722 492 650 492 q 806 464 775 492 q 838 386 838 436 q 835 357 838 379 z "},"¾":{"ha":739,"x_min":82,"x_max":767,"o":"m 167 860 q 232 948 186 914 q 346 982 278 982 q 438 953 403 982 q 472 874 472 924 q 442 784 472 822 q 356 732 411 746 l 356 729 q 412 694 392 718 q 432 635 432 669 q 411 563 432 599 q 350 505 390 528 q 254 482 310 482 q 122 617 114 482 l 150 617 q 175 532 146 557 q 258 507 204 507 q 364 541 325 507 q 403 631 403 575 q 372 694 403 671 q 290 717 342 717 l 206 717 l 211 742 l 300 742 q 394 770 356 742 q 442 849 432 799 q 443 869 443 856 q 416 931 443 908 q 342 954 389 954 q 249 929 286 954 q 194 860 211 904 l 167 860 m 767 978 l 110 0 l 82 0 l 739 978 l 767 978 m 636 106 l 560 106 l 540 0 l 513 0 l 532 106 l 293 106 l 297 131 l 607 493 l 628 493 l 564 133 l 640 133 l 636 106 m 589 429 l 331 133 l 536 133 l 589 429 z "},"¿":{"ha":642,"x_min":-26,"x_max":556,"o":"m 483 749 q 506 741 497 749 q 514 719 514 733 q 501 687 514 700 q 469 674 488 674 q 447 681 456 674 q 439 703 439 689 q 452 735 439 722 q 483 749 465 749 m 222 -242 q 42 -181 111 -242 q -26 -21 -26 -121 q -21 32 -26 -4 q 116 263 8 193 q 397 333 224 332 l 436 535 l 458 535 l 421 308 l 399 308 q 141 252 246 308 q 7 32 36 196 q 3 -18 3 6 q 64 -163 3 -110 q 226 -217 125 -217 q 426 -152 344 -217 q 528 21 508 -87 l 556 21 q 440 -172 533 -101 q 222 -242 346 -242 z "},"À":{"ha":835,"x_min":-25,"x_max":726,"o":"m 640 269 l 157 269 l 7 0 l -25 0 l 506 949 l 533 949 l 726 0 l 694 0 l 640 269 m 635 294 l 511 904 l 171 294 l 635 294 m 646 1040 l 642 1013 l 414 1193 l 419 1226 l 646 1040 z "},"Á":{"ha":835,"x_min":-25,"x_max":726,"o":"m 640 269 l 157 269 l 7 0 l -25 0 l 506 949 l 533 949 l 726 0 l 694 0 l 640 269 m 635 294 l 511 904 l 171 294 l 635 294 m 674 1193 l 382 1013 l 386 1040 l 679 1226 l 674 1193 z "},"Â":{"ha":835,"x_min":-25,"x_max":726,"o":"m 640 269 l 157 269 l 7 0 l -25 0 l 506 949 l 533 949 l 726 0 l 694 0 l 640 269 m 635 294 l 511 904 l 171 294 l 635 294 m 558 1172 l 367 1060 l 371 1088 l 564 1200 l 714 1088 l 710 1060 l 558 1172 z "},"Ã":{"ha":835,"x_min":-25,"x_max":736,"o":"m 640 269 l 157 269 l 7 0 l -25 0 l 506 949 l 533 949 l 726 0 l 694 0 l 640 269 m 635 294 l 511 904 l 171 294 l 635 294 m 401 1038 q 440 1105 414 1081 q 501 1129 467 1129 q 540 1120 525 1129 q 572 1093 554 1111 q 604 1068 590 1076 q 639 1060 618 1060 q 683 1077 663 1060 q 711 1125 703 1094 l 736 1125 q 699 1061 728 1088 q 635 1035 669 1035 q 593 1044 610 1035 q 557 1072 576 1054 q 528 1096 542 1088 q 496 1104 514 1104 q 426 1038 447 1104 l 401 1038 z "},"Ä":{"ha":835,"x_min":-25,"x_max":726,"o":"m 640 269 l 157 269 l 7 0 l -25 0 l 506 949 l 533 949 l 726 0 l 694 0 l 640 269 m 635 294 l 511 904 l 171 294 l 635 294 m 449 1069 q 424 1079 433 1069 q 415 1104 415 1089 q 430 1138 415 1124 q 464 1153 444 1153 q 487 1143 478 1153 q 496 1118 496 1133 q 481 1084 496 1099 q 449 1069 467 1069 m 635 1069 q 610 1079 619 1069 q 601 1104 601 1089 q 616 1138 601 1124 q 650 1153 631 1153 q 673 1143 664 1153 q 682 1119 682 1133 q 667 1085 682 1100 q 635 1069 653 1069 z "},"Å":{"ha":835,"x_min":-25,"x_max":726,"o":"m 640 269 l 157 269 l 7 0 l -25 0 l 506 949 l 533 949 l 726 0 l 694 0 l 640 269 m 635 294 l 511 904 l 171 294 l 635 294 m 432 1151 q 477 1260 432 1218 q 582 1303 522 1303 q 658 1276 628 1303 q 688 1204 688 1249 q 642 1095 688 1138 q 538 1053 597 1053 q 462 1080 492 1053 q 432 1151 432 1107 m 658 1200 q 636 1257 658 1236 q 576 1278 614 1278 q 502 1251 533 1278 q 463 1178 471 1224 q 461 1156 461 1169 q 483 1099 461 1119 q 542 1078 506 1078 q 624 1111 590 1078 q 658 1200 658 1144 z "},"Æ":{"ha":1163,"x_min":-53,"x_max":1200,"o":"m 744 953 l 665 501 l 1074 501 l 1069 476 l 661 476 l 582 25 l 1032 25 l 1026 0 l 549 0 l 596 269 l 193 269 l -21 0 l -53 0 l 722 978 l 1200 978 l 1194 953 l 744 953 m 713 926 l 213 294 l 601 294 l 713 926 z "},"Ç":{"ha":1068,"x_min":93,"x_max":1040,"o":"m 643 963 q 417 905 524 963 q 233 740 310 847 q 132 488 157 632 q 122 381 122 435 q 167 185 122 268 q 292 59 213 103 q 475 15 372 15 q 755 90 635 15 q 942 288 875 164 l 969 288 q 785 81 899 158 q 521 -8 672 3 l 500 -124 q 617 -142 578 -118 q 657 -212 657 -165 q 656 -233 657 -226 q 602 -320 646 -287 q 488 -353 558 -353 l 400 -353 l 404 -325 l 488 -325 q 628 -233 611 -325 q 629 -217 629 -228 q 603 -167 629 -186 q 519 -149 578 -149 l 468 -149 l 493 -10 l 471 -10 q 272 39 357 -10 q 140 176 186 88 q 93 379 93 264 q 103 488 93 435 q 208 747 129 633 q 401 924 286 860 q 647 988 517 988 q 915 908 818 988 q 1040 689 1013 829 l 1013 689 q 896 888 989 813 q 643 963 803 963 z "},"È":{"ha":665,"x_min":51,"x_max":703,"o":"m 247 953 l 168 501 l 576 501 l 572 476 l 164 476 l 85 25 l 535 25 l 529 0 l 51 0 l 225 978 l 703 978 l 697 953 l 247 953 m 551 1040 l 547 1013 l 319 1193 l 325 1226 l 551 1040 z "},"É":{"ha":665,"x_min":51,"x_max":703,"o":"m 247 953 l 168 501 l 576 501 l 572 476 l 164 476 l 85 25 l 535 25 l 529 0 l 51 0 l 225 978 l 703 978 l 697 953 l 247 953 m 579 1193 l 288 1013 l 292 1040 l 585 1226 l 579 1193 z "},"Ê":{"ha":665,"x_min":51,"x_max":703,"o":"m 247 953 l 168 501 l 576 501 l 572 476 l 164 476 l 85 25 l 535 25 l 529 0 l 51 0 l 225 978 l 703 978 l 697 953 l 247 953 m 464 1172 l 272 1060 l 276 1088 l 469 1200 l 619 1088 l 615 1060 l 464 1172 z "},"Ë":{"ha":665,"x_min":51,"x_max":703,"o":"m 247 953 l 168 501 l 576 501 l 572 476 l 164 476 l 85 25 l 535 25 l 529 0 l 51 0 l 225 978 l 703 978 l 697 953 l 247 953 m 354 1069 q 330 1079 339 1069 q 321 1104 321 1089 q 335 1138 321 1124 q 369 1153 350 1153 q 392 1143 383 1153 q 401 1118 401 1133 q 387 1084 401 1099 q 354 1069 372 1069 m 540 1069 q 516 1079 525 1069 q 507 1104 507 1089 q 522 1138 507 1124 q 556 1153 536 1153 q 578 1143 569 1153 q 588 1119 588 1133 q 573 1085 588 1100 q 540 1069 558 1069 z "},"Ì":{"ha":264,"x_min":51,"x_max":360,"o":"m 253 978 l 79 0 l 51 0 l 225 978 l 253 978 m 360 1040 l 356 1013 l 128 1193 l 133 1226 l 360 1040 z "},"Í":{"ha":264,"x_min":51,"x_max":393,"o":"m 253 978 l 79 0 l 51 0 l 225 978 l 253 978 m 388 1193 l 96 1013 l 100 1040 l 393 1226 l 388 1193 z "},"Î":{"ha":264,"x_min":51,"x_max":428,"o":"m 253 978 l 79 0 l 51 0 l 225 978 l 253 978 m 272 1172 l 81 1060 l 85 1088 l 278 1200 l 428 1088 l 424 1060 l 272 1172 z "},"Ï":{"ha":264,"x_min":51,"x_max":396,"o":"m 253 978 l 79 0 l 51 0 l 225 978 l 253 978 m 163 1069 q 138 1079 147 1069 q 129 1104 129 1089 q 144 1138 129 1124 q 178 1153 158 1153 q 201 1143 192 1153 q 210 1118 210 1133 q 195 1084 210 1099 q 163 1069 181 1069 m 349 1069 q 324 1079 333 1069 q 315 1104 315 1089 q 330 1138 315 1124 q 364 1153 344 1153 q 387 1143 378 1153 q 396 1119 396 1133 q 381 1085 396 1100 q 349 1069 367 1069 z "},"Ð":{"ha":1031,"x_min":32,"x_max":978,"o":"m 538 978 q 867 883 756 978 q 978 610 978 788 q 967 489 978 546 q 771 128 925 256 q 364 0 617 0 l 107 0 l 192 476 l 32 476 l 36 501 l 196 501 l 281 978 l 538 978 m 939 489 q 950 603 950 553 q 844 861 950 769 q 532 953 739 953 l 303 953 l 224 501 l 547 501 l 543 476 l 219 476 l 140 25 l 369 25 q 756 147 611 25 q 939 489 900 269 z "},"Ñ":{"ha":899,"x_min":51,"x_max":886,"o":"m 714 0 l 686 0 l 243 926 l 79 0 l 51 0 l 224 976 l 251 976 l 696 51 l 858 976 l 886 976 l 714 0 m 433 1038 q 472 1105 446 1081 q 533 1129 499 1129 q 572 1120 557 1129 q 604 1093 586 1111 q 636 1068 622 1076 q 671 1060 650 1060 q 715 1077 694 1060 q 743 1125 735 1094 l 768 1125 q 731 1061 760 1088 q 667 1035 701 1035 q 625 1044 642 1035 q 589 1072 608 1054 q 560 1096 574 1088 q 528 1104 546 1104 q 458 1038 479 1104 l 433 1038 z "},"Ò":{"ha":1100,"x_min":93,"x_max":1046,"o":"m 482 -11 q 277 38 365 -11 q 141 175 189 86 q 93 381 93 264 q 168 680 93 540 q 372 903 243 819 q 658 986 501 986 q 863 938 775 986 q 999 800 951 889 q 1046 594 1046 711 q 972 295 1046 435 q 767 72 897 156 q 482 -11 638 -11 m 486 14 q 756 94 635 14 q 947 307 878 174 q 1017 594 1017 440 q 970 790 1017 707 q 842 917 924 874 q 653 961 760 961 q 381 881 503 961 q 191 667 260 800 q 122 382 122 533 q 169 186 122 269 q 297 58 215 103 q 486 14 379 14 m 793 1040 l 789 1013 l 561 1193 l 567 1226 l 793 1040 z "},"Ó":{"ha":1100,"x_min":93,"x_max":1046,"o":"m 482 -11 q 277 38 365 -11 q 141 175 189 86 q 93 381 93 264 q 168 680 93 540 q 372 903 243 819 q 658 986 501 986 q 863 938 775 986 q 999 800 951 889 q 1046 594 1046 711 q 972 295 1046 435 q 767 72 897 156 q 482 -11 638 -11 m 486 14 q 756 94 635 14 q 947 307 878 174 q 1017 594 1017 440 q 970 790 1017 707 q 842 917 924 874 q 653 961 760 961 q 381 881 503 961 q 191 667 260 800 q 122 382 122 533 q 169 186 122 269 q 297 58 215 103 q 486 14 379 14 m 821 1193 l 529 1013 l 533 1040 l 826 1226 l 821 1193 z "},"Ô":{"ha":1100,"x_min":93,"x_max":1046,"o":"m 482 -11 q 277 38 365 -11 q 141 175 189 86 q 93 381 93 264 q 168 680 93 540 q 372 903 243 819 q 658 986 501 986 q 863 938 775 986 q 999 800 951 889 q 1046 594 1046 711 q 972 295 1046 435 q 767 72 897 156 q 482 -11 638 -11 m 486 14 q 756 94 635 14 q 947 307 878 174 q 1017 594 1017 440 q 970 790 1017 707 q 842 917 924 874 q 653 961 760 961 q 381 881 503 961 q 191 667 260 800 q 122 382 122 533 q 169 186 122 269 q 297 58 215 103 q 486 14 379 14 m 706 1172 l 514 1060 l 518 1088 l 711 1200 l 861 1088 l 857 1060 l 706 1172 z "},"Õ":{"ha":1100,"x_min":93,"x_max":1046,"o":"m 482 -11 q 277 38 365 -11 q 141 175 189 86 q 93 381 93 264 q 168 680 93 540 q 372 903 243 819 q 658 986 501 986 q 863 938 775 986 q 999 800 951 889 q 1046 594 1046 711 q 972 295 1046 435 q 767 72 897 156 q 482 -11 638 -11 m 486 14 q 756 94 635 14 q 947 307 878 174 q 1017 594 1017 440 q 970 790 1017 707 q 842 917 924 874 q 653 961 760 961 q 381 881 503 961 q 191 667 260 800 q 122 382 122 533 q 169 186 122 269 q 297 58 215 103 q 486 14 379 14 m 549 1038 q 588 1105 561 1081 q 649 1129 614 1129 q 687 1120 672 1129 q 719 1093 701 1111 q 751 1068 738 1076 q 786 1060 765 1060 q 830 1077 810 1060 q 858 1125 850 1094 l 883 1125 q 846 1061 875 1088 q 782 1035 817 1035 q 740 1044 757 1035 q 704 1072 724 1054 q 675 1096 689 1088 q 643 1104 661 1104 q 574 1038 594 1104 l 549 1038 z "},"Ö":{"ha":1100,"x_min":93,"x_max":1046,"o":"m 482 -11 q 277 38 365 -11 q 141 175 189 86 q 93 381 93 264 q 168 680 93 540 q 372 903 243 819 q 658 986 501 986 q 863 938 775 986 q 999 800 951 889 q 1046 594 1046 711 q 972 295 1046 435 q 767 72 897 156 q 482 -11 638 -11 m 486 14 q 756 94 635 14 q 947 307 878 174 q 1017 594 1017 440 q 970 790 1017 707 q 842 917 924 874 q 653 961 760 961 q 381 881 503 961 q 191 667 260 800 q 122 382 122 533 q 169 186 122 269 q 297 58 215 103 q 486 14 379 14 m 596 1069 q 572 1079 581 1069 q 563 1104 563 1089 q 577 1138 563 1124 q 611 1153 592 1153 q 634 1143 625 1153 q 643 1118 643 1133 q 628 1084 643 1099 q 596 1069 614 1069 m 782 1069 q 758 1079 767 1069 q 749 1104 749 1089 q 763 1138 749 1124 q 797 1153 778 1153 q 820 1143 811 1153 q 829 1119 829 1133 q 815 1085 829 1100 q 782 1069 800 1069 z "},"×":{"ha":651,"x_min":39,"x_max":665,"o":"m 371 528 l 578 276 l 556 257 l 349 508 l 54 258 l 39 276 l 333 526 l 126 778 l 150 797 l 356 546 l 650 796 l 665 778 l 371 528 z "},"Ø":{"ha":1100,"x_min":18,"x_max":1122,"o":"m 972 842 q 1046 594 1046 740 q 972 295 1046 435 q 767 72 897 156 q 482 -11 638 -11 q 309 22 386 -11 q 181 117 232 56 l 53 0 l 18 0 l 165 135 q 93 381 93 238 q 168 680 93 540 q 372 903 243 819 q 658 986 501 986 q 831 953 754 986 q 958 858 908 919 l 1089 978 l 1122 978 l 972 842 m 122 382 q 188 154 122 247 l 938 839 q 815 930 889 899 q 653 961 742 961 q 381 881 503 961 q 191 667 260 800 q 122 382 122 533 m 1017 594 q 951 821 1017 729 l 201 136 q 324 45 250 76 q 486 14 397 14 q 756 94 635 14 q 947 307 878 174 q 1017 594 1017 440 z "},"Ù":{"ha":874,"x_min":100,"x_max":869,"o":"m 246 978 l 138 371 q 128 263 128 314 q 194 75 128 135 q 376 15 260 15 q 607 100 513 15 q 733 371 701 185 l 842 978 l 869 978 l 761 371 q 625 83 726 176 q 372 -10 524 -10 q 172 57 244 -10 q 100 261 100 124 q 110 371 100 314 l 218 978 l 246 978 m 664 1040 l 660 1013 l 432 1193 l 438 1226 l 664 1040 z "},"Ú":{"ha":874,"x_min":100,"x_max":869,"o":"m 246 978 l 138 371 q 128 263 128 314 q 194 75 128 135 q 376 15 260 15 q 607 100 513 15 q 733 371 701 185 l 842 978 l 869 978 l 761 371 q 625 83 726 176 q 372 -10 524 -10 q 172 57 244 -10 q 100 261 100 124 q 110 371 100 314 l 218 978 l 246 978 m 692 1193 l 400 1013 l 404 1040 l 697 1226 l 692 1193 z "},"Û":{"ha":874,"x_min":100,"x_max":869,"o":"m 246 978 l 138 371 q 128 263 128 314 q 194 75 128 135 q 376 15 260 15 q 607 100 513 15 q 733 371 701 185 l 842 978 l 869 978 l 761 371 q 625 83 726 176 q 372 -10 524 -10 q 172 57 244 -10 q 100 261 100 124 q 110 371 100 314 l 218 978 l 246 978 m 576 1172 l 385 1060 l 389 1088 l 582 1200 l 732 1088 l 728 1060 l 576 1172 z "},"Ü":{"ha":874,"x_min":100,"x_max":869,"o":"m 246 978 l 138 371 q 128 263 128 314 q 194 75 128 135 q 376 15 260 15 q 607 100 513 15 q 733 371 701 185 l 842 978 l 869 978 l 761 371 q 625 83 726 176 q 372 -10 524 -10 q 172 57 244 -10 q 100 261 100 124 q 110 371 100 314 l 218 978 l 246 978 m 467 1069 q 442 1079 451 1069 q 433 1104 433 1089 q 448 1138 433 1124 q 482 1153 463 1153 q 505 1143 496 1153 q 514 1118 514 1133 q 499 1084 514 1099 q 467 1069 485 1069 m 653 1069 q 628 1079 638 1069 q 619 1104 619 1089 q 634 1138 619 1124 q 668 1153 649 1153 q 691 1143 682 1153 q 700 1119 700 1133 q 685 1085 700 1100 q 653 1069 671 1069 z "},"Ý":{"ha":719,"x_min":149,"x_max":785,"o":"m 785 978 l 381 410 l 308 0 l 281 0 l 353 410 l 149 978 l 182 978 l 372 440 l 751 978 l 785 978 m 617 1193 l 325 1013 l 329 1040 l 622 1226 l 617 1193 z "},"Þ":{"ha":733,"x_min":51,"x_max":703,"o":"m 697 489 q 583 288 675 356 q 338 221 492 221 l 118 221 l 79 0 l 51 0 l 225 978 l 253 978 l 214 758 l 433 758 q 637 705 571 758 q 703 554 703 651 q 697 489 703 518 m 343 250 q 572 313 493 250 q 669 489 650 375 q 676 553 676 526 q 617 685 676 640 q 428 731 557 731 l 208 731 l 124 250 l 343 250 z "},"ß":{"ha":817,"x_min":46,"x_max":744,"o":"m 182 775 q 290 983 206 906 q 501 1060 375 1060 q 667 1015 608 1060 q 725 892 725 969 q 702 800 725 840 q 647 731 679 760 q 563 663 615 701 q 469 583 499 615 q 439 508 439 551 q 474 444 439 471 q 599 388 510 418 q 709 324 674 363 q 744 226 744 285 q 712 105 744 160 q 622 19 679 50 q 492 -12 564 -12 q 329 52 388 -12 q 278 224 271 117 l 306 224 q 350 70 299 128 q 496 13 401 13 q 608 41 557 13 q 688 118 658 69 q 717 224 717 167 q 683 309 717 275 q 575 368 649 343 q 447 430 483 400 q 411 508 411 460 q 444 597 411 560 q 547 686 478 635 q 659 785 621 740 q 697 892 697 829 q 645 995 697 956 q 497 1035 593 1035 q 307 964 383 1035 q 210 775 231 893 l 74 0 l 46 0 l 182 775 z "},"à":{"ha":932,"x_min":75,"x_max":881,"o":"m 83 375 q 165 580 104 493 q 318 713 226 667 q 517 760 410 760 q 724 693 646 760 q 814 521 801 626 l 854 750 l 881 750 l 747 0 l 721 0 l 761 229 q 611 58 713 125 q 381 -10 510 -10 q 157 69 239 -10 q 75 286 75 149 q 83 375 75 329 m 788 375 q 794 454 794 410 q 718 659 794 583 q 513 735 642 735 q 249 638 357 735 q 111 375 140 542 q 103 289 103 329 q 177 88 103 160 q 385 15 251 15 q 567 60 482 15 q 710 187 653 106 q 788 375 768 268 m 664 842 l 660 814 l 432 994 l 438 1028 l 664 842 z "},"á":{"ha":932,"x_min":75,"x_max":881,"o":"m 83 375 q 165 580 104 493 q 318 713 226 667 q 517 760 410 760 q 724 693 646 760 q 814 521 801 626 l 854 750 l 881 750 l 747 0 l 721 0 l 761 229 q 611 58 713 125 q 381 -10 510 -10 q 157 69 239 -10 q 75 286 75 149 q 83 375 75 329 m 788 375 q 794 454 794 410 q 718 659 794 583 q 513 735 642 735 q 249 638 357 735 q 111 375 140 542 q 103 289 103 329 q 177 88 103 160 q 385 15 251 15 q 567 60 482 15 q 710 187 653 106 q 788 375 768 268 m 692 994 l 400 814 l 404 842 l 697 1028 l 692 994 z "},"â":{"ha":932,"x_min":75,"x_max":881,"o":"m 83 375 q 165 580 104 493 q 318 713 226 667 q 517 760 410 760 q 724 693 646 760 q 814 521 801 626 l 854 750 l 881 750 l 747 0 l 721 0 l 761 229 q 611 58 713 125 q 381 -10 510 -10 q 157 69 239 -10 q 75 286 75 149 q 83 375 75 329 m 788 375 q 794 454 794 410 q 718 659 794 583 q 513 735 642 735 q 249 638 357 735 q 111 375 140 542 q 103 289 103 329 q 177 88 103 160 q 385 15 251 15 q 567 60 482 15 q 710 187 653 106 q 788 375 768 268 m 576 974 l 385 861 l 389 889 l 582 1001 l 732 889 l 728 861 l 576 974 z "},"ã":{"ha":932,"x_min":75,"x_max":881,"o":"m 83 375 q 165 580 104 493 q 318 713 226 667 q 517 760 410 760 q 724 693 646 760 q 814 521 801 626 l 854 750 l 881 750 l 747 0 l 721 0 l 761 229 q 611 58 713 125 q 381 -10 510 -10 q 157 69 239 -10 q 75 286 75 149 q 83 375 75 329 m 788 375 q 794 454 794 410 q 718 659 794 583 q 513 735 642 735 q 249 638 357 735 q 111 375 140 542 q 103 289 103 329 q 177 88 103 160 q 385 15 251 15 q 567 60 482 15 q 710 187 653 106 q 788 375 768 268 m 419 839 q 458 906 432 882 q 519 931 485 931 q 558 922 543 931 q 590 894 572 913 q 622 869 608 878 q 657 861 636 861 q 701 878 681 861 q 729 926 721 896 l 754 926 q 717 863 746 889 q 653 836 688 836 q 611 846 628 836 q 575 874 594 856 q 546 897 560 889 q 514 906 532 906 q 444 839 465 906 l 419 839 z "},"ä":{"ha":932,"x_min":75,"x_max":881,"o":"m 83 375 q 165 580 104 493 q 318 713 226 667 q 517 760 410 760 q 724 693 646 760 q 814 521 801 626 l 854 750 l 881 750 l 747 0 l 721 0 l 761 229 q 611 58 713 125 q 381 -10 510 -10 q 157 69 239 -10 q 75 286 75 149 q 83 375 75 329 m 788 375 q 794 454 794 410 q 718 659 794 583 q 513 735 642 735 q 249 638 357 735 q 111 375 140 542 q 103 289 103 329 q 177 88 103 160 q 385 15 251 15 q 567 60 482 15 q 710 187 653 106 q 788 375 768 268 m 467 871 q 442 881 451 871 q 433 906 433 890 q 448 940 433 925 q 482 954 463 954 q 505 944 496 954 q 514 919 514 935 q 499 885 514 900 q 467 871 485 871 m 653 871 q 628 881 638 871 q 619 906 619 890 q 634 940 619 925 q 668 954 649 954 q 691 944 682 954 q 700 921 700 935 q 685 886 700 901 q 653 871 671 871 z "},"å":{"ha":932,"x_min":75,"x_max":881,"o":"m 83 375 q 165 580 104 493 q 318 713 226 667 q 517 760 410 760 q 724 693 646 760 q 814 521 801 626 l 854 750 l 881 750 l 747 0 l 721 0 l 761 229 q 611 58 713 125 q 381 -10 510 -10 q 157 69 239 -10 q 75 286 75 149 q 83 375 75 329 m 788 375 q 794 454 794 410 q 718 659 794 583 q 513 735 642 735 q 249 638 357 735 q 111 375 140 542 q 103 289 103 329 q 177 88 103 160 q 385 15 251 15 q 567 60 482 15 q 710 187 653 106 q 788 375 768 268 m 450 953 q 495 1062 450 1019 q 600 1104 540 1104 q 676 1077 646 1104 q 706 1006 706 1050 q 660 897 706 939 q 556 854 615 854 q 480 881 510 854 q 450 953 450 908 m 676 1001 q 654 1058 676 1038 q 594 1079 632 1079 q 520 1052 551 1079 q 481 979 489 1025 q 479 957 479 971 q 501 900 479 921 q 560 879 524 879 q 642 913 608 879 q 676 1001 676 946 z "},"æ":{"ha":1576,"x_min":75,"x_max":1510,"o":"m 1217 760 q 1378 723 1313 760 q 1477 626 1444 686 q 1510 494 1510 567 q 1504 438 1510 476 q 1485 363 1494 388 l 813 363 q 806 286 806 318 q 885 84 806 153 q 1085 15 964 15 q 1309 80 1211 15 q 1444 254 1407 144 l 1472 254 q 1328 63 1432 136 q 1081 -10 1224 -10 q 877 56 957 -10 q 790 243 797 121 l 747 0 l 721 0 l 764 242 q 613 60 714 129 q 381 -10 511 -10 q 157 69 239 -10 q 75 286 75 149 q 83 375 75 329 q 165 580 104 493 q 318 713 226 667 q 517 760 410 760 q 723 690 646 760 q 811 508 800 621 l 854 750 l 881 750 l 838 507 q 991 694 888 628 q 1217 760 1094 760 m 788 375 q 794 454 794 410 q 718 659 794 583 q 513 735 642 735 q 249 638 357 735 q 111 375 140 542 q 103 289 103 329 q 177 88 103 160 q 385 15 251 15 q 567 60 482 15 q 710 187 653 106 q 788 375 768 268 m 1471 388 q 1483 485 1483 442 q 1406 672 1483 608 q 1213 735 1328 735 q 1042 697 1124 735 q 899 581 960 658 q 818 388 839 503 l 1471 388 z "},"ç":{"ha":872,"x_min":75,"x_max":813,"o":"m 513 760 q 734 687 656 760 q 810 496 813 614 l 782 496 q 709 671 783 607 q 508 735 635 735 q 335 695 418 735 q 192 575 253 656 q 111 375 132 494 q 103 288 103 328 q 181 85 103 154 q 381 15 260 15 q 605 80 507 15 q 740 254 703 144 l 768 254 q 628 67 729 139 q 390 -10 528 -6 l 369 -124 q 487 -142 447 -118 q 526 -212 526 -165 q 525 -233 526 -226 q 472 -320 515 -287 q 357 -353 428 -353 l 269 -353 l 274 -325 l 357 -325 q 497 -233 481 -325 q 499 -217 499 -228 q 473 -167 499 -186 q 389 -149 447 -149 l 338 -149 l 363 -10 q 153 73 231 -6 q 75 286 75 151 q 83 375 75 328 q 166 581 104 493 q 318 714 228 668 q 513 760 408 760 z "},"è":{"ha":872,"x_min":75,"x_max":806,"o":"m 513 760 q 674 723 608 760 q 773 626 740 686 q 806 494 806 567 q 800 438 806 476 l 794 410 q 785 363 792 388 l 108 363 q 101 286 101 317 q 181 84 101 153 q 381 15 260 15 q 605 80 507 15 q 740 254 703 144 l 768 254 q 624 63 728 136 q 376 -10 519 -10 q 157 69 239 -10 q 75 286 75 147 q 83 375 75 328 q 166 581 104 493 q 318 714 228 668 q 513 760 408 760 m 767 388 q 779 485 779 442 q 701 672 779 608 q 508 735 624 735 q 338 697 419 735 q 195 581 256 658 q 114 388 135 503 l 767 388 m 629 842 l 625 814 l 397 994 l 403 1028 l 629 842 z "},"é":{"ha":872,"x_min":75,"x_max":806,"o":"m 513 760 q 674 723 608 760 q 773 626 740 686 q 806 494 806 567 q 800 438 806 476 l 794 410 q 785 363 792 388 l 108 363 q 101 286 101 317 q 181 84 101 153 q 381 15 260 15 q 605 80 507 15 q 740 254 703 144 l 768 254 q 624 63 728 136 q 376 -10 519 -10 q 157 69 239 -10 q 75 286 75 147 q 83 375 75 328 q 166 581 104 493 q 318 714 228 668 q 513 760 408 760 m 767 388 q 779 485 779 442 q 701 672 779 608 q 508 735 624 735 q 338 697 419 735 q 195 581 256 658 q 114 388 135 503 l 767 388 m 657 994 l 365 814 l 369 842 l 663 1028 l 657 994 z "},"ê":{"ha":872,"x_min":75,"x_max":806,"o":"m 513 760 q 674 723 608 760 q 773 626 740 686 q 806 494 806 567 q 800 438 806 476 l 794 410 q 785 363 792 388 l 108 363 q 101 286 101 317 q 181 84 101 153 q 381 15 260 15 q 605 80 507 15 q 740 254 703 144 l 768 254 q 624 63 728 136 q 376 -10 519 -10 q 157 69 239 -10 q 75 286 75 147 q 83 375 75 328 q 166 581 104 493 q 318 714 228 668 q 513 760 408 760 m 767 388 q 779 485 779 442 q 701 672 779 608 q 508 735 624 735 q 338 697 419 735 q 195 581 256 658 q 114 388 135 503 l 767 388 m 542 974 l 350 861 l 354 889 l 547 1001 l 697 889 l 693 861 l 542 974 z "},"ë":{"ha":872,"x_min":75,"x_max":806,"o":"m 513 760 q 674 723 608 760 q 773 626 740 686 q 806 494 806 567 q 800 438 806 476 l 794 410 q 785 363 792 388 l 108 363 q 101 286 101 317 q 181 84 101 153 q 381 15 260 15 q 605 80 507 15 q 740 254 703 144 l 768 254 q 624 63 728 136 q 376 -10 519 -10 q 157 69 239 -10 q 75 286 75 147 q 83 375 75 328 q 166 581 104 493 q 318 714 228 668 q 513 760 408 760 m 767 388 q 779 485 779 442 q 701 672 779 608 q 508 735 624 735 q 338 697 419 735 q 195 581 256 658 q 114 388 135 503 l 767 388 m 432 871 q 408 881 417 871 q 399 906 399 890 q 413 940 399 925 q 447 954 428 954 q 470 944 461 954 q 479 919 479 935 q 465 885 479 900 q 432 871 450 871 m 618 871 q 594 881 603 871 q 585 906 585 890 q 599 940 585 925 q 633 954 614 954 q 656 944 647 954 q 665 921 665 935 q 651 886 665 901 q 618 871 636 871 z "},"ì":{"ha":264,"x_min":51,"x_max":325,"o":"m 213 750 l 79 0 l 51 0 l 185 750 l 213 750 m 325 842 l 321 814 l 93 994 l 99 1028 l 325 842 z "},"í":{"ha":264,"x_min":51,"x_max":358,"o":"m 213 750 l 79 0 l 51 0 l 185 750 l 213 750 m 353 994 l 61 814 l 65 842 l 358 1028 l 353 994 z "},"î":{"ha":264,"x_min":46,"x_max":393,"o":"m 213 750 l 79 0 l 51 0 l 185 750 l 213 750 m 238 974 l 46 861 l 50 889 l 243 1001 l 393 889 l 389 861 l 238 974 z "},"ï":{"ha":264,"x_min":51,"x_max":361,"o":"m 213 750 l 79 0 l 51 0 l 185 750 l 213 750 m 128 871 q 103 881 113 871 q 94 906 94 890 q 109 940 94 925 q 143 954 124 954 q 166 944 157 954 q 175 919 175 935 q 160 885 175 900 q 128 871 146 871 m 314 871 q 290 881 299 871 q 281 906 281 890 q 295 940 281 925 q 329 954 310 954 q 352 944 343 954 q 361 921 361 935 q 347 886 361 901 q 314 871 332 871 z "},"ð":{"ha":896,"x_min":78,"x_max":889,"o":"m 885 1004 l 685 936 q 798 756 761 849 q 835 556 835 663 q 822 426 835 496 q 665 101 783 213 q 381 -10 547 -10 q 157 73 236 -10 q 78 297 78 156 q 88 397 78 349 q 167 591 107 507 q 317 721 226 675 q 518 767 408 767 q 722 697 640 767 q 813 488 803 626 q 784 722 818 621 q 661 928 750 824 l 433 850 l 438 875 l 644 946 q 563 1028 608 986 l 593 1028 q 669 954 639 986 l 889 1029 l 885 1004 m 785 375 q 793 460 793 421 q 715 667 793 593 q 514 742 638 742 q 333 701 417 742 q 192 583 249 661 q 115 397 135 506 q 107 301 107 347 q 182 91 107 167 q 385 15 257 15 q 565 58 481 15 q 707 183 649 101 q 785 375 765 264 z "},"ñ":{"ha":853,"x_min":51,"x_max":761,"o":"m 510 767 q 692 706 622 767 q 761 522 761 644 q 753 438 761 483 l 675 0 l 649 0 l 726 440 q 735 521 735 485 q 674 685 735 629 q 506 742 614 742 q 278 657 374 742 q 151 406 182 572 l 79 0 l 51 0 l 185 750 l 213 750 l 178 554 q 312 713 224 658 q 510 767 400 767 m 339 839 q 378 906 351 882 q 439 931 404 931 q 477 922 463 931 q 510 894 492 913 q 542 869 528 878 q 576 861 556 861 q 620 878 600 861 q 649 926 640 896 l 674 926 q 636 863 665 889 q 572 836 607 836 q 531 846 547 836 q 494 874 514 856 q 465 897 479 889 q 433 906 451 906 q 364 839 385 906 l 339 839 z "},"ò":{"ha":899,"x_min":76,"x_max":822,"o":"m 383 -10 q 160 69 244 -10 q 76 288 76 149 q 133 524 76 415 q 291 696 190 632 q 517 760 392 760 q 739 681 656 760 q 822 463 822 601 q 766 226 822 335 q 609 54 710 118 q 383 -10 508 -10 m 388 15 q 600 76 507 15 q 744 240 693 138 q 794 461 794 342 q 715 665 794 596 q 513 735 635 735 q 300 674 393 735 q 156 510 207 613 q 104 290 104 408 q 185 85 104 156 q 388 15 265 15 m 643 851 l 639 824 l 411 1004 l 417 1038 l 643 851 z "},"ó":{"ha":899,"x_min":76,"x_max":822,"o":"m 383 -10 q 160 69 244 -10 q 76 288 76 149 q 133 524 76 415 q 291 696 190 632 q 517 760 392 760 q 739 681 656 760 q 822 463 822 601 q 766 226 822 335 q 609 54 710 118 q 383 -10 508 -10 m 388 15 q 600 76 507 15 q 744 240 693 138 q 794 461 794 342 q 715 665 794 596 q 513 735 635 735 q 300 674 393 735 q 156 510 207 613 q 104 290 104 408 q 185 85 104 156 q 388 15 265 15 m 671 1004 l 379 824 l 383 851 l 676 1038 l 671 1004 z "},"ô":{"ha":899,"x_min":76,"x_max":822,"o":"m 383 -10 q 160 69 244 -10 q 76 288 76 149 q 133 524 76 415 q 291 696 190 632 q 517 760 392 760 q 739 681 656 760 q 822 463 822 601 q 766 226 822 335 q 609 54 710 118 q 383 -10 508 -10 m 388 15 q 600 76 507 15 q 744 240 693 138 q 794 461 794 342 q 715 665 794 596 q 513 735 635 735 q 300 674 393 735 q 156 510 207 613 q 104 290 104 408 q 185 85 104 156 q 388 15 265 15 m 556 983 l 364 871 l 368 899 l 561 1011 l 711 899 l 707 871 l 556 983 z "},"õ":{"ha":899,"x_min":76,"x_max":822,"o":"m 383 -10 q 160 69 244 -10 q 76 288 76 149 q 133 524 76 415 q 291 696 190 632 q 517 760 392 760 q 739 681 656 760 q 822 463 822 601 q 766 226 822 335 q 609 54 710 118 q 383 -10 508 -10 m 388 15 q 600 76 507 15 q 744 240 693 138 q 794 461 794 342 q 715 665 794 596 q 513 735 635 735 q 300 674 393 735 q 156 510 207 613 q 104 290 104 408 q 185 85 104 156 q 388 15 265 15 m 399 849 q 438 916 411 892 q 499 940 464 940 q 537 931 522 940 q 569 904 551 922 q 601 879 588 888 q 636 871 615 871 q 680 888 660 871 q 708 936 700 906 l 733 936 q 696 872 725 899 q 632 846 667 846 q 590 856 607 846 q 554 883 574 865 q 525 907 539 899 q 493 915 511 915 q 424 849 444 915 l 399 849 z "},"ö":{"ha":899,"x_min":76,"x_max":822,"o":"m 383 -10 q 160 69 244 -10 q 76 288 76 149 q 133 524 76 415 q 291 696 190 632 q 517 760 392 760 q 739 681 656 760 q 822 463 822 601 q 766 226 822 335 q 609 54 710 118 q 383 -10 508 -10 m 388 15 q 600 76 507 15 q 744 240 693 138 q 794 461 794 342 q 715 665 794 596 q 513 735 635 735 q 300 674 393 735 q 156 510 207 613 q 104 290 104 408 q 185 85 104 156 q 388 15 265 15 m 446 881 q 422 890 431 881 q 413 915 413 900 q 427 949 413 935 q 461 964 442 964 q 484 954 475 964 q 493 929 493 944 q 478 895 493 910 q 446 881 464 881 m 632 881 q 608 890 617 881 q 599 915 599 900 q 613 949 599 935 q 647 964 628 964 q 670 954 661 964 q 679 931 679 944 q 665 896 679 911 q 632 881 650 881 z "},"÷":{"ha":818,"x_min":81,"x_max":792,"o":"m 461 789 q 439 797 447 789 q 431 818 431 804 q 444 851 431 838 q 475 864 457 864 q 497 856 489 864 q 506 835 506 849 q 492 802 506 815 q 461 789 479 789 m 792 540 l 788 515 l 81 515 l 85 540 l 792 540 m 378 194 q 356 202 364 194 q 347 224 347 210 q 360 256 347 243 q 392 269 374 269 q 414 262 406 269 q 422 240 422 254 q 409 208 422 221 q 378 194 396 194 z "},"ø":{"ha":899,"x_min":29,"x_max":874,"o":"m 765 650 q 822 463 822 575 q 766 226 822 335 q 609 54 710 118 q 383 -10 508 -10 q 249 14 310 -10 q 149 82 189 38 l 60 0 l 29 0 l 135 97 q 76 288 76 172 q 133 524 76 415 q 291 696 190 632 q 517 760 392 760 q 652 736 592 760 q 753 667 713 713 l 843 750 l 874 750 l 765 650 m 104 290 q 156 117 104 186 l 732 647 q 637 713 693 690 q 513 735 581 735 q 300 674 393 735 q 156 510 207 613 q 104 290 104 408 m 794 461 q 744 631 794 565 l 169 101 q 265 37 208 58 q 388 15 321 15 q 600 76 507 15 q 744 240 693 138 q 794 461 794 342 z "},"ù":{"ha":853,"x_min":92,"x_max":801,"o":"m 801 750 l 668 0 l 640 0 l 676 203 q 543 41 632 96 q 344 -14 454 -14 q 161 47 231 -14 q 92 231 92 108 q 100 315 92 269 l 178 750 l 204 750 l 126 313 q 119 233 119 278 q 180 68 119 125 q 349 11 240 11 q 578 98 483 11 q 703 354 674 185 l 703 351 l 774 750 l 801 750 m 621 842 l 617 814 l 389 994 l 394 1028 l 621 842 z "},"ú":{"ha":853,"x_min":92,"x_max":801,"o":"m 801 750 l 668 0 l 640 0 l 676 203 q 543 41 632 96 q 344 -14 454 -14 q 161 47 231 -14 q 92 231 92 108 q 100 315 92 269 l 178 750 l 204 750 l 126 313 q 119 233 119 278 q 180 68 119 125 q 349 11 240 11 q 578 98 483 11 q 703 354 674 185 l 703 351 l 774 750 l 801 750 m 649 994 l 357 814 l 361 842 l 654 1028 l 649 994 z "},"û":{"ha":853,"x_min":92,"x_max":801,"o":"m 801 750 l 668 0 l 640 0 l 676 203 q 543 41 632 96 q 344 -14 454 -14 q 161 47 231 -14 q 92 231 92 108 q 100 315 92 269 l 178 750 l 204 750 l 126 313 q 119 233 119 278 q 180 68 119 125 q 349 11 240 11 q 578 98 483 11 q 703 354 674 185 l 703 351 l 774 750 l 801 750 m 533 974 l 342 861 l 346 889 l 539 1001 l 689 889 l 685 861 l 533 974 z "},"ü":{"ha":853,"x_min":92,"x_max":801,"o":"m 801 750 l 668 0 l 640 0 l 676 203 q 543 41 632 96 q 344 -14 454 -14 q 161 47 231 -14 q 92 231 92 108 q 100 315 92 269 l 178 750 l 204 750 l 126 313 q 119 233 119 278 q 180 68 119 125 q 349 11 240 11 q 578 98 483 11 q 703 354 674 185 l 703 351 l 774 750 l 801 750 m 424 871 q 399 881 408 871 q 390 906 390 890 q 405 940 390 925 q 439 954 419 954 q 462 944 453 954 q 471 919 471 935 q 456 885 471 900 q 424 871 442 871 m 610 871 q 585 881 594 871 q 576 906 576 890 q 591 940 576 925 q 625 954 606 954 q 648 944 639 954 q 657 921 657 935 q 642 886 657 901 q 610 871 628 871 z "},"ý":{"ha":699,"x_min":82,"x_max":738,"o":"m 125 750 l 304 40 l 707 750 l 738 750 l 115 -353 l 82 -353 l 281 -3 l 94 750 l 125 750 m 572 994 l 281 814 l 285 842 l 578 1028 l 572 994 z "},"þ":{"ha":932,"x_min":-10,"x_max":857,"o":"m 168 508 q 319 690 218 621 q 551 760 421 760 q 775 681 693 760 q 857 464 857 601 q 849 375 857 421 q 767 170 828 257 q 614 37 706 83 q 415 -10 522 -10 q 209 60 286 -10 q 121 242 132 129 l 17 -353 l -10 -353 l 233 1028 l 260 1028 l 168 508 m 821 375 q 829 461 829 421 q 755 663 829 590 q 547 735 681 735 q 365 690 450 735 q 222 563 279 644 q 144 375 164 482 q 138 296 138 340 q 214 91 138 167 q 419 15 290 15 q 683 112 575 15 q 821 375 792 208 z "},"ÿ":{"ha":699,"x_min":82,"x_max":738,"o":"m 125 750 l 304 40 l 707 750 l 738 750 l 115 -353 l 82 -353 l 281 -3 l 94 750 l 125 750 m 347 871 q 323 881 332 871 q 314 906 314 890 q 328 940 314 925 q 363 954 343 954 q 385 944 376 954 q 394 919 394 935 q 380 885 394 900 q 347 871 365 871 m 533 871 q 509 881 518 871 q 500 906 500 890 q 515 940 500 925 q 549 954 529 954 q 572 944 563 954 q 581 921 581 935 q 566 886 581 901 q 533 871 551 871 z "},"Ā":{"ha":835,"x_min":-25,"x_max":767,"o":"m 640 269 l 157 269 l 7 0 l -25 0 l 506 949 l 533 949 l 726 0 l 694 0 l 640 269 m 635 294 l 511 904 l 171 294 l 635 294 m 767 1139 l 763 1114 l 333 1114 l 338 1139 l 767 1139 z "},"ā":{"ha":932,"x_min":75,"x_max":881,"o":"m 83 375 q 165 580 104 493 q 318 713 226 667 q 517 760 410 760 q 724 693 646 760 q 814 521 801 626 l 854 750 l 881 750 l 747 0 l 721 0 l 761 229 q 611 58 713 125 q 381 -10 510 -10 q 157 69 239 -10 q 75 286 75 149 q 83 375 75 329 m 788 375 q 794 454 794 410 q 718 659 794 583 q 513 735 642 735 q 249 638 357 735 q 111 375 140 542 q 103 289 103 329 q 177 88 103 160 q 385 15 251 15 q 567 60 482 15 q 710 187 653 106 q 788 375 768 268 m 785 940 l 781 915 l 351 915 l 356 940 l 785 940 z "},"Ă":{"ha":835,"x_min":-25,"x_max":728,"o":"m 640 269 l 157 269 l 7 0 l -25 0 l 506 949 l 533 949 l 726 0 l 694 0 l 640 269 m 635 294 l 511 904 l 171 294 l 635 294 m 726 1199 q 668 1098 717 1142 q 538 1054 619 1054 q 431 1089 465 1054 q 397 1174 397 1124 q 399 1199 397 1190 l 400 1204 l 428 1204 q 425 1176 425 1185 q 456 1104 425 1129 q 542 1079 486 1079 q 649 1112 607 1079 q 700 1204 690 1144 l 728 1204 l 726 1199 z "},"ă":{"ha":932,"x_min":75,"x_max":881,"o":"m 83 375 q 165 580 104 493 q 318 713 226 667 q 517 760 410 760 q 724 693 646 760 q 814 521 801 626 l 854 750 l 881 750 l 747 0 l 721 0 l 761 229 q 611 58 713 125 q 381 -10 510 -10 q 157 69 239 -10 q 75 286 75 149 q 83 375 75 329 m 788 375 q 794 454 794 410 q 718 659 794 583 q 513 735 642 735 q 249 638 357 735 q 111 375 140 542 q 103 289 103 329 q 177 88 103 160 q 385 15 251 15 q 567 60 482 15 q 710 187 653 106 q 788 375 768 268 m 744 1000 q 686 899 735 943 q 556 856 638 856 q 449 890 483 856 q 415 975 415 925 q 417 1000 415 992 l 418 1006 l 446 1006 q 443 978 443 986 q 474 906 443 931 q 560 881 504 881 q 667 913 625 881 q 718 1006 708 946 l 746 1006 l 744 1000 z "},"Ą":{"ha":835,"x_min":-25,"x_max":726,"o":"m 500 -176 q 523 -222 500 -207 q 583 -237 546 -237 q 675 -219 624 -237 l 669 -247 q 581 -264 624 -264 q 501 -244 531 -264 q 472 -182 472 -224 q 508 -92 472 -135 q 618 -18 543 -50 l 692 13 l 640 269 l 157 269 l 7 0 l -25 0 l 506 949 l 533 949 l 726 0 l 619 -46 q 500 -176 500 -96 m 635 294 l 511 904 l 171 294 l 635 294 z "},"ą":{"ha":932,"x_min":75,"x_max":881,"o":"m 640 -46 q 521 -176 521 -96 q 544 -222 521 -207 q 604 -237 567 -237 q 696 -219 644 -237 l 690 -247 q 600 -264 644 -264 q 522 -244 551 -264 q 493 -182 493 -224 q 636 -21 493 -81 l 724 15 l 761 229 q 611 58 713 125 q 381 -10 510 -10 q 157 69 239 -10 q 75 286 75 149 q 83 375 75 329 q 165 580 104 493 q 318 713 226 667 q 517 760 410 760 q 724 693 646 760 q 814 521 801 626 l 854 750 l 881 750 l 747 0 l 640 -46 m 385 15 q 567 60 482 15 q 710 187 653 106 q 788 375 768 268 q 794 454 794 410 q 718 659 794 583 q 513 735 642 735 q 249 638 357 735 q 111 375 140 542 q 103 289 103 329 q 177 88 103 160 q 385 15 251 15 z "},"Ć":{"ha":1068,"x_min":93,"x_max":1040,"o":"m 103 488 q 208 747 129 633 q 401 924 286 860 q 647 988 517 988 q 915 908 818 988 q 1040 689 1013 829 l 1013 689 q 896 888 989 813 q 643 963 803 963 q 417 905 524 963 q 233 740 310 847 q 132 488 157 632 q 122 381 122 435 q 167 185 122 268 q 292 59 213 103 q 475 15 372 15 q 755 90 635 15 q 942 288 875 164 l 969 288 q 767 69 893 147 q 471 -10 642 -10 q 272 39 357 -10 q 140 176 186 88 q 93 379 93 264 q 103 488 93 435 m 826 1193 l 535 1013 l 539 1040 l 832 1226 l 826 1193 z "},"ć":{"ha":872,"x_min":75,"x_max":813,"o":"m 83 375 q 166 581 104 493 q 318 714 228 668 q 513 760 408 760 q 734 687 656 760 q 810 496 813 614 l 782 496 q 709 671 783 607 q 508 735 635 735 q 335 695 418 735 q 192 575 253 656 q 111 375 132 494 q 103 288 103 328 q 181 85 103 154 q 381 15 260 15 q 605 80 507 15 q 740 254 703 144 l 768 254 q 624 63 728 136 q 376 -10 519 -10 q 157 69 239 -10 q 75 286 75 147 q 83 375 75 328 m 661 994 l 369 814 l 374 842 l 667 1028 l 661 994 z "},"Ċ":{"ha":1068,"x_min":93,"x_max":1040,"o":"m 103 488 q 208 747 129 633 q 401 924 286 860 q 647 988 517 988 q 915 908 818 988 q 1040 689 1013 829 l 1013 689 q 896 888 989 813 q 643 963 803 963 q 417 905 524 963 q 233 740 310 847 q 132 488 157 632 q 122 381 122 435 q 167 185 122 268 q 292 59 213 103 q 475 15 372 15 q 755 90 635 15 q 942 288 875 164 l 969 288 q 767 69 893 147 q 471 -10 642 -10 q 272 39 357 -10 q 140 176 186 88 q 93 379 93 264 q 103 488 93 435 m 688 1039 q 663 1049 674 1039 q 653 1074 653 1060 q 668 1107 653 1092 q 703 1122 683 1122 q 726 1113 717 1122 q 736 1088 736 1103 q 722 1054 736 1069 q 688 1039 707 1039 z "},"ċ":{"ha":872,"x_min":75,"x_max":813,"o":"m 83 375 q 166 581 104 493 q 318 714 228 668 q 513 760 408 760 q 734 687 656 760 q 810 496 813 614 l 782 496 q 709 671 783 607 q 508 735 635 735 q 335 695 418 735 q 192 575 253 656 q 111 375 132 494 q 103 288 103 328 q 181 85 103 154 q 381 15 260 15 q 605 80 507 15 q 740 254 703 144 l 768 254 q 624 63 728 136 q 376 -10 519 -10 q 157 69 239 -10 q 75 286 75 147 q 83 375 75 328 m 522 840 q 498 851 508 840 q 488 875 488 861 q 503 908 488 893 q 538 924 518 924 q 561 914 551 924 q 571 889 571 904 q 556 856 571 871 q 522 840 542 840 z "},"Č":{"ha":1068,"x_min":93,"x_max":1040,"o":"m 103 488 q 208 747 129 633 q 401 924 286 860 q 647 988 517 988 q 915 908 818 988 q 1040 689 1013 829 l 1013 689 q 896 888 989 813 q 643 963 803 963 q 417 905 524 963 q 233 740 310 847 q 132 488 157 632 q 122 381 122 435 q 167 185 122 268 q 292 59 213 103 q 475 15 372 15 q 755 90 635 15 q 942 288 875 164 l 969 288 q 767 69 893 147 q 471 -10 642 -10 q 272 39 357 -10 q 140 176 186 88 q 93 379 93 264 q 103 488 93 435 m 881 1168 l 690 1056 l 538 1168 l 543 1196 l 696 1083 l 886 1196 l 881 1168 z "},"č":{"ha":872,"x_min":75,"x_max":813,"o":"m 83 375 q 166 581 104 493 q 318 714 228 668 q 513 760 408 760 q 734 687 656 760 q 810 496 813 614 l 782 496 q 709 671 783 607 q 508 735 635 735 q 335 695 418 735 q 192 575 253 656 q 111 375 132 494 q 103 288 103 328 q 181 85 103 154 q 381 15 260 15 q 605 80 507 15 q 740 254 703 144 l 768 254 q 624 63 728 136 q 376 -10 519 -10 q 157 69 239 -10 q 75 286 75 147 q 83 375 75 328 m 715 969 l 525 857 l 372 969 l 378 997 l 531 885 l 721 997 l 715 969 z "},"Ď":{"ha":975,"x_min":51,"x_max":922,"o":"m 482 978 q 811 883 700 978 q 922 610 922 788 q 911 489 922 546 q 715 128 869 256 q 308 0 561 0 l 51 0 l 225 978 l 482 978 m 314 25 q 700 147 556 25 q 883 489 844 269 q 894 603 894 553 q 789 861 894 769 q 476 953 683 953 l 247 953 l 85 25 l 314 25 m 782 1168 l 592 1056 l 439 1168 l 444 1196 l 597 1083 l 788 1196 l 782 1168 z "},"ď":{"ha":932,"x_min":75,"x_max":1085,"o":"m 83 375 q 165 580 104 493 q 318 713 226 667 q 517 760 410 760 q 724 693 646 760 q 814 521 801 626 l 903 1028 l 929 1028 l 747 0 l 721 0 l 763 231 q 612 58 714 125 q 381 -10 510 -10 q 157 69 239 -10 q 75 286 75 149 q 83 375 75 329 m 1085 1028 q 1074 932 1082 978 q 1035 847 1063 871 q 961 824 1007 824 l 965 851 q 1017 867 1000 851 q 1039 914 1033 882 l 1047 954 l 994 954 l 1007 1028 l 1085 1028 m 788 375 q 794 454 794 410 q 718 659 794 583 q 513 735 642 735 q 249 638 357 735 q 111 375 140 542 q 103 289 103 329 q 177 88 103 160 q 385 15 251 15 q 567 60 482 15 q 710 187 653 106 q 788 375 768 268 z "},"Đ":{"ha":1031,"x_min":32,"x_max":978,"o":"m 538 978 q 867 883 756 978 q 978 610 978 788 q 967 489 978 546 q 771 128 925 256 q 364 0 617 0 l 107 0 l 192 476 l 32 476 l 36 501 l 196 501 l 281 978 l 538 978 m 939 489 q 950 603 950 553 q 844 861 950 769 q 532 953 739 953 l 303 953 l 224 501 l 547 501 l 543 476 l 219 476 l 140 25 l 369 25 q 756 147 611 25 q 939 489 900 269 z "},"đ":{"ha":922,"x_min":75,"x_max":1006,"o":"m 1001 903 l 907 903 l 747 0 l 721 0 l 763 231 q 612 58 714 125 q 381 -10 510 -10 q 157 69 239 -10 q 75 286 75 149 q 83 375 75 329 q 165 580 104 493 q 318 713 226 667 q 517 760 410 760 q 724 693 646 760 q 814 521 801 626 l 881 903 l 596 903 l 600 928 l 885 928 l 903 1028 l 929 1028 l 911 928 l 1006 928 l 1001 903 m 788 375 q 794 454 794 410 q 718 659 794 583 q 513 735 642 735 q 249 638 357 735 q 111 375 140 542 q 103 289 103 329 q 177 88 103 160 q 385 15 251 15 q 567 60 482 15 q 710 187 653 106 q 788 375 768 268 z "},"Ē":{"ha":665,"x_min":51,"x_max":703,"o":"m 247 953 l 168 501 l 576 501 l 572 476 l 164 476 l 85 25 l 535 25 l 529 0 l 51 0 l 225 978 l 703 978 l 697 953 l 247 953 m 672 1139 l 668 1114 l 239 1114 l 243 1139 l 672 1139 z "},"ē":{"ha":872,"x_min":75,"x_max":806,"o":"m 513 760 q 674 723 608 760 q 773 626 740 686 q 806 494 806 567 q 800 438 806 476 l 794 410 q 785 363 792 388 l 108 363 q 101 286 101 317 q 181 84 101 153 q 381 15 260 15 q 605 80 507 15 q 740 254 703 144 l 768 254 q 624 63 728 136 q 376 -10 519 -10 q 157 69 239 -10 q 75 286 75 147 q 83 375 75 328 q 166 581 104 493 q 318 714 228 668 q 513 760 408 760 m 767 388 q 779 485 779 442 q 701 672 779 608 q 508 735 624 735 q 338 697 419 735 q 195 581 256 658 q 114 388 135 503 l 767 388 m 750 940 l 746 915 l 317 915 l 321 940 l 750 940 z "},"Ĕ":{"ha":665,"x_min":51,"x_max":703,"o":"m 247 953 l 168 501 l 576 501 l 572 476 l 164 476 l 85 25 l 535 25 l 529 0 l 51 0 l 225 978 l 703 978 l 697 953 l 247 953 m 632 1199 q 574 1098 622 1142 q 443 1054 525 1054 q 337 1089 371 1054 q 303 1174 303 1124 q 304 1199 303 1190 l 306 1204 l 333 1204 q 331 1176 331 1185 q 361 1104 331 1129 q 447 1079 392 1079 q 554 1112 513 1079 q 606 1204 596 1144 l 633 1204 l 632 1199 z "},"ĕ":{"ha":872,"x_min":75,"x_max":806,"o":"m 513 760 q 674 723 608 760 q 773 626 740 686 q 806 494 806 567 q 800 438 806 476 l 794 410 q 785 363 792 388 l 108 363 q 101 286 101 317 q 181 84 101 153 q 381 15 260 15 q 605 80 507 15 q 740 254 703 144 l 768 254 q 624 63 728 136 q 376 -10 519 -10 q 157 69 239 -10 q 75 286 75 147 q 83 375 75 328 q 166 581 104 493 q 318 714 228 668 q 513 760 408 760 m 767 388 q 779 485 779 442 q 701 672 779 608 q 508 735 624 735 q 338 697 419 735 q 195 581 256 658 q 114 388 135 503 l 767 388 m 710 1000 q 651 899 700 943 q 521 856 603 856 q 415 890 449 856 q 381 975 381 925 q 382 1000 381 992 l 383 1006 l 411 1006 q 408 978 408 986 q 439 906 408 931 q 525 881 469 881 q 632 913 590 881 q 683 1006 674 946 l 711 1006 l 710 1000 z "},"Ė":{"ha":665,"x_min":51,"x_max":703,"o":"m 247 953 l 168 501 l 576 501 l 572 476 l 164 476 l 85 25 l 535 25 l 529 0 l 51 0 l 225 978 l 703 978 l 697 953 l 247 953 m 440 1039 q 416 1049 426 1039 q 406 1074 406 1060 q 421 1107 406 1092 q 456 1122 436 1122 q 479 1113 469 1122 q 489 1088 489 1103 q 474 1054 489 1069 q 440 1039 460 1039 z "},"ė":{"ha":872,"x_min":75,"x_max":806,"o":"m 513 760 q 674 723 608 760 q 773 626 740 686 q 806 494 806 567 q 800 438 806 476 l 794 410 q 785 363 792 388 l 108 363 q 101 286 101 317 q 181 84 101 153 q 381 15 260 15 q 605 80 507 15 q 740 254 703 144 l 768 254 q 624 63 728 136 q 376 -10 519 -10 q 157 69 239 -10 q 75 286 75 147 q 83 375 75 328 q 166 581 104 493 q 318 714 228 668 q 513 760 408 760 m 767 388 q 779 485 779 442 q 701 672 779 608 q 508 735 624 735 q 338 697 419 735 q 195 581 256 658 q 114 388 135 503 l 767 388 m 518 840 q 494 851 504 840 q 483 875 483 861 q 499 908 483 893 q 533 924 514 924 q 557 914 547 924 q 567 889 567 904 q 552 856 567 871 q 518 840 538 840 z "},"Ę":{"ha":665,"x_min":51,"x_max":703,"o":"m 247 953 l 168 501 l 576 501 l 572 476 l 164 476 l 85 25 l 535 25 l 529 0 l 422 -46 q 303 -176 303 -96 q 326 -222 303 -207 q 386 -237 349 -237 q 478 -219 426 -237 l 472 -247 q 382 -264 426 -264 q 304 -244 333 -264 q 275 -182 275 -224 q 418 -21 275 -81 l 468 0 l 51 0 l 225 978 l 703 978 l 697 953 l 247 953 z "},"ę":{"ha":872,"x_min":75,"x_max":806,"o":"m 513 760 q 674 723 608 760 q 773 626 740 686 q 806 494 806 567 q 800 438 806 476 l 794 410 q 785 363 792 388 l 108 363 q 101 286 101 317 q 181 84 101 153 q 381 15 260 15 q 605 80 507 15 q 740 254 703 144 l 768 254 q 678 108 740 171 q 528 15 615 46 l 425 -29 q 306 -160 306 -79 q 328 -206 306 -190 q 389 -221 351 -221 q 481 -203 429 -221 l 475 -231 q 385 -247 429 -247 q 307 -227 336 -247 q 278 -165 278 -207 q 279 -144 278 -151 q 411 -8 294 -61 q 376 -10 400 -10 q 157 69 239 -10 q 75 286 75 147 q 83 375 75 328 q 166 581 104 493 q 318 714 228 668 q 513 760 408 760 m 767 388 q 779 485 779 442 q 701 672 779 608 q 508 735 624 735 q 338 697 419 735 q 195 581 256 658 q 114 388 135 503 l 767 388 z "},"Ě":{"ha":665,"x_min":51,"x_max":703,"o":"m 247 953 l 168 501 l 576 501 l 572 476 l 164 476 l 85 25 l 535 25 l 529 0 l 51 0 l 225 978 l 703 978 l 697 953 l 247 953 m 633 1168 l 443 1056 l 290 1168 l 296 1196 l 449 1083 l 639 1196 l 633 1168 z "},"ě":{"ha":872,"x_min":75,"x_max":806,"o":"m 513 760 q 674 723 608 760 q 773 626 740 686 q 806 494 806 567 q 800 438 806 476 l 794 410 q 785 363 792 388 l 108 363 q 101 286 101 317 q 181 84 101 153 q 381 15 260 15 q 605 80 507 15 q 740 254 703 144 l 768 254 q 624 63 728 136 q 376 -10 519 -10 q 157 69 239 -10 q 75 286 75 147 q 83 375 75 328 q 166 581 104 493 q 318 714 228 668 q 513 760 408 760 m 767 388 q 779 485 779 442 q 701 672 779 608 q 508 735 624 735 q 338 697 419 735 q 195 581 256 658 q 114 388 135 503 l 767 388 m 711 969 l 521 857 l 368 969 l 374 997 l 526 885 l 717 997 l 711 969 z "},"Ğ":{"ha":1100,"x_min":93,"x_max":1040,"o":"m 103 488 q 208 746 128 632 q 406 923 288 860 q 658 986 524 986 q 914 906 815 986 q 1040 688 1013 826 l 1013 688 q 895 885 990 810 q 653 961 800 961 q 421 903 531 961 q 235 738 311 846 q 132 488 158 631 q 122 382 122 438 q 169 186 122 269 q 297 58 215 103 q 486 14 379 14 q 715 69 606 14 q 902 230 824 125 q 1008 474 981 335 l 547 474 l 551 499 l 1039 499 l 1036 488 q 931 229 1011 343 q 734 52 851 115 q 482 -11 617 -11 q 277 38 365 -11 q 141 175 189 86 q 93 381 93 264 q 103 488 93 435 m 879 1199 q 821 1098 869 1142 q 690 1054 772 1054 q 584 1089 618 1054 q 550 1174 550 1124 q 551 1199 550 1190 l 553 1204 l 581 1204 q 578 1176 578 1185 q 608 1104 578 1129 q 694 1079 639 1079 q 801 1112 760 1079 q 853 1204 843 1144 l 881 1204 l 879 1199 z "},"ğ":{"ha":932,"x_min":46,"x_max":881,"o":"m 517 760 q 724 693 646 760 q 814 524 801 626 l 854 750 l 881 750 l 743 -28 q 665 -209 725 -132 q 523 -326 606 -286 q 351 -367 440 -367 q 138 -301 217 -367 q 46 -122 60 -235 l 74 -122 q 158 -283 86 -224 q 356 -342 229 -342 q 518 -303 442 -342 q 647 -193 594 -264 q 717 -28 700 -122 l 761 228 q 611 57 713 124 q 381 -10 510 -10 q 157 69 239 -10 q 75 286 75 149 q 83 375 75 329 q 165 580 104 493 q 318 713 226 667 q 517 760 410 760 m 788 375 q 794 454 794 410 q 718 659 794 583 q 513 735 642 735 q 249 638 357 735 q 111 375 140 542 q 103 289 103 329 q 177 88 103 160 q 385 15 251 15 q 567 60 482 15 q 710 187 653 106 q 788 375 768 268 m 744 1000 q 686 899 735 943 q 556 856 638 856 q 449 890 483 856 q 415 975 415 925 q 417 1000 415 992 l 418 1006 l 446 1006 q 443 978 443 986 q 474 906 443 931 q 560 881 504 881 q 667 913 625 881 q 718 1006 708 946 l 746 1006 l 744 1000 z "},"Ġ":{"ha":1100,"x_min":93,"x_max":1040,"o":"m 103 488 q 208 746 128 632 q 406 923 288 860 q 658 986 524 986 q 914 906 815 986 q 1040 688 1013 826 l 1013 688 q 895 885 990 810 q 653 961 800 961 q 421 903 531 961 q 235 738 311 846 q 132 488 158 631 q 122 382 122 438 q 169 186 122 269 q 297 58 215 103 q 486 14 379 14 q 715 69 606 14 q 902 230 824 125 q 1008 474 981 335 l 547 474 l 551 499 l 1039 499 l 1036 488 q 931 229 1011 343 q 734 52 851 115 q 482 -11 617 -11 q 277 38 365 -11 q 141 175 189 86 q 93 381 93 264 q 103 488 93 435 m 688 1039 q 663 1049 674 1039 q 653 1074 653 1060 q 668 1107 653 1092 q 703 1122 683 1122 q 726 1113 717 1122 q 736 1088 736 1103 q 722 1054 736 1069 q 688 1039 707 1039 z "},"ġ":{"ha":932,"x_min":46,"x_max":881,"o":"m 517 760 q 724 693 646 760 q 814 524 801 626 l 854 750 l 881 750 l 743 -28 q 665 -209 725 -132 q 523 -326 606 -286 q 351 -367 440 -367 q 138 -301 217 -367 q 46 -122 60 -235 l 74 -122 q 158 -283 86 -224 q 356 -342 229 -342 q 518 -303 442 -342 q 647 -193 594 -264 q 717 -28 700 -122 l 761 228 q 611 57 713 124 q 381 -10 510 -10 q 157 69 239 -10 q 75 286 75 149 q 83 375 75 329 q 165 580 104 493 q 318 713 226 667 q 517 760 410 760 m 788 375 q 794 454 794 410 q 718 659 794 583 q 513 735 642 735 q 249 638 357 735 q 111 375 140 542 q 103 289 103 329 q 177 88 103 160 q 385 15 251 15 q 567 60 482 15 q 710 187 653 106 q 788 375 768 268 m 553 840 q 528 851 539 840 q 518 875 518 861 q 533 908 518 893 q 568 924 549 924 q 592 914 582 924 q 601 889 601 904 q 587 856 601 871 q 553 840 572 840 z "},"Ģ":{"ha":1100,"x_min":93,"x_max":1040,"o":"m 103 488 q 208 746 128 632 q 406 923 288 860 q 658 986 524 986 q 914 906 815 986 q 1040 688 1013 826 l 1013 688 q 895 885 990 810 q 653 961 800 961 q 421 903 531 961 q 235 738 311 846 q 132 488 158 631 q 122 382 122 438 q 169 186 122 269 q 297 58 215 103 q 486 14 379 14 q 715 69 606 14 q 902 230 824 125 q 1008 474 981 335 l 547 474 l 551 499 l 1039 499 l 1036 488 q 931 229 1011 343 q 734 52 851 115 q 482 -11 617 -11 q 277 38 365 -11 q 141 175 189 86 q 93 381 93 264 q 103 488 93 435 m 510 -125 q 469 -219 497 -193 q 397 -244 440 -244 l 403 -219 q 451 -200 435 -219 q 475 -144 468 -181 l 476 -135 l 433 -135 l 443 -82 l 514 -82 l 510 -125 z "},"ģ":{"ha":932,"x_min":46,"x_max":881,"o":"m 488 824 q 499 919 490 874 q 538 1004 510 981 q 611 1028 565 1028 l 606 1000 q 555 985 571 1000 q 532 938 539 969 l 525 897 l 578 897 l 565 824 l 488 824 m 517 760 q 724 693 646 760 q 814 524 801 626 l 854 750 l 881 750 l 743 -28 q 665 -209 725 -132 q 523 -326 606 -286 q 351 -367 440 -367 q 138 -301 217 -367 q 46 -122 60 -235 l 74 -122 q 158 -283 86 -224 q 356 -342 229 -342 q 518 -303 442 -342 q 647 -193 594 -264 q 717 -28 700 -122 l 761 228 q 611 57 713 124 q 381 -10 510 -10 q 157 69 239 -10 q 75 286 75 149 q 83 375 75 329 q 165 580 104 493 q 318 713 226 667 q 517 760 410 760 m 788 375 q 794 454 794 410 q 718 659 794 583 q 513 735 642 735 q 249 638 357 735 q 111 375 140 542 q 103 289 103 329 q 177 88 103 160 q 385 15 251 15 q 567 60 482 15 q 710 187 653 106 q 788 375 768 268 z "},"Ĩ":{"ha":264,"x_min":51,"x_max":450,"o":"m 253 978 l 79 0 l 51 0 l 225 978 l 253 978 m 115 1038 q 154 1105 128 1081 q 215 1129 181 1129 q 253 1120 239 1129 q 286 1093 268 1111 q 318 1068 304 1076 q 353 1060 332 1060 q 397 1077 376 1060 q 425 1125 417 1094 l 450 1125 q 413 1061 442 1088 q 349 1035 383 1035 q 307 1044 324 1035 q 271 1072 290 1054 q 242 1096 256 1088 q 210 1104 228 1104 q 140 1038 161 1104 l 115 1038 z "},"ĩ":{"ha":264,"x_min":51,"x_max":415,"o":"m 213 750 l 79 0 l 51 0 l 185 750 l 213 750 m 81 839 q 119 906 93 882 q 181 931 146 931 q 219 922 204 931 q 251 894 233 913 q 283 869 269 878 q 318 861 297 861 q 362 878 342 861 q 390 926 382 896 l 415 926 q 378 863 407 889 q 314 836 349 836 q 272 846 289 836 q 236 874 256 856 q 207 897 221 889 q 175 906 193 906 q 106 839 126 906 l 81 839 z "},"Ī":{"ha":264,"x_min":47,"x_max":481,"o":"m 253 978 l 79 0 l 51 0 l 225 978 l 253 978 m 481 1139 l 476 1114 l 47 1114 l 51 1139 l 481 1139 z "},"ī":{"ha":264,"x_min":13,"x_max":446,"o":"m 213 750 l 79 0 l 51 0 l 185 750 l 213 750 m 446 940 l 442 915 l 13 915 l 17 940 l 446 940 z "},"Ĭ":{"ha":264,"x_min":51,"x_max":442,"o":"m 253 978 l 79 0 l 51 0 l 225 978 l 253 978 m 440 1199 q 382 1098 431 1142 q 251 1054 333 1054 q 145 1089 179 1054 q 111 1174 111 1124 q 113 1199 111 1190 l 114 1204 l 142 1204 q 139 1176 139 1185 q 169 1104 139 1129 q 256 1079 200 1079 q 363 1112 321 1079 q 414 1204 404 1144 l 442 1204 l 440 1199 z "},"ĭ":{"ha":264,"x_min":51,"x_max":407,"o":"m 213 750 l 79 0 l 51 0 l 185 750 l 213 750 m 406 1000 q 347 899 396 943 q 217 856 299 856 q 110 890 144 856 q 76 975 76 925 q 78 1000 76 992 l 79 1006 l 107 1006 q 104 978 104 986 q 135 906 104 931 q 221 881 165 881 q 328 913 286 881 q 379 1006 369 946 l 407 1006 l 406 1000 z "},"Į":{"ha":264,"x_min":-175,"x_max":253,"o":"m -28 -46 q -147 -176 -147 -96 q -124 -222 -147 -207 q -64 -237 -101 -237 q 28 -219 -24 -237 l 22 -247 q -68 -264 -24 -264 q -146 -244 -117 -264 q -175 -182 -175 -224 q -32 -21 -175 -81 l 54 15 l 225 978 l 253 978 l 79 0 l -28 -46 z "},"į":{"ha":264,"x_min":-175,"x_max":275,"o":"m 244 1017 q 266 1008 257 1017 q 275 986 275 1000 q 262 954 275 967 q 232 942 249 942 q 210 950 219 942 q 201 971 201 958 q 214 1004 201 992 q 244 1017 226 1017 m 185 750 l 213 750 l 79 0 l -28 -46 q -147 -176 -147 -96 q -124 -222 -147 -207 q -64 -237 -101 -237 q 28 -219 -24 -237 l 22 -247 q -68 -264 -24 -264 q -146 -244 -117 -264 q -175 -182 -175 -224 q -32 -21 -175 -81 l 54 15 l 185 750 z "},"İ":{"ha":264,"x_min":51,"x_max":297,"o":"m 253 978 l 79 0 l 51 0 l 225 978 l 253 978 m 249 1039 q 224 1049 235 1039 q 214 1074 214 1060 q 229 1107 214 1092 q 264 1122 244 1122 q 288 1113 278 1122 q 297 1088 297 1103 q 283 1054 297 1069 q 249 1039 268 1039 z "},"ı":{"ha":264,"x_min":51,"x_max":213,"o":"m 213 750 l 79 0 l 51 0 l 185 750 l 213 750 z "},"Ķ":{"ha":686,"x_min":51,"x_max":765,"o":"m 183 489 l 592 0 l 554 0 l 163 467 l 79 0 l 51 0 l 225 978 l 253 978 l 169 508 l 728 978 l 765 978 l 183 489 m 221 -82 l 292 -82 l 288 -125 q 247 -219 275 -193 q 175 -244 218 -244 l 181 -219 q 229 -200 213 -219 q 253 -144 246 -181 l 254 -135 l 211 -135 l 221 -82 z "},"ķ":{"ha":549,"x_min":51,"x_max":592,"o":"m 157 378 l 464 0 l 425 0 l 142 351 l 79 0 l 51 0 l 233 1028 l 261 1028 l 151 407 l 551 750 l 592 750 l 157 378 m 165 -82 l 236 -82 l 232 -125 q 191 -219 219 -193 q 119 -244 163 -244 l 125 -219 q 174 -200 157 -219 q 197 -144 190 -181 l 199 -135 l 156 -135 l 165 -82 z "},"Ĺ":{"ha":549,"x_min":51,"x_max":542,"o":"m 85 25 l 460 25 l 454 0 l 51 0 l 225 978 l 253 978 l 85 25 m 536 1193 l 244 1013 l 249 1040 l 542 1226 l 536 1193 z "},"ĺ":{"ha":264,"x_min":51,"x_max":407,"o":"m 261 1028 l 79 0 l 51 0 l 233 1028 l 261 1028 m 401 1272 l 110 1092 l 114 1119 l 407 1306 l 401 1272 z "},"Ļ":{"ha":549,"x_min":51,"x_max":460,"o":"m 85 25 l 460 25 l 454 0 l 51 0 l 225 978 l 253 978 l 85 25 m 274 -125 q 233 -219 261 -193 q 161 -244 204 -244 l 167 -219 q 215 -200 199 -219 q 239 -144 232 -181 l 240 -135 l 197 -135 l 207 -82 l 278 -82 l 274 -125 z "},"ļ":{"ha":264,"x_min":-33,"x_max":261,"o":"m 261 1028 l 79 0 l 51 0 l 233 1028 l 261 1028 m 79 -125 q 38 -219 67 -193 q -33 -244 10 -244 l -28 -219 q 21 -200 4 -219 q 44 -144 38 -181 l 46 -135 l 3 -135 l 13 -82 l 83 -82 l 79 -125 z "},"Ľ":{"ha":549,"x_min":51,"x_max":507,"o":"m 85 25 l 460 25 l 454 0 l 51 0 l 225 978 l 253 978 l 85 25 m 507 978 q 494 882 499 904 q 456 797 483 821 q 383 774 429 774 l 388 801 q 439 817 422 801 q 461 864 456 832 l 468 904 l 415 904 l 429 978 l 507 978 z "},"ľ":{"ha":264,"x_min":51,"x_max":418,"o":"m 261 1028 l 79 0 l 51 0 l 233 1028 l 261 1028 m 418 1028 q 407 932 415 978 q 368 847 396 871 q 294 824 340 824 l 299 851 q 350 867 333 851 q 372 914 367 882 l 381 954 l 328 954 l 340 1028 l 418 1028 z "},"Ŀ":{"ha":549,"x_min":51,"x_max":474,"o":"m 225 978 l 253 978 l 85 25 l 460 25 l 454 0 l 51 0 l 225 978 m 425 428 q 401 438 411 428 q 390 463 390 449 q 406 496 390 481 q 440 511 421 511 q 464 501 454 511 q 474 476 474 492 q 459 443 474 458 q 425 428 444 428 z "},"ŀ":{"ha":314,"x_min":51,"x_max":357,"o":"m 233 1028 l 261 1028 l 79 0 l 51 0 l 233 1028 m 307 467 q 283 477 292 467 q 274 503 274 488 q 289 535 274 521 q 322 550 304 550 q 347 540 338 550 q 357 515 357 531 q 342 482 357 497 q 307 467 326 467 z "},"Ł":{"ha":576,"x_min":24,"x_max":488,"o":"m 488 25 l 482 0 l 79 0 l 167 496 l 24 433 l 29 464 l 172 526 l 253 978 l 281 978 l 203 540 l 444 644 l 439 614 l 197 510 l 113 25 l 488 25 z "},"ł":{"ha":292,"x_min":51,"x_max":346,"o":"m 342 738 l 211 669 l 93 0 l 65 0 l 181 654 l 51 586 l 56 613 l 186 681 l 247 1028 l 275 1028 l 217 696 l 346 764 l 342 738 z "},"Ń":{"ha":899,"x_min":51,"x_max":886,"o":"m 714 0 l 686 0 l 243 926 l 79 0 l 51 0 l 224 976 l 251 976 l 696 51 l 858 976 l 886 976 l 714 0 m 706 1193 l 414 1013 l 418 1040 l 711 1226 l 706 1193 z "},"ń":{"ha":853,"x_min":51,"x_max":761,"o":"m 510 767 q 692 706 622 767 q 761 522 761 644 q 753 438 761 483 l 675 0 l 649 0 l 726 440 q 735 521 735 485 q 674 685 735 629 q 506 742 614 742 q 278 657 374 742 q 151 406 182 572 l 79 0 l 51 0 l 185 750 l 213 750 l 178 554 q 312 713 224 658 q 510 767 400 767 m 611 994 l 319 814 l 324 842 l 617 1028 l 611 994 z "},"Ņ":{"ha":899,"x_min":51,"x_max":886,"o":"m 714 0 l 686 0 l 243 926 l 79 0 l 51 0 l 224 976 l 251 976 l 696 51 l 858 976 l 886 976 l 714 0 m 399 -125 q 358 -219 386 -193 q 286 -244 329 -244 l 292 -219 q 340 -200 324 -219 q 364 -144 357 -181 l 365 -135 l 322 -135 l 332 -82 l 403 -82 l 399 -125 z "},"ņ":{"ha":853,"x_min":51,"x_max":761,"o":"m 510 767 q 692 706 622 767 q 761 522 761 644 q 753 438 761 483 l 675 0 l 649 0 l 726 440 q 735 521 735 485 q 674 685 735 629 q 506 742 614 742 q 278 657 374 742 q 151 406 182 572 l 79 0 l 51 0 l 185 750 l 213 750 l 178 554 q 312 713 224 658 q 510 767 400 767 m 318 -82 l 389 -82 l 385 -125 q 344 -219 372 -193 q 272 -244 315 -244 l 278 -219 q 326 -200 310 -219 q 350 -144 343 -181 l 351 -135 l 308 -135 l 318 -82 z "},"Ň":{"ha":899,"x_min":51,"x_max":886,"o":"m 714 0 l 686 0 l 243 926 l 79 0 l 51 0 l 224 976 l 251 976 l 696 51 l 858 976 l 886 976 l 714 0 m 760 1168 l 569 1056 l 417 1168 l 422 1196 l 575 1083 l 765 1196 l 760 1168 z "},"ň":{"ha":853,"x_min":51,"x_max":761,"o":"m 510 767 q 692 706 622 767 q 761 522 761 644 q 753 438 761 483 l 675 0 l 649 0 l 726 440 q 735 521 735 485 q 674 685 735 629 q 506 742 614 742 q 278 657 374 742 q 151 406 182 572 l 79 0 l 51 0 l 185 750 l 213 750 l 178 554 q 312 713 224 658 q 510 767 400 767 m 665 969 l 475 857 l 322 969 l 328 997 l 481 885 l 671 997 l 665 969 z "},"Ō":{"ha":1100,"x_min":93,"x_max":1046,"o":"m 482 -11 q 277 38 365 -11 q 141 175 189 86 q 93 381 93 264 q 168 680 93 540 q 372 903 243 819 q 658 986 501 986 q 863 938 775 986 q 999 800 951 889 q 1046 594 1046 711 q 972 295 1046 435 q 767 72 897 156 q 482 -11 638 -11 m 486 14 q 756 94 635 14 q 947 307 878 174 q 1017 594 1017 440 q 970 790 1017 707 q 842 917 924 874 q 653 961 760 961 q 381 881 503 961 q 191 667 260 800 q 122 382 122 533 q 169 186 122 269 q 297 58 215 103 q 486 14 379 14 m 914 1139 l 910 1114 l 481 1114 l 485 1139 l 914 1139 z "},"ō":{"ha":899,"x_min":76,"x_max":822,"o":"m 383 -10 q 160 69 244 -10 q 76 288 76 149 q 133 524 76 415 q 291 696 190 632 q 517 760 392 760 q 739 681 656 760 q 822 463 822 601 q 766 226 822 335 q 609 54 710 118 q 383 -10 508 -10 m 388 15 q 600 76 507 15 q 744 240 693 138 q 794 461 794 342 q 715 665 794 596 q 513 735 635 735 q 300 674 393 735 q 156 510 207 613 q 104 290 104 408 q 185 85 104 156 q 388 15 265 15 m 764 950 l 760 925 l 331 925 l 335 950 l 764 950 z "},"Ŏ":{"ha":1100,"x_min":93,"x_max":1046,"o":"m 482 -11 q 277 38 365 -11 q 141 175 189 86 q 93 381 93 264 q 168 680 93 540 q 372 903 243 819 q 658 986 501 986 q 863 938 775 986 q 999 800 951 889 q 1046 594 1046 711 q 972 295 1046 435 q 767 72 897 156 q 482 -11 638 -11 m 486 14 q 756 94 635 14 q 947 307 878 174 q 1017 594 1017 440 q 970 790 1017 707 q 842 917 924 874 q 653 961 760 961 q 381 881 503 961 q 191 667 260 800 q 122 382 122 533 q 169 186 122 269 q 297 58 215 103 q 486 14 379 14 m 874 1199 q 815 1098 864 1142 q 685 1054 767 1054 q 578 1089 613 1054 q 544 1174 544 1124 q 546 1199 544 1190 l 547 1204 l 575 1204 q 572 1176 572 1185 q 603 1104 572 1129 q 689 1079 633 1079 q 796 1112 754 1079 q 847 1204 838 1144 l 875 1204 l 874 1199 z "},"ŏ":{"ha":899,"x_min":76,"x_max":822,"o":"m 383 -10 q 160 69 244 -10 q 76 288 76 149 q 133 524 76 415 q 291 696 190 632 q 517 760 392 760 q 739 681 656 760 q 822 463 822 601 q 766 226 822 335 q 609 54 710 118 q 383 -10 508 -10 m 388 15 q 600 76 507 15 q 744 240 693 138 q 794 461 794 342 q 715 665 794 596 q 513 735 635 735 q 300 674 393 735 q 156 510 207 613 q 104 290 104 408 q 185 85 104 156 q 388 15 265 15 m 724 1010 q 665 909 714 953 q 535 865 617 865 q 428 900 463 865 q 394 985 394 935 q 396 1010 394 1001 l 397 1015 l 425 1015 q 422 988 422 996 q 453 915 422 940 q 539 890 483 890 q 646 923 604 890 q 697 1015 688 956 l 725 1015 l 724 1010 z "},"Ő":{"ha":1100,"x_min":93,"x_max":1046,"o":"m 482 -11 q 277 38 365 -11 q 141 175 189 86 q 93 381 93 264 q 168 680 93 540 q 372 903 243 819 q 658 986 501 986 q 863 938 775 986 q 999 800 951 889 q 1046 594 1046 711 q 972 295 1046 435 q 767 72 897 156 q 482 -11 638 -11 m 486 14 q 756 94 635 14 q 947 307 878 174 q 1017 594 1017 440 q 970 790 1017 707 q 842 917 924 874 q 653 961 760 961 q 381 881 503 961 q 191 667 260 800 q 122 382 122 533 q 169 186 122 269 q 297 58 215 103 q 486 14 379 14 m 608 1033 l 581 1033 l 690 1178 l 722 1178 l 608 1033 m 764 1033 l 736 1033 l 853 1178 l 885 1178 l 764 1033 z "},"ő":{"ha":899,"x_min":76,"x_max":822,"o":"m 383 -10 q 160 69 244 -10 q 76 288 76 149 q 133 524 76 415 q 291 696 190 632 q 517 760 392 760 q 739 681 656 760 q 822 463 822 601 q 766 226 822 335 q 609 54 710 118 q 383 -10 508 -10 m 388 15 q 600 76 507 15 q 744 240 693 138 q 794 461 794 342 q 715 665 794 596 q 513 735 635 735 q 300 674 393 735 q 156 510 207 613 q 104 290 104 408 q 185 85 104 156 q 388 15 265 15 m 458 844 l 431 844 l 540 989 l 572 989 l 458 844 m 614 844 l 586 844 l 703 989 l 735 989 l 614 844 z "},"Œ":{"ha":1535,"x_min":92,"x_max":1572,"o":"m 1038 501 l 1446 501 l 1442 476 l 1033 476 l 954 25 l 1404 25 l 1399 0 l 921 0 l 981 333 q 863 153 940 231 q 687 32 786 75 q 481 -11 588 -11 q 276 38 364 -11 q 140 175 188 86 q 92 381 92 264 q 101 488 92 435 q 206 746 126 632 q 404 923 286 860 q 657 986 522 986 q 848 943 764 986 q 981 822 932 900 q 1035 642 1031 744 l 1094 978 l 1572 978 l 1567 953 l 1117 953 l 1038 501 m 131 488 q 121 382 121 438 q 167 186 121 269 q 296 58 214 103 q 485 14 378 14 q 717 72 607 14 q 903 237 826 129 q 1006 488 981 344 q 1015 594 1015 540 q 969 790 1015 707 q 840 917 922 874 q 651 961 758 961 q 419 903 529 961 q 233 738 310 846 q 131 488 157 631 z "},"œ":{"ha":1576,"x_min":75,"x_max":1510,"o":"m 1217 760 q 1378 723 1313 760 q 1477 626 1444 686 q 1510 494 1510 567 q 1504 438 1510 476 q 1485 363 1494 388 l 813 363 q 806 286 806 317 q 885 84 806 153 q 1085 15 964 15 q 1309 80 1211 15 q 1444 254 1407 144 l 1472 254 q 1328 63 1432 136 q 1081 -10 1224 -10 q 870 60 950 -10 q 781 257 790 131 q 619 61 726 132 q 382 -10 513 -10 q 159 69 243 -10 q 75 288 75 149 q 83 375 75 329 q 167 580 104 493 q 322 713 231 667 q 518 760 414 760 q 731 690 649 760 q 822 493 813 619 q 981 690 875 619 q 1217 760 1086 760 m 788 375 q 796 461 796 421 q 716 665 796 596 q 514 735 636 735 q 340 695 424 735 q 194 574 256 656 q 111 375 132 493 q 103 290 103 329 q 183 85 103 156 q 386 15 264 15 q 560 55 476 15 q 705 175 643 94 q 788 375 767 256 m 1471 388 q 1483 485 1483 442 q 1406 672 1483 608 q 1213 735 1328 735 q 1042 697 1124 735 q 899 581 960 658 q 818 388 839 503 l 1471 388 z "},"Ŕ":{"ha":743,"x_min":51,"x_max":744,"o":"m 469 978 q 677 922 610 978 q 744 764 744 865 q 739 703 744 731 q 638 513 717 583 q 433 429 560 443 l 621 0 l 586 0 l 400 426 l 375 426 l 156 426 l 79 0 l 51 0 l 225 978 l 469 978 m 710 703 q 715 764 715 731 q 464 950 715 950 l 247 950 l 160 453 l 379 453 q 606 521 522 453 q 710 703 689 589 m 667 1193 l 375 1013 l 379 1040 l 672 1226 l 667 1193 z "},"ŕ":{"ha":469,"x_min":51,"x_max":511,"o":"m 181 567 q 511 767 258 767 l 506 736 l 493 736 q 283 670 378 736 q 160 457 189 604 l 79 0 l 51 0 l 185 750 l 213 750 l 181 567 m 499 994 l 207 814 l 211 842 l 504 1028 l 499 994 z "},"Ŗ":{"ha":743,"x_min":51,"x_max":744,"o":"m 469 978 q 677 922 610 978 q 744 764 744 865 q 739 703 744 731 q 638 513 717 583 q 433 429 560 443 l 621 0 l 586 0 l 400 426 l 375 426 l 156 426 l 79 0 l 51 0 l 225 978 l 469 978 m 710 703 q 715 764 715 731 q 464 950 715 950 l 247 950 l 160 453 l 379 453 q 606 521 522 453 q 710 703 689 589 m 249 -82 l 319 -82 l 315 -125 q 274 -219 303 -193 q 203 -244 246 -244 l 208 -219 q 257 -200 240 -219 q 281 -144 274 -181 l 282 -135 l 239 -135 l 249 -82 z "},"ŗ":{"ha":469,"x_min":-33,"x_max":511,"o":"m 181 567 q 511 767 258 767 l 506 736 l 493 736 q 283 670 378 736 q 160 457 189 604 l 79 0 l 51 0 l 185 750 l 213 750 l 181 567 m 13 -82 l 83 -82 l 79 -125 q 38 -219 67 -193 q -33 -244 10 -244 l -28 -219 q 21 -200 4 -219 q 44 -144 38 -181 l 46 -135 l 3 -135 l 13 -82 z "},"Ř":{"ha":743,"x_min":51,"x_max":744,"o":"m 469 978 q 677 922 610 978 q 744 764 744 865 q 739 703 744 731 q 638 513 717 583 q 433 429 560 443 l 621 0 l 586 0 l 400 426 l 375 426 l 156 426 l 79 0 l 51 0 l 225 978 l 469 978 m 710 703 q 715 764 715 731 q 464 950 715 950 l 247 950 l 160 453 l 379 453 q 606 521 522 453 q 710 703 689 589 m 721 1168 l 531 1056 l 378 1168 l 383 1196 l 536 1083 l 726 1196 l 721 1168 z "},"ř":{"ha":469,"x_min":51,"x_max":558,"o":"m 181 567 q 511 767 258 767 l 506 736 l 493 736 q 283 670 378 736 q 160 457 189 604 l 79 0 l 51 0 l 185 750 l 213 750 l 181 567 m 553 969 l 363 857 l 210 969 l 215 997 l 368 885 l 558 997 l 553 969 z "},"Ś":{"ha":733,"x_min":44,"x_max":696,"o":"m 318 -10 q 163 24 225 -10 q 72 112 100 57 q 49 231 44 167 l 76 231 q 94 133 74 182 q 169 50 114 85 q 322 15 225 15 q 506 71 432 15 q 594 218 579 126 q 599 269 599 246 q 567 377 599 335 q 488 444 535 419 q 363 499 440 469 q 238 552 285 528 q 160 619 192 576 q 128 725 128 661 q 132 774 128 749 q 181 881 142 832 q 285 958 219 929 q 436 988 350 988 q 580 957 521 988 q 667 879 639 926 q 693 782 696 832 l 665 782 q 642 863 667 821 q 563 933 617 904 q 432 963 510 963 q 251 912 326 963 q 160 774 175 861 q 156 731 156 751 q 185 634 156 672 q 260 574 215 596 q 379 522 304 551 q 511 465 463 490 q 594 392 560 439 q 628 275 628 346 q 622 218 628 246 q 573 105 611 157 q 469 22 535 53 q 318 -10 404 -10 m 626 1193 l 335 1013 l 339 1040 l 632 1226 l 626 1193 z "},"ś":{"ha":671,"x_min":35,"x_max":594,"o":"m 272 -10 q 98 40 161 -10 q 40 192 35 90 l 68 192 q 115 63 61 110 q 274 15 168 15 q 449 67 385 15 q 513 196 513 118 q 487 274 513 243 q 424 322 461 304 q 324 361 386 340 q 211 406 253 386 q 140 465 169 426 q 111 563 111 503 q 144 665 111 621 q 236 735 178 710 q 364 760 294 760 q 528 708 463 760 q 594 572 594 657 q 593 544 594 554 l 565 544 q 567 569 567 553 q 507 690 567 644 q 360 735 447 735 q 202 688 265 735 q 139 563 139 640 q 165 478 139 511 q 230 426 192 444 q 335 386 268 408 q 444 343 403 363 q 513 288 485 324 q 540 196 540 253 q 466 46 540 101 q 272 -10 392 -10 m 560 994 l 268 814 l 272 842 l 565 1028 l 560 994 z "},"Ş":{"ha":733,"x_min":44,"x_max":696,"o":"m 436 988 q 580 957 521 988 q 667 879 639 926 q 693 782 696 832 l 665 782 q 642 863 667 821 q 563 933 617 904 q 432 963 510 963 q 251 912 326 963 q 160 774 175 861 q 156 731 156 751 q 185 634 156 672 q 260 574 215 596 q 379 522 304 551 q 511 465 463 490 q 594 392 560 439 q 628 275 628 346 q 622 218 628 246 q 527 57 606 122 q 321 -10 449 -8 l 300 -124 q 417 -142 378 -118 q 457 -212 457 -165 q 456 -233 457 -226 q 402 -320 446 -287 q 288 -353 358 -353 l 200 -353 l 204 -325 l 288 -325 q 428 -233 411 -325 q 429 -217 429 -228 q 403 -167 429 -186 q 319 -149 378 -149 l 268 -149 l 293 -10 q 151 30 208 -4 q 69 117 94 64 q 49 231 44 169 l 76 231 q 94 133 74 182 q 169 50 114 85 q 322 15 225 15 q 506 71 432 15 q 594 218 579 126 q 599 269 599 246 q 567 377 599 335 q 488 444 535 419 q 363 499 440 469 q 238 552 285 528 q 160 619 192 576 q 128 725 128 661 q 132 774 128 749 q 181 881 142 832 q 285 958 219 929 q 436 988 350 988 z "},"ş":{"ha":671,"x_min":35,"x_max":594,"o":"m 364 760 q 528 708 463 760 q 594 572 594 657 q 593 544 594 554 l 565 544 q 567 569 567 553 q 507 690 567 644 q 360 735 447 735 q 202 688 265 735 q 139 563 139 640 q 165 478 139 511 q 230 426 192 444 q 335 386 268 408 q 444 343 403 363 q 513 288 485 324 q 540 196 540 253 q 471 49 540 104 q 289 -10 401 -6 l 268 -124 q 385 -142 346 -118 q 425 -212 425 -165 q 424 -233 425 -226 q 370 -320 414 -287 q 256 -353 326 -353 l 168 -353 l 172 -325 l 256 -325 q 396 -233 379 -325 q 397 -217 397 -228 q 372 -167 397 -186 q 288 -149 346 -149 l 236 -149 l 261 -10 q 94 43 154 -7 q 40 192 35 93 l 68 192 q 115 63 61 110 q 274 15 168 15 q 449 67 385 15 q 513 196 513 118 q 487 274 513 243 q 424 322 461 304 q 324 361 386 340 q 211 406 253 386 q 140 465 169 426 q 111 563 111 503 q 144 665 111 621 q 236 735 178 710 q 364 760 294 760 z "},"Š":{"ha":733,"x_min":44,"x_max":696,"o":"m 318 -10 q 163 24 225 -10 q 72 112 100 57 q 49 231 44 167 l 76 231 q 94 133 74 182 q 169 50 114 85 q 322 15 225 15 q 506 71 432 15 q 594 218 579 126 q 599 269 599 246 q 567 377 599 335 q 488 444 535 419 q 363 499 440 469 q 238 552 285 528 q 160 619 192 576 q 128 725 128 661 q 132 774 128 749 q 181 881 142 832 q 285 958 219 929 q 436 988 350 988 q 580 957 521 988 q 667 879 639 926 q 693 782 696 832 l 665 782 q 642 863 667 821 q 563 933 617 904 q 432 963 510 963 q 251 912 326 963 q 160 774 175 861 q 156 731 156 751 q 185 634 156 672 q 260 574 215 596 q 379 522 304 551 q 511 465 463 490 q 594 392 560 439 q 628 275 628 346 q 622 218 628 246 q 573 105 611 157 q 469 22 535 53 q 318 -10 404 -10 m 681 1168 l 490 1056 l 338 1168 l 343 1196 l 496 1083 l 686 1196 l 681 1168 z "},"š":{"ha":671,"x_min":35,"x_max":619,"o":"m 272 -10 q 98 40 161 -10 q 40 192 35 90 l 68 192 q 115 63 61 110 q 274 15 168 15 q 449 67 385 15 q 513 196 513 118 q 487 274 513 243 q 424 322 461 304 q 324 361 386 340 q 211 406 253 386 q 140 465 169 426 q 111 563 111 503 q 144 665 111 621 q 236 735 178 710 q 364 760 294 760 q 528 708 463 760 q 594 572 594 657 q 593 544 594 554 l 565 544 q 567 569 567 553 q 507 690 567 644 q 360 735 447 735 q 202 688 265 735 q 139 563 139 640 q 165 478 139 511 q 230 426 192 444 q 335 386 268 408 q 444 343 403 363 q 513 288 485 324 q 540 196 540 253 q 466 46 540 101 q 272 -10 392 -10 m 614 969 l 424 857 l 271 969 l 276 997 l 429 885 l 619 997 l 614 969 z "},"Ţ":{"ha":653,"x_min":129,"x_max":732,"o":"m 732 978 l 726 953 l 442 953 l 275 10 l 276 10 l 253 -124 q 370 -142 331 -118 q 410 -212 410 -165 q 408 -233 410 -226 q 355 -320 399 -287 q 240 -353 311 -353 l 153 -353 l 157 -325 l 240 -325 q 381 -233 364 -325 q 382 -217 382 -228 q 356 -167 382 -186 q 272 -149 331 -149 l 221 -149 l 247 0 l 246 0 l 414 953 l 129 953 l 135 978 l 732 978 z "},"ţ":{"ha":469,"x_min":89,"x_max":481,"o":"m 146 197 q 139 131 139 156 q 170 50 139 72 q 274 28 201 28 l 353 28 l 347 0 l 265 0 l 244 0 l 222 -124 q 340 -142 300 -118 q 379 -212 379 -165 q 378 -233 379 -226 q 324 -320 368 -287 q 210 -353 281 -353 l 122 -353 l 126 -325 l 210 -325 q 350 -233 333 -325 q 351 -217 351 -228 q 326 -167 351 -186 q 242 -149 300 -149 l 190 -149 l 217 3 q 137 41 163 11 q 111 128 111 71 q 118 197 111 153 l 211 722 l 89 722 l 94 750 l 217 750 l 250 942 l 278 942 l 244 750 l 481 750 l 475 722 l 239 722 l 146 197 z "},"Ť":{"ha":653,"x_min":129,"x_max":732,"o":"m 732 978 l 726 953 l 442 953 l 274 0 l 246 0 l 414 953 l 129 953 l 135 978 l 732 978 m 638 1168 l 447 1056 l 294 1168 l 300 1196 l 453 1083 l 643 1196 l 638 1168 z "},"ť":{"ha":469,"x_min":89,"x_max":481,"o":"m 463 932 q 424 847 451 871 q 350 824 396 824 l 354 851 q 406 867 389 851 q 428 914 422 882 l 436 954 l 383 954 l 396 1028 l 474 1028 q 463 932 471 978 m 146 197 q 139 131 139 156 q 170 50 139 72 q 274 28 201 28 l 353 28 l 347 0 l 265 0 q 148 30 185 0 q 111 128 111 60 q 118 197 111 153 l 211 722 l 89 722 l 94 750 l 217 750 l 250 942 l 278 942 l 244 750 l 481 750 l 475 722 l 239 722 l 146 197 z "},"Ũ":{"ha":874,"x_min":100,"x_max":869,"o":"m 246 978 l 138 371 q 128 263 128 314 q 194 75 128 135 q 376 15 260 15 q 607 100 513 15 q 733 371 701 185 l 842 978 l 869 978 l 761 371 q 625 83 726 176 q 372 -10 524 -10 q 172 57 244 -10 q 100 261 100 124 q 110 371 100 314 l 218 978 l 246 978 m 419 1038 q 458 1105 432 1081 q 519 1129 485 1129 q 558 1120 543 1129 q 590 1093 572 1111 q 622 1068 608 1076 q 657 1060 636 1060 q 701 1077 681 1060 q 729 1125 721 1094 l 754 1125 q 717 1061 746 1088 q 653 1035 688 1035 q 611 1044 628 1035 q 575 1072 594 1054 q 546 1096 560 1088 q 514 1104 532 1104 q 444 1038 465 1104 l 419 1038 z "},"ũ":{"ha":853,"x_min":92,"x_max":801,"o":"m 801 750 l 668 0 l 640 0 l 676 203 q 543 41 632 96 q 344 -14 454 -14 q 161 47 231 -14 q 92 231 92 108 q 100 315 92 269 l 178 750 l 204 750 l 126 313 q 119 233 119 278 q 180 68 119 125 q 349 11 240 11 q 578 98 483 11 q 703 354 674 185 l 703 351 l 774 750 l 801 750 m 376 839 q 415 906 389 882 q 476 931 442 931 q 515 922 500 931 q 547 894 529 913 q 579 869 565 878 q 614 861 593 861 q 658 878 638 861 q 686 926 678 896 l 711 926 q 674 863 703 889 q 610 836 644 836 q 568 846 585 836 q 532 874 551 856 q 503 897 517 889 q 471 906 489 906 q 401 839 422 906 l 376 839 z "},"Ū":{"ha":874,"x_min":100,"x_max":869,"o":"m 246 978 l 138 371 q 128 263 128 314 q 194 75 128 135 q 376 15 260 15 q 607 100 513 15 q 733 371 701 185 l 842 978 l 869 978 l 761 371 q 625 83 726 176 q 372 -10 524 -10 q 172 57 244 -10 q 100 261 100 124 q 110 371 100 314 l 218 978 l 246 978 m 785 1139 l 781 1114 l 351 1114 l 356 1139 l 785 1139 z "},"ū":{"ha":853,"x_min":92,"x_max":801,"o":"m 801 750 l 668 0 l 640 0 l 676 203 q 543 41 632 96 q 344 -14 454 -14 q 161 47 231 -14 q 92 231 92 108 q 100 315 92 269 l 178 750 l 204 750 l 126 313 q 119 233 119 278 q 180 68 119 125 q 349 11 240 11 q 578 98 483 11 q 703 354 674 185 l 703 351 l 774 750 l 801 750 m 742 940 l 738 915 l 308 915 l 313 940 l 742 940 z "},"Ŭ":{"ha":874,"x_min":100,"x_max":869,"o":"m 246 978 l 138 371 q 128 263 128 314 q 194 75 128 135 q 376 15 260 15 q 607 100 513 15 q 733 371 701 185 l 842 978 l 869 978 l 761 371 q 625 83 726 176 q 372 -10 524 -10 q 172 57 244 -10 q 100 261 100 124 q 110 371 100 314 l 218 978 l 246 978 m 744 1199 q 686 1098 735 1142 q 556 1054 638 1054 q 449 1089 483 1054 q 415 1174 415 1124 q 417 1199 415 1190 l 418 1204 l 446 1204 q 443 1176 443 1185 q 474 1104 443 1129 q 560 1079 504 1079 q 667 1112 625 1079 q 718 1204 708 1144 l 746 1204 l 744 1199 z "},"ŭ":{"ha":853,"x_min":92,"x_max":801,"o":"m 801 750 l 668 0 l 640 0 l 676 203 q 543 41 632 96 q 344 -14 454 -14 q 161 47 231 -14 q 92 231 92 108 q 100 315 92 269 l 178 750 l 204 750 l 126 313 q 119 233 119 278 q 180 68 119 125 q 349 11 240 11 q 578 98 483 11 q 703 354 674 185 l 703 351 l 774 750 l 801 750 m 701 1000 q 643 899 692 943 q 513 856 594 856 q 406 890 440 856 q 372 975 372 925 q 374 1000 372 992 l 375 1006 l 403 1006 q 400 978 400 986 q 431 906 400 931 q 517 881 461 881 q 624 913 582 881 q 675 1006 665 946 l 703 1006 l 701 1000 z "},"Ů":{"ha":874,"x_min":100,"x_max":869,"o":"m 246 978 l 138 371 q 128 263 128 314 q 194 75 128 135 q 376 15 260 15 q 607 100 513 15 q 733 371 701 185 l 842 978 l 869 978 l 761 371 q 625 83 726 176 q 372 -10 524 -10 q 172 57 244 -10 q 100 261 100 124 q 110 371 100 314 l 218 978 l 246 978 m 450 1151 q 495 1260 450 1218 q 600 1303 540 1303 q 676 1276 646 1303 q 706 1204 706 1249 q 660 1095 706 1138 q 556 1053 615 1053 q 480 1080 510 1053 q 450 1151 450 1107 m 676 1200 q 654 1257 676 1236 q 594 1278 632 1278 q 520 1251 551 1278 q 481 1178 489 1224 q 479 1156 479 1169 q 501 1099 479 1119 q 560 1078 524 1078 q 642 1111 608 1078 q 676 1200 676 1144 z "},"ů":{"ha":853,"x_min":92,"x_max":801,"o":"m 801 750 l 668 0 l 640 0 l 676 203 q 543 41 632 96 q 344 -14 454 -14 q 161 47 231 -14 q 92 231 92 108 q 100 315 92 269 l 178 750 l 204 750 l 126 313 q 119 233 119 278 q 180 68 119 125 q 349 11 240 11 q 578 98 483 11 q 703 354 674 185 l 703 351 l 774 750 l 801 750 m 407 953 q 452 1062 407 1019 q 557 1104 497 1104 q 633 1077 603 1104 q 663 1006 663 1050 q 617 897 663 939 q 513 854 572 854 q 437 881 467 854 q 407 953 407 908 m 633 1001 q 611 1058 633 1038 q 551 1079 589 1079 q 477 1052 508 1079 q 438 979 446 1025 q 436 957 436 971 q 458 900 436 921 q 517 879 481 879 q 599 913 565 879 q 633 1001 633 946 z "},"Ű":{"ha":874,"x_min":100,"x_max":869,"o":"m 246 978 l 138 371 q 128 263 128 314 q 194 75 128 135 q 376 15 260 15 q 607 100 513 15 q 733 371 701 185 l 842 978 l 869 978 l 761 371 q 625 83 726 176 q 372 -10 524 -10 q 172 57 244 -10 q 100 261 100 124 q 110 371 100 314 l 218 978 l 246 978 m 479 1033 l 451 1033 l 561 1178 l 593 1178 l 479 1033 m 635 1033 l 607 1033 l 724 1178 l 756 1178 l 635 1033 z "},"ű":{"ha":853,"x_min":92,"x_max":801,"o":"m 801 750 l 668 0 l 640 0 l 676 203 q 543 41 632 96 q 344 -14 454 -14 q 161 47 231 -14 q 92 231 92 108 q 100 315 92 269 l 178 750 l 204 750 l 126 313 q 119 233 119 278 q 180 68 119 125 q 349 11 240 11 q 578 98 483 11 q 703 354 674 185 l 703 351 l 774 750 l 801 750 m 436 835 l 408 835 l 518 979 l 550 979 l 436 835 m 592 835 l 564 835 l 681 979 l 713 979 l 592 835 z "},"Ų":{"ha":874,"x_min":100,"x_max":869,"o":"m 869 978 l 761 371 q 651 112 732 204 q 451 -3 571 19 l 351 -46 q 232 -176 232 -96 q 255 -222 232 -207 q 315 -237 278 -237 q 407 -219 356 -237 l 401 -247 q 311 -264 356 -264 q 233 -244 263 -264 q 204 -182 204 -224 q 347 -21 204 -81 l 374 -10 l 372 -10 q 172 57 244 -10 q 100 261 100 124 q 110 371 100 314 l 218 978 l 246 978 l 138 371 q 128 263 128 314 q 194 75 128 135 q 376 15 260 15 q 449 21 417 15 l 450 22 q 632 126 558 42 q 733 371 706 211 l 842 978 l 869 978 z "},"ų":{"ha":853,"x_min":92,"x_max":801,"o":"m 561 -46 q 442 -176 442 -96 q 465 -222 442 -207 q 525 -237 488 -237 q 617 -219 565 -237 l 611 -247 q 521 -264 565 -264 q 443 -244 472 -264 q 414 -182 414 -224 q 557 -21 414 -81 l 643 15 l 676 203 q 543 41 632 96 q 344 -14 454 -14 q 161 47 231 -14 q 92 231 92 108 q 100 315 92 269 l 178 750 l 204 750 l 126 313 q 119 233 119 278 q 180 68 119 125 q 349 11 240 11 q 578 98 483 11 q 703 354 674 185 l 703 351 l 774 750 l 801 750 l 668 0 l 561 -46 z "},"Ŵ":{"ha":1256,"x_min":156,"x_max":1314,"o":"m 1314 978 l 878 0 l 850 0 l 725 928 l 272 0 l 244 0 l 156 978 l 189 978 l 271 60 l 718 978 l 751 978 l 874 60 l 1281 978 l 1314 978 m 735 1201 l 543 1089 l 547 1117 l 740 1229 l 890 1117 l 886 1089 l 735 1201 z "},"ŵ":{"ha":1115,"x_min":94,"x_max":1154,"o":"m 1154 750 l 785 0 l 764 0 l 615 700 l 218 0 l 197 0 l 94 750 l 125 750 l 221 57 l 613 750 l 636 750 l 783 57 l 1124 750 l 1154 750 m 664 974 l 472 861 l 476 889 l 669 1001 l 819 889 l 815 861 l 664 974 z "},"Ŷ":{"ha":719,"x_min":149,"x_max":785,"o":"m 785 978 l 381 410 l 308 0 l 281 0 l 353 410 l 149 978 l 182 978 l 372 440 l 751 978 l 785 978 m 501 1172 l 310 1060 l 314 1088 l 507 1200 l 657 1088 l 653 1060 l 501 1172 z "},"ŷ":{"ha":699,"x_min":82,"x_max":738,"o":"m 125 750 l 304 40 l 707 750 l 738 750 l 115 -353 l 82 -353 l 281 -3 l 94 750 l 125 750 m 457 974 l 265 861 l 269 889 l 463 1001 l 613 889 l 608 861 l 457 974 z "},"Ÿ":{"ha":719,"x_min":149,"x_max":785,"o":"m 785 978 l 381 410 l 308 0 l 281 0 l 353 410 l 149 978 l 182 978 l 372 440 l 751 978 l 785 978 m 392 1069 q 367 1079 376 1069 q 358 1104 358 1089 q 373 1138 358 1124 q 407 1153 388 1153 q 430 1143 421 1153 q 439 1118 439 1133 q 424 1084 439 1099 q 392 1069 410 1069 m 578 1069 q 553 1079 563 1069 q 544 1104 544 1089 q 559 1138 544 1124 q 593 1153 574 1153 q 616 1143 607 1153 q 625 1119 625 1133 q 610 1085 625 1100 q 578 1069 596 1069 z "},"Ź":{"ha":676,"x_min":-18,"x_max":721,"o":"m 18 26 l 567 26 l 561 0 l -18 0 l -12 26 l 686 950 l 168 950 l 174 978 l 721 978 l 715 950 l 18 26 m 596 1193 l 304 1013 l 308 1040 l 601 1226 l 596 1193 z "},"ź":{"ha":565,"x_min":-25,"x_max":576,"o":"m 10 25 l 463 25 l 457 0 l -25 0 l -19 25 l 540 725 l 117 725 l 122 750 l 576 750 l 571 725 l 10 25 m 506 994 l 214 814 l 218 842 l 511 1028 l 506 994 z "},"Ż":{"ha":676,"x_min":-18,"x_max":721,"o":"m 18 26 l 567 26 l 561 0 l -18 0 l -12 26 l 686 950 l 168 950 l 174 978 l 721 978 l 715 950 l 18 26 m 457 1039 q 433 1049 443 1039 q 422 1074 422 1060 q 438 1107 422 1092 q 472 1122 453 1122 q 496 1113 486 1122 q 506 1088 506 1103 q 491 1054 506 1069 q 457 1039 476 1039 z "},"ż":{"ha":565,"x_min":-25,"x_max":576,"o":"m 10 25 l 463 25 l 457 0 l -25 0 l -19 25 l 540 725 l 117 725 l 122 750 l 576 750 l 571 725 l 10 25 m 367 840 q 342 851 353 840 q 332 875 332 861 q 347 908 332 893 q 382 924 363 924 q 406 914 396 924 q 415 889 415 904 q 401 856 415 871 q 367 840 386 840 z "},"Ž":{"ha":676,"x_min":-18,"x_max":721,"o":"m 18 26 l 567 26 l 561 0 l -18 0 l -12 26 l 686 950 l 168 950 l 174 978 l 721 978 l 715 950 l 18 26 m 650 1168 l 460 1056 l 307 1168 l 313 1196 l 465 1083 l 656 1196 l 650 1168 z "},"ž":{"ha":565,"x_min":-25,"x_max":576,"o":"m 10 25 l 463 25 l 457 0 l -25 0 l -19 25 l 540 725 l 117 725 l 122 750 l 576 750 l 571 725 l 10 25 m 560 969 l 369 857 l 217 969 l 222 997 l 375 885 l 565 997 l 560 969 z "},"Ə":{"ha":1067,"x_min":86,"x_max":1013,"o":"m 631 986 q 832 937 746 986 q 965 798 918 888 q 1013 593 1013 708 q 941 292 1013 431 q 740 71 869 153 q 449 -11 611 -11 q 257 32 339 -11 q 131 154 175 75 q 86 339 86 233 q 108 497 86 415 l 976 497 q 982 575 982 531 l 982 592 q 937 788 982 704 q 810 916 892 871 q 626 961 729 961 q 438 924 531 961 q 273 815 346 886 q 161 646 200 743 l 132 646 q 328 893 193 800 q 631 986 464 986 m 454 14 q 694 75 583 14 q 878 242 806 136 q 974 474 951 347 l 132 474 q 115 342 115 403 q 206 103 115 192 q 454 14 296 14 z "},"ƒ":{"ha":460,"x_min":-135,"x_max":592,"o":"m 586 1021 q 420 978 483 1021 q 332 846 357 936 l 304 750 l 521 750 l 514 725 l 297 725 l 79 -47 q 21 -154 58 -119 q -93 -189 -17 -189 l -135 -189 l -128 -164 l -90 -164 q 1 -140 -31 -164 q 51 -47 32 -117 l 271 725 l 150 725 l 156 750 l 278 750 l 306 846 q 406 998 333 950 q 592 1046 478 1046 l 586 1021 z "},"Ǽ":{"ha":1163,"x_min":-53,"x_max":1200,"o":"m 744 953 l 665 501 l 1074 501 l 1069 476 l 661 476 l 582 25 l 1032 25 l 1026 0 l 549 0 l 596 269 l 193 269 l -21 0 l -53 0 l 722 978 l 1200 978 l 1194 953 l 744 953 m 713 926 l 213 294 l 601 294 l 713 926 m 1003 1222 l 711 1042 l 715 1069 l 1008 1256 l 1003 1222 z "},"ǽ":{"ha":1576,"x_min":75,"x_max":1510,"o":"m 1217 760 q 1378 723 1313 760 q 1477 626 1444 686 q 1510 494 1510 567 q 1504 438 1510 476 q 1485 363 1494 388 l 813 363 q 806 286 806 318 q 885 84 806 153 q 1085 15 964 15 q 1309 80 1211 15 q 1444 254 1407 144 l 1472 254 q 1328 63 1432 136 q 1081 -10 1224 -10 q 877 56 957 -10 q 790 243 797 121 l 747 0 l 721 0 l 764 242 q 613 60 714 129 q 381 -10 511 -10 q 157 69 239 -10 q 75 286 75 149 q 83 375 75 329 q 165 580 104 493 q 318 713 226 667 q 517 760 410 760 q 723 690 646 760 q 811 508 800 621 l 854 750 l 881 750 l 838 507 q 991 694 888 628 q 1217 760 1094 760 m 788 375 q 794 454 794 410 q 718 659 794 583 q 513 735 642 735 q 249 638 357 735 q 111 375 140 542 q 103 289 103 329 q 177 88 103 160 q 385 15 251 15 q 567 60 482 15 q 710 187 653 106 q 788 375 768 268 m 1471 388 q 1483 485 1483 442 q 1406 672 1483 608 q 1213 735 1328 735 q 1042 697 1124 735 q 899 581 960 658 q 818 388 839 503 l 1471 388 m 1153 994 l 861 814 l 865 842 l 1158 1028 l 1153 994 z "},"Ș":{"ha":744,"x_min":44,"x_max":696,"o":"m 318 -10 q 163 24 225 -10 q 72 112 100 57 q 49 231 44 167 l 76 231 q 94 133 74 182 q 169 50 114 85 q 322 15 225 15 q 506 71 432 15 q 594 218 579 126 q 599 269 599 246 q 567 377 599 335 q 488 444 535 419 q 363 499 440 469 q 238 552 285 528 q 160 619 192 576 q 128 725 128 661 q 132 774 128 749 q 181 881 142 832 q 285 958 219 929 q 436 988 350 988 q 580 957 521 988 q 667 879 639 926 q 693 782 696 832 l 665 782 q 642 863 667 821 q 563 933 617 904 q 432 963 510 963 q 251 912 326 963 q 160 774 175 861 q 156 731 156 751 q 185 634 156 672 q 260 574 215 596 q 379 522 304 551 q 511 465 463 490 q 594 392 560 439 q 628 275 628 346 q 622 218 628 246 q 573 105 611 157 q 469 22 535 53 q 318 -10 404 -10 m 357 -125 q 316 -219 344 -193 q 244 -244 288 -244 l 250 -219 q 299 -200 282 -219 q 322 -144 315 -181 l 324 -135 l 281 -135 l 290 -82 l 361 -82 l 357 -125 z "},"ș":{"ha":671,"x_min":35,"x_max":594,"o":"m 272 -10 q 98 40 161 -10 q 40 192 35 90 l 68 192 q 115 63 61 110 q 274 15 168 15 q 449 67 385 15 q 513 196 513 118 q 487 274 513 243 q 424 322 461 304 q 324 361 386 340 q 211 406 253 386 q 140 465 169 426 q 111 563 111 503 q 144 665 111 621 q 236 735 178 710 q 364 760 294 760 q 528 708 463 760 q 594 572 594 657 q 593 544 594 554 l 565 544 q 567 569 567 553 q 507 690 567 644 q 360 735 447 735 q 202 688 265 735 q 139 563 139 640 q 165 478 139 511 q 230 426 192 444 q 335 386 268 408 q 444 343 403 363 q 513 288 485 324 q 540 196 540 253 q 466 46 540 101 q 272 -10 392 -10 m 315 -125 q 274 -219 303 -193 q 203 -244 246 -244 l 208 -219 q 257 -200 240 -219 q 281 -144 274 -181 l 282 -135 l 239 -135 l 249 -82 l 319 -82 l 315 -125 z "},"Ț":{"ha":653,"x_min":129,"x_max":732,"o":"m 732 978 l 726 953 l 442 953 l 274 0 l 246 0 l 414 953 l 129 953 l 135 978 l 732 978 m 274 -125 q 233 -219 261 -193 q 161 -244 204 -244 l 167 -219 q 215 -200 199 -219 q 239 -144 232 -181 l 240 -135 l 197 -135 l 207 -82 l 278 -82 l 274 -125 z "},"ț":{"ha":469,"x_min":89,"x_max":481,"o":"m 146 197 q 139 131 139 156 q 170 50 139 72 q 274 28 201 28 l 353 28 l 347 0 l 265 0 q 148 30 185 0 q 111 128 111 60 q 118 197 111 153 l 211 722 l 89 722 l 94 750 l 217 750 l 250 942 l 278 942 l 244 750 l 481 750 l 475 722 l 239 722 l 146 197 m 165 -82 l 236 -82 l 232 -125 q 191 -219 219 -193 q 119 -244 163 -244 l 125 -219 q 174 -200 157 -219 q 197 -144 190 -181 l 199 -135 l 156 -135 l 165 -82 z "},"ə":{"ha":872,"x_min":67,"x_max":797,"o":"m 496 760 q 715 681 633 760 q 797 464 797 603 q 789 375 797 424 q 706 169 768 257 q 554 36 644 82 q 360 -10 464 -10 q 198 27 264 -10 q 99 124 132 64 q 67 256 67 183 q 72 313 67 274 l 78 340 q 88 388 81 363 l 764 388 q 771 464 771 433 q 692 666 771 597 q 492 735 613 735 q 267 670 365 735 q 132 496 169 606 l 104 496 q 249 687 144 614 q 496 760 353 760 m 364 15 q 535 53 453 15 q 677 169 617 92 q 758 363 738 247 l 106 363 q 93 265 93 308 q 171 78 93 142 q 364 15 249 15 z "},"ʼ":{"ha":203,"x_min":101,"x_max":268,"o":"m 224 978 l 268 978 l 126 711 l 101 711 l 224 978 z "},"ˆ":{"ha":454,"x_min":142,"x_max":489,"o":"m 333 974 l 142 861 l 146 889 l 339 1001 l 489 889 l 485 861 l 333 974 z "},"ˇ":{"ha":454,"x_min":160,"x_max":508,"o":"m 503 969 l 313 857 l 160 969 l 165 997 l 318 885 l 508 997 l 503 969 z "},"ˉ":{"ha":540,"x_min":151,"x_max":585,"o":"m 585 940 l 581 915 l 151 915 l 156 940 l 585 940 z "},"˘":{"ha":439,"x_min":164,"x_max":494,"o":"m 493 1000 q 435 899 483 943 q 304 856 386 856 q 198 890 232 856 q 164 975 164 925 q 165 1000 164 992 l 167 1006 l 194 1006 q 192 978 192 986 q 222 906 192 931 q 308 881 253 881 q 415 913 374 881 q 467 1006 457 946 l 494 1006 l 493 1000 z "},"˙":{"ha":214,"x_min":160,"x_max":243,"o":"m 194 871 q 170 881 181 871 q 160 906 160 892 q 175 939 160 924 q 210 954 190 954 q 233 944 224 954 q 243 919 243 935 q 228 886 243 901 q 194 871 214 871 z "},"˚":{"ha":361,"x_min":160,"x_max":415,"o":"m 160 953 q 205 1062 160 1019 q 310 1104 250 1104 q 385 1077 356 1104 q 415 1006 415 1050 q 370 897 415 939 q 265 854 325 854 q 190 881 219 854 q 160 953 160 908 m 386 1001 q 364 1058 386 1038 q 304 1079 342 1079 q 230 1052 261 1079 q 190 979 199 1025 q 189 957 189 971 q 211 900 189 921 q 269 879 233 879 q 352 913 318 879 q 386 1001 386 946 z "},"˛":{"ha":365,"x_min":-25,"x_max":229,"o":"m 229 0 l 122 -46 q 3 -176 3 -96 q 26 -222 3 -207 q 86 -237 49 -237 q 178 -219 126 -237 l 172 -247 q 82 -264 126 -264 q 4 -244 33 -264 q -25 -182 -25 -224 q 118 -21 -25 -81 l 221 22 l 229 0 z "},"˜":{"ha":431,"x_min":138,"x_max":472,"o":"m 138 839 q 176 906 150 882 q 238 931 203 931 q 276 922 261 931 q 308 894 290 913 q 340 869 326 878 q 375 861 354 861 q 419 878 399 861 q 447 926 439 896 l 472 926 q 435 863 464 889 q 371 836 406 836 q 329 846 346 836 q 293 874 313 856 q 264 897 278 889 q 232 906 250 906 q 163 839 183 906 l 138 839 z "},"˝":{"ha":389,"x_min":136,"x_max":440,"o":"m 164 835 l 136 835 l 246 979 l 278 979 l 164 835 m 319 835 l 292 835 l 408 979 l 440 979 l 319 835 z "},"π":{"ha":1001,"x_min":144,"x_max":978,"o":"m 978 750 l 972 725 l 851 725 l 724 0 l 696 0 l 824 725 l 300 725 l 172 0 l 144 0 l 272 725 l 151 725 l 157 750 l 978 750 z "},"Ẁ":{"ha":1256,"x_min":156,"x_max":1314,"o":"m 1314 978 l 878 0 l 850 0 l 725 928 l 272 0 l 244 0 l 156 978 l 189 978 l 271 60 l 718 978 l 751 978 l 874 60 l 1281 978 l 1314 978 m 701 1069 l 697 1042 l 469 1222 l 475 1256 l 701 1069 z "},"ẁ":{"ha":1115,"x_min":94,"x_max":1154,"o":"m 1154 750 l 785 0 l 764 0 l 615 700 l 218 0 l 197 0 l 94 750 l 125 750 l 221 57 l 613 750 l 636 750 l 783 57 l 1124 750 l 1154 750 m 631 842 l 626 814 l 399 994 l 404 1028 l 631 842 z "},"Ẃ":{"ha":1256,"x_min":156,"x_max":1314,"o":"m 1314 978 l 878 0 l 850 0 l 725 928 l 272 0 l 244 0 l 156 978 l 189 978 l 271 60 l 718 978 l 751 978 l 874 60 l 1281 978 l 1314 978 m 993 1222 l 701 1042 l 706 1069 l 999 1256 l 993 1222 z "},"ẃ":{"ha":1115,"x_min":94,"x_max":1154,"o":"m 1154 750 l 785 0 l 764 0 l 615 700 l 218 0 l 197 0 l 94 750 l 125 750 l 221 57 l 613 750 l 636 750 l 783 57 l 1124 750 l 1154 750 m 922 994 l 631 814 l 635 842 l 928 1028 l 922 994 z "},"Ẅ":{"ha":1256,"x_min":156,"x_max":1314,"o":"m 1314 978 l 878 0 l 850 0 l 725 928 l 272 0 l 244 0 l 156 978 l 189 978 l 271 60 l 718 978 l 751 978 l 874 60 l 1281 978 l 1314 978 m 624 1099 q 599 1108 608 1099 q 590 1133 590 1118 q 605 1167 590 1153 q 639 1182 619 1182 q 662 1172 653 1182 q 671 1147 671 1163 q 656 1113 671 1128 q 624 1099 642 1099 m 810 1099 q 785 1108 794 1099 q 776 1133 776 1118 q 791 1167 776 1153 q 825 1182 806 1182 q 848 1172 839 1182 q 857 1149 857 1163 q 842 1114 857 1129 q 810 1099 828 1099 z "},"ẅ":{"ha":1115,"x_min":94,"x_max":1154,"o":"m 1154 750 l 785 0 l 764 0 l 615 700 l 218 0 l 197 0 l 94 750 l 125 750 l 221 57 l 613 750 l 636 750 l 783 57 l 1124 750 l 1154 750 m 553 871 q 528 881 538 871 q 519 906 519 890 q 534 940 519 925 q 568 954 549 954 q 591 944 582 954 q 600 919 600 935 q 585 885 600 900 q 553 871 571 871 m 739 871 q 715 881 724 871 q 706 906 706 890 q 720 940 706 925 q 754 954 735 954 q 777 944 768 954 q 786 921 786 935 q 772 886 786 901 q 739 871 757 871 z "},"Ẽ":{"ha":665,"x_min":51,"x_max":703,"o":"m 247 953 l 168 501 l 576 501 l 572 476 l 164 476 l 85 25 l 535 25 l 529 0 l 51 0 l 225 978 l 703 978 l 697 953 l 247 953 m 307 1038 q 346 1105 319 1081 q 407 1129 372 1129 q 445 1120 431 1129 q 478 1093 460 1111 q 510 1068 496 1076 q 544 1060 524 1060 q 588 1077 568 1060 q 617 1125 608 1094 l 642 1125 q 604 1061 633 1088 q 540 1035 575 1035 q 499 1044 515 1035 q 463 1072 482 1054 q 433 1096 447 1088 q 401 1104 419 1104 q 332 1038 353 1104 l 307 1038 z "},"ẽ":{"ha":872,"x_min":75,"x_max":806,"o":"m 513 760 q 674 723 608 760 q 773 626 740 686 q 806 494 806 567 q 800 438 806 476 l 794 410 q 785 363 792 388 l 108 363 q 101 286 101 317 q 181 84 101 153 q 381 15 260 15 q 605 80 507 15 q 740 254 703 144 l 768 254 q 624 63 728 136 q 376 -10 519 -10 q 157 69 239 -10 q 75 286 75 147 q 83 375 75 328 q 166 581 104 493 q 318 714 228 668 q 513 760 408 760 m 767 388 q 779 485 779 442 q 701 672 779 608 q 508 735 624 735 q 338 697 419 735 q 195 581 256 658 q 114 388 135 503 l 767 388 m 385 839 q 424 906 397 882 q 485 931 450 931 q 523 922 508 931 q 556 894 538 913 q 588 869 574 878 q 622 861 601 861 q 666 878 646 861 q 694 926 686 896 l 719 926 q 682 863 711 889 q 618 836 653 836 q 576 846 593 836 q 540 874 560 856 q 511 897 525 889 q 479 906 497 906 q 410 839 431 906 l 385 839 z "},"Ỳ":{"ha":719,"x_min":149,"x_max":785,"o":"m 785 978 l 381 410 l 308 0 l 281 0 l 353 410 l 149 978 l 182 978 l 372 440 l 751 978 l 785 978 m 589 1040 l 585 1013 l 357 1193 l 363 1226 l 589 1040 z "},"ỳ":{"ha":699,"x_min":82,"x_max":738,"o":"m 125 750 l 304 40 l 707 750 l 738 750 l 115 -353 l 82 -353 l 281 -3 l 94 750 l 125 750 m 544 842 l 540 814 l 313 994 l 318 1028 l 544 842 z "},"Ỹ":{"ha":719,"x_min":149,"x_max":785,"o":"m 785 978 l 381 410 l 308 0 l 281 0 l 353 410 l 149 978 l 182 978 l 372 440 l 751 978 l 785 978 m 344 1038 q 383 1105 357 1081 q 444 1129 410 1129 q 483 1120 468 1129 q 515 1093 497 1111 q 547 1068 533 1076 q 582 1060 561 1060 q 626 1077 606 1060 q 654 1125 646 1094 l 679 1125 q 642 1061 671 1088 q 578 1035 613 1035 q 536 1044 553 1035 q 500 1072 519 1054 q 471 1096 485 1088 q 439 1104 457 1104 q 369 1038 390 1104 l 344 1038 z "},"ỹ":{"ha":699,"x_min":82,"x_max":738,"o":"m 125 750 l 304 40 l 707 750 l 738 750 l 115 -353 l 82 -353 l 281 -3 l 94 750 l 125 750 m 300 839 q 339 906 313 882 q 400 931 365 931 q 438 922 424 931 q 471 894 453 913 q 503 869 489 878 q 538 861 517 861 q 581 878 561 861 q 610 926 601 896 l 635 926 q 597 863 626 889 q 533 836 568 836 q 492 846 508 836 q 456 874 475 856 q 426 897 440 889 q 394 906 413 906 q 325 839 346 906 l 300 839 z "},"–":{"ha":807,"x_min":81,"x_max":781,"o":"m 781 540 l 776 515 l 81 515 l 85 540 l 781 540 z "},"—":{"ha":1061,"x_min":81,"x_max":1035,"o":"m 1035 540 l 1031 515 l 81 515 l 85 540 l 1035 540 z "},"‘":{"ha":203,"x_min":90,"x_max":257,"o":"m 135 711 l 90 711 l 232 978 l 257 978 l 135 711 z "},"’":{"ha":203,"x_min":101,"x_max":268,"o":"m 224 978 l 268 978 l 126 711 l 101 711 l 224 978 z "},"‚":{"ha":132,"x_min":-125,"x_max":42,"o":"m -3 117 l 42 117 l -100 -150 l -125 -150 l -3 117 z "},"“":{"ha":356,"x_min":90,"x_max":410,"o":"m 135 711 l 90 711 l 232 978 l 257 978 l 135 711 m 288 711 l 243 711 l 385 978 l 410 978 l 288 711 z "},"”":{"ha":356,"x_min":101,"x_max":421,"o":"m 224 978 l 268 978 l 126 711 l 101 711 l 224 978 m 376 978 l 421 978 l 279 711 l 254 711 l 376 978 z "},"„":{"ha":310,"x_min":-125,"x_max":219,"o":"m -3 117 l 42 117 l -100 -150 l -125 -150 l -3 117 m 175 117 l 219 117 l 78 -150 l 53 -150 l 175 117 z "},"†":{"ha":596,"x_min":103,"x_max":621,"o":"m 615 722 l 371 726 l 183 -353 l 158 -353 l 350 726 l 103 722 l 108 750 l 353 746 l 410 1075 l 435 1075 l 374 746 l 621 750 l 615 722 z "},"‡":{"ha":597,"x_min":-29,"x_max":622,"o":"m 372 726 l 243 -4 l 490 1 l 485 -28 l 239 -24 l 183 -353 l 158 -353 l 218 -24 l -29 -28 l -24 1 l 222 -4 l 351 726 l 103 722 l 108 750 l 354 746 l 410 1075 l 435 1075 l 375 746 l 622 750 l 617 722 l 372 726 z "},"•":{"ha":356,"x_min":56,"x_max":332,"o":"m 169 328 q 88 360 119 328 q 56 440 56 392 q 79 519 56 482 q 140 578 103 556 q 218 600 178 600 q 301 569 269 600 q 332 488 332 538 q 309 409 332 446 q 249 350 286 372 q 169 328 211 328 z "},"…":{"ha":560,"x_min":-17,"x_max":461,"o":"m 215 -3 q 193 5 201 -3 q 185 26 185 13 q 198 59 185 46 q 229 72 211 72 q 251 65 243 72 q 260 43 260 57 q 247 10 260 24 q 215 -3 233 -3 m 417 -3 q 394 5 403 -3 q 386 26 386 13 q 399 59 386 46 q 431 72 413 72 q 453 65 444 72 q 461 43 461 57 q 448 10 461 24 q 417 -3 435 -3 m 14 -3 q -8 5 0 -3 q -17 26 -17 13 q -3 59 -17 46 q 28 72 10 72 q 50 65 42 72 q 58 43 58 57 q 45 10 58 24 q 14 -3 32 -3 z "},"‰":{"ha":1151,"x_min":-10,"x_max":1063,"o":"m 129 774 q 158 881 129 832 q 236 959 188 931 q 340 988 285 988 q 447 947 407 988 q 488 843 488 907 q 458 735 488 785 q 381 658 429 686 q 276 629 332 629 q 169 669 210 629 q 129 774 129 710 m 783 978 l 22 0 l -10 0 l 751 978 l 783 978 m 336 963 q 247 938 288 963 q 181 871 206 914 q 157 776 157 828 q 190 688 157 722 q 281 654 224 654 q 370 678 329 654 q 435 746 411 703 q 460 840 460 789 q 426 928 460 894 q 336 963 393 963 m 288 133 q 316 241 288 192 q 393 319 344 290 q 497 347 442 347 q 605 307 564 347 q 646 203 646 267 q 617 95 646 144 q 539 17 588 46 q 435 -11 490 -11 q 328 29 368 -11 q 288 133 288 69 m 704 133 q 733 241 704 192 q 810 319 761 290 q 914 347 858 347 q 1022 307 981 347 q 1063 203 1063 267 q 1033 95 1063 144 q 956 17 1004 46 q 851 -11 907 -11 q 744 29 785 -11 q 704 133 704 69 m 493 322 q 403 297 444 322 q 339 229 363 272 q 315 135 315 186 q 349 47 315 81 q 439 14 382 14 q 553 58 504 14 q 615 168 603 101 q 618 199 618 190 q 584 288 618 254 q 493 322 550 322 m 910 322 q 820 297 861 322 q 756 229 779 272 q 732 135 732 186 q 765 47 732 81 q 856 14 799 14 q 970 58 921 14 q 1032 168 1019 101 q 1035 199 1035 190 q 1001 288 1035 254 q 910 322 967 322 z "},"‹":{"ha":318,"x_min":68,"x_max":297,"o":"m 175 167 l 68 410 l 260 653 l 297 653 l 103 410 l 213 167 l 175 167 z "},"›":{"ha":318,"x_min":33,"x_max":261,"o":"m 228 410 l 118 653 l 157 653 l 261 410 l 72 167 l 33 167 l 228 410 z "},"⁄":{"ha":288,"x_min":-233,"x_max":561,"o":"m 561 978 l -200 0 l -233 0 l 528 978 l 561 978 z "},"€":{"ha":1163,"x_min":24,"x_max":1135,"o":"m 738 963 q 540 919 635 963 q 370 793 444 875 q 256 599 296 711 l 675 599 l 671 574 l 247 574 q 226 488 235 529 q 217 376 217 433 l 636 376 l 632 351 l 218 351 q 269 172 224 247 q 393 56 315 96 q 569 15 471 15 q 849 90 729 15 q 1036 288 969 164 l 1064 288 q 862 69 988 147 q 565 -10 736 -10 q 372 35 456 -10 q 241 161 289 79 q 188 351 193 243 l 24 351 l 28 376 l 188 376 q 197 488 188 433 q 218 574 206 533 l 63 574 l 67 599 l 226 599 q 345 802 268 714 q 525 939 422 890 q 742 988 628 988 q 1010 908 913 988 q 1135 689 1107 829 l 1107 689 q 990 888 1083 813 q 738 963 897 963 z "},"₺":{"ha":1068,"x_min":74,"x_max":1006,"o":"m 1006 529 q 811 110 957 256 q 421 -36 665 -36 q 290 -19 356 -36 l 357 356 l 74 278 l 78 306 l 361 383 l 399 589 l 114 508 l 118 536 l 403 617 l 467 978 l 494 978 l 432 625 l 753 717 l 749 689 l 426 597 l 390 392 l 711 481 l 707 453 l 386 364 l 321 0 q 425 -11 376 -11 q 790 124 650 -11 q 978 529 931 260 l 1006 529 z "},"₽":{"ha":817,"x_min":64,"x_max":825,"o":"m 556 978 q 759 924 693 978 q 825 774 825 871 q 819 708 825 738 q 705 507 796 574 q 460 440 614 440 l 240 440 l 207 249 l 588 249 l 583 224 l 201 224 l 163 0 l 135 0 l 175 224 l 64 224 l 68 249 l 179 249 l 213 440 l 101 440 l 107 469 l 218 469 l 308 978 l 556 978 m 792 708 q 799 772 799 746 q 739 905 799 860 q 550 950 679 950 l 331 950 l 246 469 l 465 469 q 694 532 615 469 q 792 708 772 594 z "},"ℓ":{"ha":264,"x_min":51,"x_max":261,"o":"m 261 1028 l 79 0 l 51 0 l 233 1028 l 261 1028 z "},"™":{"ha":957,"x_min":143,"x_max":1008,"o":"m 463 950 l 318 950 l 236 489 l 208 489 l 290 950 l 143 950 l 149 978 l 468 978 l 463 950 m 1008 978 l 921 489 l 893 489 l 968 910 l 700 489 l 672 489 l 554 910 l 479 489 l 451 489 l 539 978 l 567 978 l 694 526 l 981 978 l 1008 978 z "},"Ω":{"ha":1103,"x_min":29,"x_max":1063,"o":"m 89 489 q 199 747 115 633 q 405 924 283 861 q 660 988 526 988 q 868 938 776 988 q 1011 799 960 889 q 1063 590 1063 708 q 1053 489 1063 550 q 918 195 1024 321 q 661 31 813 69 l 661 25 l 944 25 l 939 0 l 551 0 l 557 31 q 771 99 672 40 q 936 259 869 158 q 1025 489 1003 360 q 1033 586 1033 539 q 985 784 1033 699 q 851 916 938 869 q 656 963 765 963 q 413 901 528 963 q 218 732 297 840 q 115 489 139 624 q 107 390 107 438 q 192 140 107 236 q 422 31 278 43 l 417 0 l 29 0 l 35 25 l 318 25 l 318 31 q 142 159 204 64 q 79 386 79 254 q 89 489 79 428 z "}}}
